G04*
G04 #@! TF.GenerationSoftware,Altium Limited,Altium Designer,21.0.8 (223)*
G04*
G04 Layer_Physical_Order=2*
G04 Layer_Color=16711680*
%FSLAX24Y24*%
%MOIN*%
G70*
G04*
G04 #@! TF.SameCoordinates,11726A0C-8756-45C8-9DEF-AB95AD2673E8*
G04*
G04*
G04 #@! TF.FilePolarity,Positive*
G04*
G01*
G75*
%ADD10C,0.0100*%
%ADD17C,0.0394*%
%ADD34R,0.0340X0.0318*%
%ADD64C,0.0200*%
%ADD67C,0.0250*%
%ADD68C,0.0080*%
%ADD69C,0.0800*%
%ADD70R,0.0591X0.0591*%
%ADD71C,0.0591*%
%ADD72C,0.1102*%
%ADD73C,0.0591*%
%ADD74O,0.1575X0.0787*%
%ADD75O,0.0787X0.1575*%
%ADD76O,0.0787X0.1772*%
%ADD77C,0.0200*%
%ADD78C,0.0180*%
%ADD79C,0.0170*%
%ADD80C,0.0050*%
D10*
X16523Y1900D02*
X16598Y1975D01*
X16625D01*
X14900Y1900D02*
X16523D01*
X18650Y8700D02*
Y9351D01*
Y8700D02*
X19301D01*
X18650Y8049D02*
Y8700D01*
X17999D02*
X18650D01*
X17900Y9550D02*
Y9750D01*
Y9550D02*
X18100D01*
X17700D02*
X17900D01*
Y9350D02*
Y9550D01*
X17006Y9978D02*
Y10178D01*
Y9978D02*
X17206D01*
X16806D02*
X17006D01*
Y9778D02*
Y9978D01*
X15679Y8379D02*
X15879D01*
X16079D01*
X15879D02*
Y8579D01*
Y8179D02*
Y8379D01*
X17550Y6600D02*
Y6800D01*
X12029Y9367D02*
Y9567D01*
X11829Y9367D02*
X12029D01*
X12229D01*
X13000Y8850D02*
Y9050D01*
X12800Y8850D02*
X13000D01*
Y8650D02*
Y8850D01*
X13200D01*
X17350Y6600D02*
X17550D01*
X17750D01*
X17550Y6400D02*
Y6600D01*
X14872Y5750D02*
Y5950D01*
Y5750D02*
X15072D01*
X14672D02*
X14872D01*
X20044Y3925D02*
X20244D01*
Y4125D01*
Y3925D02*
X20444D01*
X20244Y3725D02*
Y3925D01*
X19650Y1450D02*
Y1650D01*
Y1450D02*
X19850D01*
X19650Y1250D02*
Y1450D01*
X11550Y4450D02*
X11750D01*
X12900Y3250D02*
Y3450D01*
Y3250D02*
X13100D01*
X12700D02*
X12900D01*
Y3050D02*
Y3250D01*
X12056Y4200D02*
Y4400D01*
X11750Y4450D02*
X11950D01*
X11750D02*
Y4650D01*
Y4250D02*
Y4450D01*
X11856Y4200D02*
X12056D01*
Y4000D02*
Y4200D01*
X14655Y1450D02*
X15050D01*
Y1055D02*
Y1450D01*
X13000Y2300D02*
Y2500D01*
X12800Y2300D02*
X13000D01*
X13200D01*
X13000Y2100D02*
Y2300D01*
X12533Y2083D02*
Y2283D01*
X12333Y2083D02*
X12533D01*
X12733D01*
X13000Y1300D02*
X13200D01*
X13000Y1100D02*
Y1300D01*
X12800D02*
X13000D01*
X12050Y600D02*
X12250D01*
Y800D01*
Y600D02*
X12450D01*
X12250Y400D02*
Y600D01*
X8765Y8582D02*
Y8782D01*
Y8582D02*
X8965D01*
X8565D02*
X8765D01*
Y8382D02*
Y8582D01*
X8850Y5850D02*
X9050D01*
X8850Y5650D02*
Y5850D01*
Y6050D01*
X8650Y5850D02*
X8850D01*
X7050Y6850D02*
Y7050D01*
X6850Y6850D02*
X7050D01*
X7250D01*
X7050Y6650D02*
Y6850D01*
X4900Y7100D02*
Y7300D01*
Y7100D02*
X5100D01*
X4700D02*
X4900D01*
X4531Y6475D02*
Y6969D01*
X3350Y7556D02*
Y8444D01*
X4531Y6475D02*
X5418D01*
X4531Y5982D02*
Y6475D01*
X3644D02*
X4531D01*
X6100Y5400D02*
X6300D01*
X5900D02*
X6100D01*
Y5200D02*
Y5400D01*
Y5600D01*
X3250Y5300D02*
X3450D01*
X3250D02*
Y5500D01*
X3050Y5300D02*
X3250D01*
Y5100D02*
Y5300D01*
X1457Y5864D02*
Y6064D01*
Y5864D02*
X1657D01*
X1257D02*
X1457D01*
Y5664D02*
Y5864D01*
X9700Y3500D02*
X9900D01*
X9700Y3300D02*
Y3500D01*
X9500D02*
X9700D01*
Y3700D01*
X9550Y2800D02*
Y3000D01*
X11450Y600D02*
Y800D01*
X11250Y600D02*
X11450D01*
X11650D01*
X11450Y400D02*
Y600D01*
X10550D02*
Y800D01*
Y600D02*
X10750D01*
X10550Y400D02*
Y600D01*
X10350D02*
X10550D01*
X9550Y2800D02*
X9750D01*
X9350D02*
X9550D01*
Y2600D02*
Y2800D01*
X9350Y1850D02*
X9550D01*
X9750D01*
X9550Y1650D02*
Y1850D01*
X9675Y725D02*
Y925D01*
X9475Y725D02*
X9675D01*
Y525D02*
Y725D01*
X9875D01*
X6850Y3300D02*
Y3500D01*
Y3300D02*
X7050D01*
X6650D02*
X6850D01*
Y3100D02*
Y3300D01*
X8300Y2400D02*
X8500D01*
X8300D02*
Y2600D01*
X8100Y2400D02*
X8300D01*
Y2200D02*
Y2400D01*
X8400Y1300D02*
X8600D01*
X8400D02*
Y1500D01*
X8200Y1300D02*
X8400D01*
X3718Y1250D02*
X3918D01*
X8400Y1100D02*
Y1300D01*
X3718Y1050D02*
Y1250D01*
X3518D02*
X3718D01*
Y1450D01*
X2950Y1250D02*
Y1450D01*
Y1250D02*
X3150D01*
X2750D02*
X2950D01*
Y1050D02*
Y1250D01*
X2197Y1250D02*
Y1450D01*
X1997Y1250D02*
X2197D01*
Y1050D02*
Y1250D01*
X2397D01*
X1377Y2829D02*
Y3029D01*
Y2629D02*
Y2829D01*
X1577D01*
X1177D02*
X1377D01*
X1437Y1250D02*
Y1450D01*
X1237Y1250D02*
X1437D01*
Y1050D02*
Y1250D01*
X1637D01*
X16750Y4500D02*
X17498D01*
X16150Y5100D02*
X16750Y4500D01*
X16150Y5100D02*
Y5100D01*
X17498Y4500D02*
X17580Y4582D01*
X18450D01*
X18153Y7192D02*
Y7292D01*
X18011Y7050D02*
X18153Y7192D01*
X17448Y5923D02*
X17847D01*
X17914Y5990D01*
X18460D01*
X19650Y4800D01*
X16050Y6791D02*
Y6800D01*
X15650Y6000D02*
X15992Y5658D01*
X15650Y6000D02*
Y6700D01*
X16350Y6050D02*
X16800Y5600D01*
X16861Y5150D02*
Y5166D01*
X16092Y5934D02*
X16861Y5166D01*
X16092Y5934D02*
Y5950D01*
X19525Y5800D02*
X19537D01*
X19694Y5643D01*
X19525Y5800D02*
Y7475D01*
X19700Y7650D01*
X19694Y5643D02*
X19857D01*
X16000Y7050D02*
X18011D01*
X15650Y6700D02*
X16000Y7050D01*
X19857Y5643D02*
X19950Y5550D01*
Y4550D02*
Y5550D01*
X14617Y5018D02*
Y5056D01*
X14911Y5350D01*
X14299Y4700D02*
X14617Y5018D01*
X14675Y3250D02*
X14700D01*
X14265Y2865D02*
X14290D01*
X14675Y3250D01*
X22750Y6089D02*
Y6150D01*
X23039Y6243D02*
X23050D01*
X22750Y4150D02*
Y4218D01*
X2250Y4250D02*
X2650Y3850D01*
X2250Y4250D02*
Y5743D01*
X7245Y4595D02*
X8250Y5600D01*
X7245Y3195D02*
Y4595D01*
X2250Y5743D02*
X4507Y8000D01*
X5100D01*
X23400Y4807D02*
X23411D01*
X23389Y4857D02*
X23400D01*
X23389Y5450D02*
X23400D01*
X19650Y3250D02*
Y4800D01*
X16600Y8150D02*
X17850D01*
X18700Y7300D01*
Y6800D02*
Y7300D01*
X19045Y2050D02*
X19050D01*
X17800Y2000D02*
X18995D01*
X17550Y2250D02*
X17800Y2000D01*
X18995D02*
X19045Y2050D01*
X14406Y2394D02*
X14900Y1900D01*
X13700Y2394D02*
X14406D01*
X12450Y4228D02*
X12462Y4216D01*
X12450Y4228D02*
Y5450D01*
Y4200D02*
X12950Y4700D01*
X14299D01*
X14287Y2865D02*
X14322Y2900D01*
X17350D02*
X17550Y2700D01*
X14265Y2865D02*
X14287D01*
X14322Y2900D02*
X17350D01*
X14250Y2850D02*
X14265Y2865D01*
X17550Y2250D02*
Y2700D01*
D17*
X5791Y7952D02*
Y8936D01*
X4137Y6475D02*
X4925D01*
X3350Y8050D02*
Y8837D01*
D34*
X23400Y4857D02*
D03*
Y5450D02*
D03*
D64*
X12470Y9169D02*
X12651Y9350D01*
X13250D01*
X13450Y9150D01*
X22750Y4218D02*
X23389Y4857D01*
X22750Y6089D02*
X23389Y5450D01*
D67*
X13200Y7300D02*
X16550D01*
X11200Y5300D02*
X13200Y7300D01*
X8900Y5300D02*
X11200D01*
X8000Y4400D02*
X8900Y5300D01*
X10500Y8950D02*
X12251D01*
X9928Y8379D02*
X10500Y8950D01*
X12251D02*
X12470Y9169D01*
X13900Y1700D02*
X14000Y1800D01*
X10700Y1700D02*
X13900D01*
X10200Y2200D02*
X10700Y1700D01*
X14306Y850D02*
Y1494D01*
X14000Y1800D02*
X14306Y1494D01*
X10071Y4979D02*
X10200Y4850D01*
Y2200D02*
Y4850D01*
X10050Y5650D02*
Y8257D01*
X9928Y8379D02*
X10050Y8257D01*
X8907Y2179D02*
X10179D01*
X10200Y2200D01*
D68*
X15950Y6691D02*
X16050Y6791D01*
X15950Y6309D02*
Y6691D01*
X16009Y6250D02*
X16558D01*
X15950Y6309D02*
X16009Y6250D01*
X16558D02*
X17058Y5750D01*
X17750Y5050D02*
Y5350D01*
X16172Y6535D02*
X16565D01*
X17750Y5350D01*
D69*
X22750Y4150D02*
D03*
Y6150D02*
D03*
D70*
X19050Y2450D02*
D03*
D71*
X19050Y1450D02*
D03*
X18050Y2450D02*
D03*
Y1450D02*
D03*
X17050Y2450D02*
D03*
Y1450D02*
D03*
X16050Y2450D02*
D03*
X16050Y1450D02*
D03*
X15050Y2450D02*
D03*
Y1450D02*
D03*
X4137Y6475D02*
D03*
X4925D02*
D03*
X3350Y8837D02*
D03*
Y8050D02*
D03*
D72*
X18650Y3700D02*
D03*
Y8700D02*
D03*
D73*
X5791Y7952D02*
D03*
Y8936D02*
D03*
D74*
X4531Y6475D02*
D03*
D75*
X3350Y8444D02*
D03*
D76*
X5791Y8444D02*
D03*
D77*
X16625Y1975D02*
D03*
X19650Y1450D02*
D03*
X15475Y1475D02*
D03*
X17058Y5750D02*
D03*
X15992Y5658D02*
D03*
X16800Y5600D02*
D03*
X19525Y5800D02*
D03*
X16092Y5950D02*
D03*
X16550Y7300D02*
D03*
X16150Y6550D02*
D03*
X17750Y5050D02*
D03*
X16861Y5150D02*
D03*
X14911Y5350D02*
D03*
X14872Y5750D02*
D03*
X16050Y6800D02*
D03*
X16150Y5100D02*
D03*
X14700Y3250D02*
D03*
X12029Y9367D02*
D03*
X2650Y3850D02*
D03*
X8250Y5600D02*
D03*
X7245Y3195D02*
D03*
X8000Y4400D02*
D03*
X5100Y8000D02*
D03*
X3250Y5300D02*
D03*
X1457Y5864D02*
D03*
X2250Y5743D02*
D03*
X1377Y2829D02*
D03*
X3718Y1250D02*
D03*
X2950Y1250D02*
D03*
X2197Y1250D02*
D03*
X1437D02*
D03*
X8400Y1300D02*
D03*
X8900Y2150D02*
D03*
X8300Y2400D02*
D03*
X6850Y3300D02*
D03*
X6100Y5400D02*
D03*
X7050Y6850D02*
D03*
X4900Y7100D02*
D03*
X12450Y5450D02*
D03*
X11750Y4450D02*
D03*
X13000Y8850D02*
D03*
X15879Y8379D02*
D03*
X12450Y4200D02*
D03*
X10050Y5650D02*
D03*
X9928Y8379D02*
D03*
X8850Y5850D02*
D03*
X10071Y4979D02*
D03*
X12470Y9169D02*
D03*
X12056Y4200D02*
D03*
X8765Y8582D02*
D03*
X13450Y9150D02*
D03*
X16350Y6050D02*
D03*
X12900Y3250D02*
D03*
X19950Y4550D02*
D03*
X20244Y3925D02*
D03*
X19650Y3250D02*
D03*
X17900Y9550D02*
D03*
X17006Y9978D02*
D03*
X16600Y8150D02*
D03*
X17550Y6600D02*
D03*
X14000Y1800D02*
D03*
X14306Y850D02*
D03*
X18700Y6800D02*
D03*
X19700Y7650D02*
D03*
X10200Y2200D02*
D03*
X13000Y2300D02*
D03*
Y1300D02*
D03*
X12250Y600D02*
D03*
X11450D02*
D03*
X10550D02*
D03*
X9675Y725D02*
D03*
X9550Y1850D02*
D03*
Y2800D02*
D03*
X9700Y3500D02*
D03*
X12533Y2083D02*
D03*
X13700Y2394D02*
D03*
X14250Y2850D02*
D03*
X19050Y2050D02*
D03*
D78*
X18450Y4582D02*
D03*
X18153Y7292D02*
D03*
D79*
X17448Y5923D02*
D03*
D80*
X19706Y7465D02*
G03*
X19885Y7650I-6J185D01*
G01*
D02*
G03*
X19515Y7656I-185J0D01*
G01*
X19430Y7571D02*
G03*
X19390Y7475I95J-96D01*
G01*
X19430Y7570D02*
G03*
X19390Y7475I95J-95D01*
G01*
X18835Y7300D02*
G03*
X18795Y7395I-135J0D01*
G01*
X18835Y7300D02*
G03*
X18795Y7396I-135J0D01*
G01*
X19326Y8700D02*
G03*
X19326Y8700I-676J0D01*
G01*
X18288Y7180D02*
G03*
X18328Y7292I-134J112D01*
G01*
D02*
G03*
X17993Y7223I-175J0D01*
G01*
X18249Y7097D02*
G03*
X18288Y7180I-95J95D01*
G01*
X18248Y7097D02*
G03*
X18288Y7180I-95J96D01*
G01*
X19709Y5819D02*
G03*
X19660Y5926I-184J-19D01*
G01*
X20085Y5550D02*
G03*
X20045Y5645I-135J0D01*
G01*
X20085Y5550D02*
G03*
X20045Y5646I-135J0D01*
G01*
X19952Y5738D02*
G03*
X19857Y5778I-96J-95D01*
G01*
X19952Y5739D02*
G03*
X19857Y5778I-95J-95D01*
G01*
X19598Y5548D02*
G03*
X19694Y5508I95J95D01*
G01*
X19598Y5548D02*
G03*
X19694Y5508I96J95D01*
G01*
X19390Y5926D02*
G03*
X19531Y5615I135J-126D01*
G01*
X18565Y6926D02*
G03*
X18885Y6800I135J-126D01*
G01*
D02*
G03*
X18835Y6926I-185J0D01*
G01*
X18555Y6086D02*
G03*
X18460Y6125I-95J-95D01*
G01*
X18555Y6086D02*
G03*
X18460Y6125I-96J-95D01*
G01*
X18125Y9550D02*
G03*
X18125Y9550I-225J0D01*
G01*
X17231Y9978D02*
G03*
X17231Y9978I-225J0D01*
G01*
X13635Y9150D02*
G03*
X13581Y9281I-185J0D01*
G01*
X13635Y9150D02*
G03*
X13581Y9281I-185J0D01*
G01*
X17946Y8245D02*
G03*
X17850Y8285I-96J-95D01*
G01*
X17945Y8245D02*
G03*
X17850Y8285I-95J-95D01*
G01*
X18011Y6915D02*
G03*
X18107Y6955I0J135D01*
G01*
X18011Y6915D02*
G03*
X18106Y6955I0J135D01*
G01*
X16726Y8285D02*
G03*
X16726Y8015I-126J-135D01*
G01*
X16104Y8379D02*
G03*
X16104Y8379I-225J0D01*
G01*
X16726Y7185D02*
G03*
X16760Y7300I-176J115D01*
G01*
X17775Y6600D02*
G03*
X17775Y6600I-225J0D01*
G01*
X16760Y7300D02*
G03*
X16550Y7510I-210J0D01*
G01*
X16235Y6800D02*
G03*
X16195Y6915I-185J0D01*
G01*
X13381Y9481D02*
G03*
X13250Y9535I-131J-131D01*
G01*
X13381Y9481D02*
G03*
X13250Y9535I-131J-131D01*
G01*
X12651D02*
G03*
X12520Y9481I0J-185D01*
G01*
X12651Y9535D02*
G03*
X12520Y9481I0J-185D01*
G01*
X13319Y9019D02*
G03*
X13635Y9150I131J131D01*
G01*
X12619Y9021D02*
G03*
X12671Y9109I-148J148D01*
G01*
X12254Y9367D02*
G03*
X11941Y9160I-225J0D01*
G01*
X12410Y9370D02*
G03*
X12322Y9318I61J-201D01*
G01*
X12117Y9160D02*
G03*
X12254Y9367I-88J207D01*
G01*
X13319Y9019D02*
G03*
X13635Y9150I131J131D01*
G01*
X13225Y8850D02*
G03*
X13225Y8850I-225J0D01*
G01*
X13200Y7510D02*
G03*
X13051Y7448I0J-210D01*
G01*
X13200Y7510D02*
G03*
X13052Y7448I0J-210D01*
G01*
X12251Y8740D02*
G03*
X12400Y8802I0J210D01*
G01*
X12251Y8740D02*
G03*
X12400Y8802I0J210D01*
G01*
X17914Y6125D02*
G03*
X17818Y6086I0J-135D01*
G01*
X17914Y6125D02*
G03*
X17818Y6086I0J-135D01*
G01*
X17552Y6058D02*
G03*
X17290Y5986I-103J-135D01*
G01*
X16299Y6660D02*
G03*
X16218Y6722I-149J-110D01*
G01*
X16654Y6623D02*
G03*
X16565Y6660I-89J-88D01*
G01*
X16654Y6623D02*
G03*
X16565Y6660I-88J-88D01*
G01*
X16218Y6722D02*
G03*
X16235Y6800I-168J78D01*
G01*
X15555Y6796D02*
G03*
X15515Y6700I95J-96D01*
G01*
X15555Y6795D02*
G03*
X15515Y6700I95J-95D01*
G01*
Y6000D02*
G03*
X15555Y5905I135J0D01*
G01*
X15515Y6000D02*
G03*
X15555Y5904I135J0D01*
G01*
X17847Y5788D02*
G03*
X17942Y5828I0J135D01*
G01*
X17847Y5788D02*
G03*
X17942Y5828I0J135D01*
G01*
X17511Y5766D02*
G03*
X17552Y5788I-63J158D01*
G01*
X17875Y5350D02*
G03*
X17838Y5439I-125J0D01*
G01*
X17875Y5350D02*
G03*
X17838Y5438I-125J0D01*
G01*
X17050Y5565D02*
G03*
X17233Y5690I8J185D01*
G01*
X15807Y5652D02*
G03*
X16177Y5658I185J6D01*
G01*
X16802Y5415D02*
G03*
X16956Y5500I-2J185D01*
G01*
X15096Y5350D02*
G03*
X14933Y5534I-185J0D01*
G01*
Y5534D02*
G03*
X15097Y5750I-62J216D01*
G01*
D02*
G03*
X14853Y5526I-225J0D01*
G01*
Y5526D02*
G03*
X14726Y5356I58J-176D01*
G01*
X12585Y5324D02*
G03*
X12635Y5450I-135J126D01*
G01*
D02*
G03*
X12315Y5324I-185J0D01*
G01*
X19785Y4800D02*
G03*
X19745Y4895I-135J0D01*
G01*
X19785Y4800D02*
G03*
X19745Y4896I-135J0D01*
G01*
X20135Y4550D02*
G03*
X20085Y4676I-185J0D01*
G01*
X19785Y4466D02*
G03*
X20135Y4550I165J84D01*
G01*
X19815Y4676D02*
G03*
X19785Y4634I135J-126D01*
G01*
X20469Y3925D02*
G03*
X20469Y3925I-225J0D01*
G01*
X17625Y5186D02*
G03*
X17935Y5050I125J-136D01*
G01*
D02*
G03*
X17875Y5186I-185J0D01*
G01*
X18625Y4582D02*
G03*
X18339Y4717I-175J0D01*
G01*
Y4447D02*
G03*
X18625Y4582I111J135D01*
G01*
X19286Y3700D02*
G03*
X19286Y3700I-636J0D01*
G01*
X19835Y3250D02*
G03*
X19785Y3376I-185J0D01*
G01*
X19515D02*
G03*
X19835Y3250I135J-126D01*
G01*
X19875Y1450D02*
G03*
X19500Y1618I-225J0D01*
G01*
X19455Y1338D02*
G03*
X19875Y1450I195J112D01*
G01*
X18630Y1446D02*
G03*
X19455Y1338I420J4D01*
G01*
X17673Y1496D02*
G03*
X18430Y1450I377J-46D01*
G01*
X17046Y5150D02*
G03*
X16884Y5334I-185J0D01*
G01*
X16676Y5159D02*
G03*
X17046Y5150I185J-9D01*
G01*
X14917Y5165D02*
G03*
X15096Y5350I-6J185D01*
G01*
X14521Y5152D02*
G03*
X14483Y5075I95J-96D01*
G01*
X14521Y5151D02*
G03*
X14483Y5075I95J-95D01*
G01*
X14712Y4923D02*
G03*
X14750Y4998I-95J95D01*
G01*
X14712Y4922D02*
G03*
X14750Y4998I-95J96D01*
G01*
X17580Y4717D02*
G03*
X17485Y4678I0J-135D01*
G01*
X17580Y4717D02*
G03*
X17485Y4678I0J-135D01*
G01*
X17498Y4365D02*
G03*
X17594Y4405I0J135D01*
G01*
X17498Y4365D02*
G03*
X17593Y4405I0J135D01*
G01*
X16654Y4405D02*
G03*
X16750Y4365I96J95D01*
G01*
X16655Y4405D02*
G03*
X16750Y4365I95J95D01*
G01*
X16335Y5106D02*
G03*
X16144Y4915I-185J-6D01*
G01*
X14299Y4565D02*
G03*
X14394Y4605I0J135D01*
G01*
X14299Y4565D02*
G03*
X14394Y4605I0J135D01*
G01*
X14856Y3350D02*
G03*
X14518Y3284I-156J-100D01*
G01*
X14268Y3034D02*
G03*
X14079Y2779I-18J-184D01*
G01*
X12950Y4835D02*
G03*
X12855Y4795I0J-135D01*
G01*
X12950Y4835D02*
G03*
X12854Y4795I0J-135D01*
G01*
X13125Y3250D02*
G03*
X13125Y3250I-225J0D01*
G01*
X12274Y4143D02*
G03*
X12635Y4194I176J57D01*
G01*
X11971Y4408D02*
G03*
X11975Y4450I-221J42D01*
G01*
X12274Y4257D02*
G03*
X11971Y4408I-218J-57D01*
G01*
X11975Y4450D02*
G03*
X11835Y4242I-225J0D01*
G01*
X12315Y4326D02*
G03*
X12274Y4257I135J-126D01*
G01*
X11835Y4242D02*
G03*
X12274Y4143I221J-42D01*
G01*
X17430Y1450D02*
G03*
X17426Y1509I-380J0D01*
G01*
X14149Y1948D02*
G03*
X13852Y1948I-149J-148D01*
G01*
X14148D02*
G03*
X13851Y1948I-148J-148D01*
G01*
X13826Y2529D02*
G03*
X13826Y2259I-126J-135D01*
G01*
X14516Y1494D02*
G03*
X14455Y1642I-210J0D01*
G01*
X14516Y1494D02*
G03*
X14455Y1642I-210J0D01*
G01*
X13900Y1490D02*
G03*
X13992Y1511I0J210D01*
G01*
X13900Y1490D02*
G03*
X13992Y1511I0J210D01*
G01*
X17350Y1216D02*
G03*
X17430Y1450I-300J234D01*
G01*
X15677Y1376D02*
G03*
X15757Y1207I373J74D01*
G01*
X16816Y1150D02*
G03*
X17284Y1150I234J300D01*
G01*
X15816D02*
G03*
X16284Y1150I234J300D01*
G01*
X15423Y1256D02*
G03*
X15677Y1376I52J219D01*
G01*
X14813Y1797D02*
G03*
X15423Y1256I237J-347D01*
G01*
X14096Y850D02*
G03*
X14516Y850I210J0D01*
G01*
X13225Y2300D02*
G03*
X13225Y2300I-225J0D01*
G01*
X12758Y2083D02*
G03*
X12389Y1910I-225J0D01*
G01*
X12677D02*
G03*
X12758Y2083I-144J173D01*
G01*
X13225Y1300D02*
G03*
X13121Y1490I-225J0D01*
G01*
X12879D02*
G03*
X13225Y1300I121J-190D01*
G01*
X12475Y600D02*
G03*
X12475Y600I-225J0D01*
G01*
X10500Y9160D02*
G03*
X10351Y9098I0J-210D01*
G01*
X10500Y9160D02*
G03*
X10351Y9098I0J-210D01*
G01*
X10260Y8257D02*
G03*
X10223Y8376I-210J0D01*
G01*
X10260Y8257D02*
G03*
X10223Y8376I-210J0D01*
G01*
X9780Y8527D02*
G03*
X9780Y8230I148J-148D01*
G01*
X8990Y8582D02*
G03*
X8990Y8582I-225J0D01*
G01*
X9780Y8528D02*
G03*
X9780Y8230I148J-149D01*
G01*
X11200Y5090D02*
G03*
X11348Y5152I0J210D01*
G01*
X11200Y5090D02*
G03*
X11349Y5152I0J210D01*
G01*
X9840Y5650D02*
G03*
X9893Y5510I210J0D01*
G01*
X10207D02*
G03*
X10260Y5650I-157J140D01*
G01*
X9075Y5850D02*
G03*
X9075Y5850I-225J0D01*
G01*
X8900Y5510D02*
G03*
X8751Y5448I0J-210D01*
G01*
X8900Y5510D02*
G03*
X8752Y5448I0J-210D01*
G01*
X4507Y8135D02*
G03*
X4411Y8095I0J-135D01*
G01*
X4507Y8135D02*
G03*
X4411Y8095I0J-135D01*
G01*
X5285Y8000D02*
G03*
X4974Y8135I-185J0D01*
G01*
Y7865D02*
G03*
X5285Y8000I126J135D01*
G01*
X5312Y7952D02*
G03*
X6270Y7952I479J0D01*
G01*
X7275Y6850D02*
G03*
X7275Y6850I-225J0D01*
G01*
X5125Y7100D02*
G03*
X4702Y6994I-225J0D01*
G01*
X5444Y6475D02*
G03*
X5083Y6969I-519J0D01*
G01*
D02*
G03*
X5125Y7100I-183J131D01*
G01*
X2831Y8050D02*
G03*
X3869Y8050I519J0D01*
G01*
X4137Y6994D02*
G03*
X4137Y5957I0J-519D01*
G01*
X8435Y5600D02*
G03*
X8065Y5606I-185J0D01*
G01*
X4925Y5957D02*
G03*
X5444Y6475I0J519D01*
G01*
X8256Y5415D02*
G03*
X8435Y5600I-6J185D01*
G01*
X6325Y5400D02*
G03*
X6325Y5400I-225J0D01*
G01*
X3475Y5300D02*
G03*
X3475Y5300I-225J0D01*
G01*
X2385Y5617D02*
G03*
X2435Y5737I-135J126D01*
G01*
X2244Y5928D02*
G03*
X2115Y5617I6J-185D01*
G01*
X1682Y5864D02*
G03*
X1682Y5864I-225J0D01*
G01*
X10410Y4850D02*
G03*
X10348Y4998I-210J0D01*
G01*
X10410Y4850D02*
G03*
X10348Y4999I-210J0D01*
G01*
X9893Y5090D02*
G03*
X9923Y4830I178J-111D01*
G01*
X9925Y3500D02*
G03*
X9925Y3500I-225J0D01*
G01*
X9775Y2800D02*
G03*
X9775Y2800I-225J0D01*
G01*
X11675Y600D02*
G03*
X11675Y600I-225J0D01*
G01*
X10551Y1552D02*
G03*
X10700Y1490I149J148D01*
G01*
X10552Y1552D02*
G03*
X10700Y1490I148J148D01*
G01*
X10775Y600D02*
G03*
X10775Y600I-225J0D01*
G01*
X9359Y1969D02*
G03*
X9775Y1850I191J-119D01*
G01*
D02*
G03*
X9741Y1969I-225J0D01*
G01*
X9900Y725D02*
G03*
X9900Y725I-225J0D01*
G01*
X7149Y4690D02*
G03*
X7110Y4595I95J-95D01*
G01*
X7150Y4690D02*
G03*
X7110Y4595I95J-96D01*
G01*
X7852Y4548D02*
G03*
X8148Y4252I148J-148D01*
G01*
X7110Y3321D02*
G03*
X7071Y3259I135J-126D01*
G01*
X7062Y3225D02*
G03*
X7430Y3195I182J-31D01*
G01*
D02*
G03*
X7380Y3321I-185J0D01*
G01*
X2835Y3850D02*
G03*
X2656Y4035I-185J0D01*
G01*
X2465Y3844D02*
G03*
X2835Y3850I185J6D01*
G01*
X7071Y3259D02*
G03*
X7075Y3300I-221J41D01*
G01*
D02*
G03*
X7062Y3225I-225J0D01*
G01*
X2115Y4250D02*
G03*
X2155Y4155I135J0D01*
G01*
X2115Y4250D02*
G03*
X2155Y4154I135J0D01*
G01*
X8907Y2389D02*
G03*
X8759Y2030I0J-210D01*
G01*
X8525Y2400D02*
G03*
X8525Y2400I-225J0D01*
G01*
X8759Y2030D02*
G03*
X8939Y1969I141J120D01*
G01*
X8625Y1300D02*
G03*
X8625Y1300I-225J0D01*
G01*
X3943Y1250D02*
G03*
X3943Y1250I-225J0D01*
G01*
X3175Y1250D02*
G03*
X3175Y1250I-225J0D01*
G01*
X2422Y1250D02*
G03*
X2422Y1250I-225J0D01*
G01*
X1602Y2829D02*
G03*
X1602Y2829I-225J0D01*
G01*
X1662Y1250D02*
G03*
X1662Y1250I-225J0D01*
G01*
X19324Y8640D02*
X20550D01*
X19319Y8600D02*
X20550D01*
X19326Y8680D02*
X20550D01*
X19302Y8520D02*
X20550D01*
X19312Y8560D02*
X20550D01*
X19274Y8440D02*
X20550D01*
X19289Y8480D02*
X20550D01*
X19234Y8360D02*
X20550D01*
X19256Y8400D02*
X20550D01*
X19180Y8280D02*
X20550D01*
X19146Y8240D02*
X20550D01*
X19209Y8320D02*
X20550D01*
X19808Y7800D02*
X20550D01*
X19105Y8200D02*
X20550D01*
X18998Y8120D02*
X20550D01*
X19057Y8160D02*
X20550D01*
X18797Y8040D02*
X20550D01*
X18920Y8080D02*
X20550D01*
X19105Y9200D02*
X20550D01*
X19146Y9160D02*
X20550D01*
X19950Y10550D02*
X20550Y9950D01*
X19209Y9080D02*
X20550D01*
X19180Y9120D02*
X20550D01*
X18920Y9320D02*
X20550D01*
X18797Y9360D02*
X20550D01*
X19057Y9240D02*
X20550D01*
X18998Y9280D02*
X20550D01*
X19312Y8840D02*
X20550D01*
X19319Y8800D02*
X20550D01*
X19302Y8880D02*
X20550D01*
X19326Y8720D02*
X20550D01*
X19324Y8760D02*
X20550D01*
X19256Y9000D02*
X20550D01*
X19234Y9040D02*
X20550D01*
X19289Y8920D02*
X20550D01*
X19274Y8960D02*
X20550D01*
X19883Y7680D02*
X20550D01*
X19885Y7640D02*
X20550D01*
X19871Y7720D02*
X20550D01*
X19862Y7560D02*
X20550D01*
X19878Y7600D02*
X20550D01*
X19832Y7520D02*
X20550D01*
X19849Y7760D02*
X20550D01*
X19773Y7480D02*
X20550D01*
X19660Y7240D02*
X20550D01*
X19660Y7200D02*
X20550D01*
X19681Y7440D02*
X20550D01*
X19660Y7120D02*
X20550D01*
X19660Y7160D02*
X20550D01*
X19660Y7360D02*
X20550D01*
X19660Y7400D02*
X20550D01*
X19660Y7280D02*
X20550D01*
X19660Y7320D02*
X20550D01*
X19660Y7419D02*
X19706Y7465D01*
X19430Y7571D02*
X19515Y7656D01*
X19660Y5926D02*
Y7419D01*
X19390Y5926D02*
Y7475D01*
X18835Y7200D02*
X19390D01*
X18835Y7240D02*
X19390D01*
X18835Y7120D02*
X19390D01*
X18835Y7160D02*
X19390D01*
X18834Y7320D02*
X19390D01*
X18821Y7360D02*
X19390D01*
X18835Y7280D02*
X19390D01*
X18835Y6926D02*
Y7300D01*
X17230Y10000D02*
X20500D01*
X17230Y9960D02*
X20540D01*
X17222Y10040D02*
X20460D01*
X17981Y9760D02*
X20550D01*
X17223Y9920D02*
X20550D01*
X17208Y9880D02*
X20550D01*
X17206Y10080D02*
X20420D01*
X17144Y9800D02*
X20550D01*
X17184Y9840D02*
X20550D01*
X18119Y9600D02*
X20550D01*
X18125Y9560D02*
X20550D01*
X18106Y9640D02*
X20550D01*
X18114Y9480D02*
X20550D01*
X18123Y9520D02*
X20550D01*
X18084Y9680D02*
X20550D01*
X18047Y9720D02*
X20550D01*
X18068Y9400D02*
X20550D01*
X18096Y9440D02*
X20550D01*
X17138Y10160D02*
X20340D01*
X17180Y10120D02*
X20380D01*
X18021Y9360D02*
X18503D01*
X17041Y10200D02*
X20300D01*
X13542Y9320D02*
X18380D01*
X13582Y9280D02*
X18302D01*
X13612Y9240D02*
X18243D01*
X18111Y8080D02*
X18380D01*
X18151Y8040D02*
X18503D01*
X13628Y9200D02*
X18195D01*
X18071Y8120D02*
X18302D01*
X18031Y8160D02*
X18243D01*
X18311Y7880D02*
X20550D01*
X18351Y7840D02*
X20550D01*
X18391Y7800D02*
X19592D01*
X18431Y7760D02*
X19551D01*
X18471Y7720D02*
X19529D01*
X18231Y7960D02*
X20550D01*
X18191Y8000D02*
X20550D01*
X18271Y7920D02*
X20550D01*
X17946Y8245D02*
X18795Y7396D01*
X18631Y7560D02*
X19420D01*
X18671Y7520D02*
X19398D01*
X18711Y7480D02*
X19390D01*
X18791Y7400D02*
X19390D01*
X18751Y7440D02*
X19390D01*
X18511Y7680D02*
X19517D01*
X18551Y7640D02*
X19499D01*
X18591Y7600D02*
X19459D01*
X18232Y7080D02*
X18565D01*
X18315Y7360D02*
X18449D01*
X18326Y7320D02*
X18489D01*
X18291Y7400D02*
X18409D01*
X18328Y7280D02*
X18529D01*
X18247Y7440D02*
X18369D01*
X16658Y7480D02*
X18329D01*
X17794Y8015D02*
X18565Y7244D01*
X18302Y7200D02*
X18565D01*
X18320Y7240D02*
X18565D01*
Y6926D02*
Y7244D01*
X18284Y7160D02*
X18565D01*
X18267Y7120D02*
X18565D01*
X18107Y6955D02*
X18248Y7097D01*
X19660Y6280D02*
X20550D01*
X19660Y6240D02*
X20550D01*
X19660Y6320D02*
X20550D01*
X19660Y6160D02*
X20550D01*
X19660Y6200D02*
X20550D01*
X19660Y7040D02*
X20550D01*
X19660Y7080D02*
X20550D01*
X19660Y6360D02*
X20550D01*
X19660Y6400D02*
X20550D01*
X19666Y5920D02*
X20550D01*
X19692Y5880D02*
X20550D01*
X19660Y5960D02*
X20550D01*
X19728Y5800D02*
X20550D01*
X19706Y5840D02*
X20550D01*
X19660Y6080D02*
X20550D01*
X19660Y6120D02*
X20550D01*
X19660Y6000D02*
X20550D01*
X19660Y6040D02*
X20550D01*
X19660Y6800D02*
X20550D01*
X19660Y6760D02*
X20550D01*
X19660Y6840D02*
X20550D01*
X19660Y6680D02*
X20550D01*
X19660Y6720D02*
X20550D01*
X19660Y6960D02*
X20550D01*
X19660Y7000D02*
X20550D01*
X19660Y6880D02*
X20550D01*
X19660Y6920D02*
X20550D01*
X19660Y6440D02*
X20550D01*
X19660Y6480D02*
X20550D01*
X19709Y5819D02*
X19749Y5778D01*
X19660Y6600D02*
X20550D01*
X19660Y6640D02*
X20550D01*
X19660Y6520D02*
X20550D01*
X19660Y6560D02*
X20550D01*
X20051Y5640D02*
X20550D01*
X20075Y5600D02*
X20550D01*
X20011Y5680D02*
X20550D01*
X19925Y5760D02*
X20550D01*
X19971Y5720D02*
X20550D01*
X19952Y5738D02*
X20045Y5646D01*
X20085Y5360D02*
X20550D01*
X20085Y5320D02*
X20550D01*
X20085Y5400D02*
X20550D01*
X20085Y5240D02*
X20550D01*
X20085Y5280D02*
X20550D01*
X20085Y5520D02*
X20550D01*
X20085Y5560D02*
X20550D01*
X20085Y5440D02*
X20550D01*
X20085Y5480D02*
X20550D01*
X19749Y5778D02*
X19857D01*
X19531Y5615D02*
X19598Y5548D01*
X19041Y5600D02*
X19546D01*
X19121Y5520D02*
X19639D01*
X19081Y5560D02*
X19586D01*
X19321Y5320D02*
X19815D01*
X19694Y5508D02*
X19801D01*
X19401Y5240D02*
X19815D01*
X19361Y5280D02*
X19815D01*
X19201Y5440D02*
X19815D01*
X19161Y5480D02*
X19815D01*
X19281Y5360D02*
X19815D01*
X19241Y5400D02*
X19815D01*
X18835Y6960D02*
X19390D01*
X18881Y6760D02*
X19390D01*
X18835Y7000D02*
X19390D01*
X18841Y6680D02*
X19390D01*
X18867Y6720D02*
X19390D01*
X18835Y7040D02*
X19390D01*
X18835Y7080D02*
X19390D01*
X17775Y6600D02*
X19390D01*
X18793Y6640D02*
X19390D01*
X17760Y6520D02*
X19390D01*
X17740Y6480D02*
X19390D01*
X17771Y6560D02*
X19390D01*
X17653Y6400D02*
X19390D01*
X17708Y6440D02*
X19390D01*
X16957Y6320D02*
X19390D01*
X16917Y6360D02*
X19390D01*
X17037Y6240D02*
X19390D01*
X16997Y6280D02*
X19390D01*
X18841Y6920D02*
X19390D01*
X18867Y6880D02*
X19390D01*
X18192Y7040D02*
X18565D01*
X18112Y6960D02*
X18565D01*
X18152Y7000D02*
X18565D01*
X18047Y6920D02*
X18559D01*
X16217Y6880D02*
X18533D01*
X18885Y6800D02*
X19390D01*
X18881Y6840D02*
X19390D01*
X17771Y6640D02*
X18607D01*
X17760Y6680D02*
X18559D01*
X16231Y6840D02*
X18519D01*
X17653Y6800D02*
X18515D01*
X17740Y6720D02*
X18533D01*
X17708Y6760D02*
X18519D01*
X18641Y6000D02*
X19390D01*
X18681Y5960D02*
X19390D01*
X18601Y6040D02*
X19390D01*
X18721Y5920D02*
X19384D01*
X18761Y5880D02*
X19358D01*
X17117Y6160D02*
X19390D01*
X17077Y6200D02*
X19390D01*
X18561Y6080D02*
X19390D01*
X18497Y6120D02*
X19390D01*
X18881Y5760D02*
X19344D01*
X18921Y5720D02*
X19358D01*
X18841Y5800D02*
X19340D01*
X19001Y5640D02*
X19432D01*
X18961Y5680D02*
X19384D01*
X18801Y5840D02*
X19344D01*
X17875Y5320D02*
X18939D01*
X17875Y5240D02*
X19019D01*
X17875Y5280D02*
X18979D01*
X17914Y6125D02*
X18460D01*
X17954Y5840D02*
X18419D01*
X17969Y5855D02*
X18404D01*
X17517Y5760D02*
X18499D01*
X17901Y5800D02*
X18459D01*
X17597Y5680D02*
X18579D01*
X17557Y5720D02*
X18539D01*
X17837Y5440D02*
X18819D01*
X17797Y5480D02*
X18779D01*
X17875Y5360D02*
X18899D01*
X17865Y5400D02*
X18859D01*
X17677Y5600D02*
X18659D01*
X17637Y5640D02*
X18619D01*
X17757Y5520D02*
X18739D01*
X17717Y5560D02*
X18699D01*
X13635Y9160D02*
X18154D01*
X13633Y9120D02*
X18120D01*
X13621Y9080D02*
X18091D01*
X13599Y9040D02*
X18066D01*
X16095Y8440D02*
X18026D01*
X16103Y8400D02*
X18044D01*
X16080Y8480D02*
X18011D01*
X16673Y8320D02*
X18091D01*
X16103Y8360D02*
X18066D01*
X13558Y9000D02*
X18044D01*
X15920Y8600D02*
X17981D01*
X16054Y8520D02*
X17998D01*
X16012Y8560D02*
X17988D01*
X17062Y9760D02*
X17819D01*
X13323Y9520D02*
X17677D01*
X13382Y9480D02*
X17686D01*
X13381Y9481D02*
X13581Y9281D01*
X13462Y9400D02*
X17732D01*
X13422Y9440D02*
X17704D01*
X13502Y9360D02*
X17779D01*
X17886Y8280D02*
X18120D01*
X17991Y8200D02*
X18195D01*
X17951Y8240D02*
X18154D01*
X16707Y7440D02*
X18059D01*
X16726Y8285D02*
X17850D01*
X16735Y7400D02*
X18015D01*
X16751Y7360D02*
X17992D01*
X16759Y7320D02*
X17980D01*
X17955Y7185D02*
X17993Y7223D01*
X16759Y7280D02*
X17979D01*
X16751Y7240D02*
X17986D01*
X16735Y7200D02*
X17970D01*
X16195Y6915D02*
X18011D01*
X16726Y7185D02*
X17955D01*
X16096Y8320D02*
X16527D01*
X16081Y8280D02*
X16468D01*
X16056Y8240D02*
X16438D01*
X16726Y8015D02*
X17794D01*
X16015Y8200D02*
X16422D01*
X15931Y8160D02*
X16415D01*
X16708Y8000D02*
X17809D01*
X16235Y6800D02*
X17447D01*
X15555Y6796D02*
X15849Y7090D01*
X12728Y9165D02*
X13173D01*
X13319Y9019D01*
X12671Y9109D02*
X12728Y9165D01*
X12145Y9560D02*
X17675D01*
X12651Y9535D02*
X13250D01*
X12683Y9120D02*
X13218D01*
X13121Y9040D02*
X13298D01*
X12723Y9160D02*
X13178D01*
X13168Y9000D02*
X13342D01*
X12660Y9080D02*
X13258D01*
X12636Y9040D02*
X12879D01*
X12598Y9000D02*
X12832D01*
X12194Y9520D02*
X12578D01*
X12224Y9480D02*
X12519D01*
X12242Y9440D02*
X12479D01*
X12410Y9370D02*
X12520Y9481D01*
X12252Y9400D02*
X12439D01*
X12254Y9360D02*
X12382D01*
X12249Y9320D02*
X12324D01*
X12237Y9280D02*
X12284D01*
X12117Y9160D02*
X12164D01*
X12322Y9318D01*
X12117Y9160D02*
X12164D01*
X13214Y8920D02*
X18011D01*
X13223Y8880D02*
X17998D01*
X13225Y8840D02*
X17988D01*
X13219Y8800D02*
X17981D01*
X13206Y8760D02*
X17976D01*
X13196Y8960D02*
X18026D01*
X13184Y8720D02*
X17974D01*
X13081Y8640D02*
X17976D01*
X13147Y8680D02*
X17974D01*
X13200Y7510D02*
X16550D01*
X13287Y7090D02*
X15849D01*
X13277Y7080D02*
X15839D01*
X13237Y7040D02*
X15799D01*
X13197Y7000D02*
X15759D01*
X13157Y6960D02*
X15719D01*
X13117Y6920D02*
X15679D01*
X13077Y6880D02*
X15639D01*
X13037Y6840D02*
X15599D01*
X12558Y8960D02*
X12804D01*
X12518Y8920D02*
X12786D01*
X12478Y8880D02*
X12777D01*
X12400Y8802D02*
X12619Y9021D01*
X12438Y8840D02*
X12775D01*
X12341Y8760D02*
X12794D01*
X12398Y8800D02*
X12781D01*
X16837Y6440D02*
X17392D01*
X16877Y6400D02*
X17447D01*
X16231Y6760D02*
X17392D01*
X16223Y6720D02*
X17360D01*
X16797Y6480D02*
X17360D01*
X16757Y6520D02*
X17340D01*
X17552Y6058D02*
X17791D01*
X17942Y5828D02*
X17969Y5855D01*
X17791Y6058D02*
X17818Y6086D01*
X17157Y6120D02*
X17876D01*
X17197Y6080D02*
X17382D01*
X17515D02*
X17812D01*
X16282Y6680D02*
X17340D01*
X16299Y6660D02*
X16565D01*
X15515Y6000D02*
Y6700D01*
X16717Y6560D02*
X17329D01*
X16677Y6600D02*
X17325D01*
X17237Y6040D02*
X17325D01*
X16654Y6623D02*
X17290Y5986D01*
X16633Y6640D02*
X17329D01*
X15091Y5800D02*
X15659D01*
X17552Y5788D02*
X17847D01*
X17511Y5766D02*
X17838Y5439D01*
X17166Y5600D02*
X17323D01*
X17207Y5640D02*
X17283D01*
X17233Y5690D02*
X17625Y5298D01*
X17050Y5560D02*
X17363D01*
X16941Y5480D02*
X17443D01*
X17020Y5520D02*
X17403D01*
X16992Y5280D02*
X17625D01*
X16817Y5400D02*
X17523D01*
X16893Y5440D02*
X17483D01*
X16934Y5320D02*
X17603D01*
X16857Y5360D02*
X17563D01*
X16149Y5560D02*
X16275D01*
X16168Y5600D02*
X16235D01*
X17000Y5500D02*
X17050Y5550D01*
X16116Y5520D02*
X16315D01*
X15095Y5720D02*
X15739D01*
X15096Y5760D02*
X15699D01*
X15555Y5904D02*
X15807Y5652D01*
X16956Y5500D02*
X17000D01*
X16802Y5415D02*
X16884Y5334D01*
X16193Y5280D02*
X16555D01*
X15089Y5400D02*
X16435D01*
X16044Y5480D02*
X16355D01*
X15093Y5320D02*
X16515D01*
X15096Y5360D02*
X16475D01*
X12997Y6800D02*
X15559D01*
X12957Y6760D02*
X15529D01*
X12917Y6720D02*
X15516D01*
X12837Y6640D02*
X15515D01*
X12877Y6680D02*
X15515D01*
X12757Y6560D02*
X15515D01*
X12797Y6600D02*
X15515D01*
X12677Y6480D02*
X15515D01*
X12717Y6520D02*
X15515D01*
X14952Y5960D02*
X15521D01*
X15019Y5920D02*
X15541D01*
X12637Y6440D02*
X15515D01*
X15078Y5840D02*
X15619D01*
X15055Y5880D02*
X15579D01*
X12277Y6080D02*
X15515D01*
X12317Y6120D02*
X15515D01*
X12197Y6000D02*
X15515D01*
X12237Y6040D02*
X15515D01*
X12557Y6360D02*
X15515D01*
X12517Y6320D02*
X15515D01*
X12597Y6400D02*
X15515D01*
X12477Y6280D02*
X15515D01*
X12397Y6200D02*
X15515D01*
X12437Y6240D02*
X15515D01*
X12357Y6160D02*
X15515D01*
X12157Y5960D02*
X14791D01*
X12117Y5920D02*
X14724D01*
X12077Y5880D02*
X14688D01*
X12037Y5840D02*
X14665D01*
X11997Y5800D02*
X14652D01*
X11917Y5720D02*
X14649D01*
X11957Y5760D02*
X14647D01*
X15068Y5640D02*
X15808D01*
X15039Y5600D02*
X15817D01*
X15085Y5680D02*
X15779D01*
X14992Y5560D02*
X15835D01*
X12599D02*
X14751D01*
X15042Y5480D02*
X15941D01*
X15072Y5440D02*
X16395D01*
X14984Y5520D02*
X15869D01*
X15082Y5280D02*
X16107D01*
X15060Y5240D02*
X16029D01*
X12621Y5520D02*
X14838D01*
X12633Y5480D02*
X14779D01*
X12635Y5440D02*
X14749D01*
X12628Y5400D02*
X14733D01*
X11837Y5640D02*
X14675D01*
X12558Y5600D02*
X14704D01*
X11877Y5680D02*
X14658D01*
X11797Y5600D02*
X12342D01*
X11757Y5560D02*
X12301D01*
X11717Y5520D02*
X12279D01*
X11677Y5480D02*
X12267D01*
X12612Y5360D02*
X14726D01*
X11637Y5440D02*
X12265D01*
X12585Y5320D02*
X14690D01*
X12585Y5280D02*
X14650D01*
X11557Y5360D02*
X12288D01*
X11597Y5400D02*
X12272D01*
X11477Y5280D02*
X12315D01*
X11517Y5320D02*
X12315D01*
X20085Y5000D02*
X20550D01*
X20085Y4960D02*
X20550D01*
X20085Y5040D02*
X20550D01*
X20085Y4680D02*
X20550D01*
X20085Y4720D02*
X20550D01*
X20085Y5160D02*
X20550D01*
X20085Y5200D02*
X20550D01*
X20085Y5080D02*
X20550D01*
X20085Y5120D02*
X20550D01*
X20128Y4600D02*
X20550D01*
X20135Y4560D02*
X20550D01*
X20112Y4640D02*
X20550D01*
X20121Y4480D02*
X20550D01*
X20133Y4520D02*
X20550D01*
X20058Y4400D02*
X20550D01*
X20099Y4440D02*
X20550D01*
X19785Y4320D02*
X20550D01*
X19785Y4360D02*
X20550D01*
X20085Y4920D02*
X20550D01*
X20085Y4880D02*
X20550D01*
X19759D02*
X19815D01*
X20085Y4676D02*
Y5550D01*
X19815Y4676D02*
Y5494D01*
X19721Y4920D02*
X19815D01*
X19681Y4960D02*
X19815D01*
X20085Y4800D02*
X20550D01*
X20085Y4760D02*
X20550D01*
X20085Y4840D02*
X20550D01*
X19785Y4400D02*
X19842D01*
X19779Y4840D02*
X19815D01*
X19785Y4634D02*
Y4800D01*
X20407Y4080D02*
X20550D01*
X20437Y4040D02*
X20550D01*
X20356Y4120D02*
X20550D01*
Y1100D02*
Y9950D01*
X20456Y4000D02*
X20550D01*
X19785Y4240D02*
X20550D01*
X19785Y4280D02*
X20550D01*
X19785Y4160D02*
X20550D01*
X19785Y4200D02*
X20550D01*
X20469Y3920D02*
X20550D01*
X20465Y3880D02*
X20550D01*
X20466Y3960D02*
X20550D01*
X20431Y3800D02*
X20550D01*
X20452Y3840D02*
X20550D01*
X20337Y3720D02*
X20550D01*
X20397Y3760D02*
X20550D01*
X19785Y3640D02*
X20550D01*
X19785Y3680D02*
X20550D01*
X19785Y4000D02*
X20032D01*
X19785Y3960D02*
X20022D01*
X19785Y4120D02*
X20132D01*
X19785Y4080D02*
X20081D01*
X19785Y4040D02*
X20051D01*
X19785Y3376D02*
Y4466D01*
Y3760D02*
X20091D01*
X19785Y3720D02*
X20151D01*
X19785Y3880D02*
X20024D01*
X19785Y3920D02*
X20019D01*
X19785Y3800D02*
X20057D01*
X19785Y3840D02*
X20036D01*
X19521Y5120D02*
X19815D01*
X19561Y5080D02*
X19815D01*
X19481Y5160D02*
X19815D01*
X19641Y5000D02*
X19815D01*
X19601Y5040D02*
X19815D01*
X19441Y5200D02*
X19815D01*
X18555Y6086D02*
X19745Y4896D01*
X18404Y5855D02*
X19515Y4744D01*
X16601Y4840D02*
X19419D01*
X18615Y4640D02*
X19515D01*
X18624Y4600D02*
X19515D01*
X18595Y4680D02*
X19515D01*
X18613Y4520D02*
X19515D01*
X18624Y4560D02*
X19515D01*
X16681Y4760D02*
X19499D01*
X16641Y4800D02*
X19459D01*
X18592Y4480D02*
X19515D01*
X18558Y4720D02*
X19515D01*
X17921Y5120D02*
X19139D01*
X17933Y5080D02*
X19179D01*
X17899Y5160D02*
X19099D01*
X17928Y5000D02*
X19259D01*
X17935Y5040D02*
X19219D01*
X17875Y5200D02*
X19059D01*
X17875Y5186D02*
Y5350D01*
X17882Y4920D02*
X19339D01*
X17912Y4960D02*
X19299D01*
X17823Y4880D02*
X19379D01*
X16721Y4720D02*
X18342D01*
X16561Y4880D02*
X17677D01*
X17636Y4447D02*
X18339D01*
X17580Y4717D02*
X18339D01*
X19188Y4040D02*
X19515D01*
X19211Y4000D02*
X19515D01*
X19160Y4080D02*
X19515D01*
Y3376D02*
Y4744D01*
X19231Y3960D02*
X19515D01*
X19043Y4200D02*
X19515D01*
X18986Y4240D02*
X19515D01*
X19128Y4120D02*
X19515D01*
X19089Y4160D02*
X19515D01*
X19286Y3720D02*
X19515D01*
X19286Y3680D02*
X19515D01*
X19283Y3760D02*
X19515D01*
X19278Y3600D02*
X19515D01*
X19283Y3640D02*
X19515D01*
X19260Y3880D02*
X19515D01*
X19247Y3920D02*
X19515D01*
X19278Y3800D02*
X19515D01*
X19271Y3840D02*
X19515D01*
X18552Y4440D02*
X19515D01*
X17629D02*
X18348D01*
X18793Y4320D02*
X19515D01*
X12801Y4360D02*
X19515D01*
X17589Y4400D02*
X19515D01*
X12761Y4320D02*
X18507D01*
X12721Y4280D02*
X18389D01*
X18911D02*
X19515D01*
X12681Y4240D02*
X18314D01*
X12641Y4200D02*
X18257D01*
X12631Y4160D02*
X18211D01*
X12617Y4120D02*
X18172D01*
X12591Y4080D02*
X18140D01*
X12543Y4040D02*
X18112D01*
X12159Y4000D02*
X18089D01*
X19500Y2680D02*
X20550D01*
X19500Y2640D02*
X20550D01*
X19785Y3600D02*
X20550D01*
X19500Y2560D02*
X20550D01*
X19500Y2600D02*
X20550D01*
X19450Y2800D02*
X20550D01*
X19410Y2840D02*
X20550D01*
X19500Y2720D02*
X20550D01*
X19490Y2760D02*
X20550D01*
X19500Y2320D02*
X20550D01*
X19500Y2280D02*
X20550D01*
X19500Y2360D02*
X20550D01*
X19500Y2200D02*
X20550D01*
X19500Y2240D02*
X20550D01*
X19500Y2480D02*
X20550D01*
X19500Y2520D02*
X20550D01*
X19500Y2400D02*
X20550D01*
X19500Y2440D02*
X20550D01*
X19785Y3400D02*
X20550D01*
X19799Y3360D02*
X20550D01*
X19785Y3440D02*
X20550D01*
X19821Y3320D02*
X20550D01*
X19785Y3520D02*
X20550D01*
X19785Y3560D02*
X20550D01*
X19785Y3480D02*
X20550D01*
X19835Y3240D02*
X20550D01*
X19833Y3280D02*
X20550D01*
X19812Y3160D02*
X20550D01*
X19828Y3200D02*
X20550D01*
X19723Y3080D02*
X20550D01*
X19782Y3120D02*
X20550D01*
X19370Y2880D02*
X20550D01*
X19430Y2820D02*
X19500Y2750D01*
Y1960D02*
X20550D01*
X19500Y1920D02*
X20550D01*
X19500Y2000D02*
X20550D01*
X19873Y1480D02*
X20550D01*
X19864Y1520D02*
X20550D01*
X19500Y2120D02*
X20550D01*
X19500Y2160D02*
X20550D01*
X19500Y2040D02*
X20550D01*
X19500Y2080D02*
X20550D01*
X19869Y1400D02*
X20550D01*
X19856Y1360D02*
X20550D01*
X19875Y1440D02*
X20550D01*
X19797Y1280D02*
X20550D01*
X19834Y1320D02*
X20550D01*
X19388Y1200D02*
X20550D01*
X19731Y1240D02*
X20550D01*
X19650Y200D02*
X20550Y1100D01*
X19354Y1160D02*
X20550D01*
X19500Y1720D02*
X20550D01*
X19500Y1680D02*
X20550D01*
X19500Y1760D02*
X20550D01*
X19500Y1840D02*
X20550D01*
X19500Y1880D02*
X20550D01*
X19500Y1800D02*
X20550D01*
X19500Y1618D02*
Y2750D01*
X19818Y1600D02*
X20550D01*
X19771Y1640D02*
X20550D01*
X19846Y1560D02*
X20550D01*
X19414Y1240D02*
X19569D01*
X19434Y1280D02*
X19503D01*
X19260Y3520D02*
X19515D01*
X19247Y3480D02*
X19515D01*
X19271Y3560D02*
X19515D01*
X19211Y3400D02*
X19515D01*
X19231Y3440D02*
X19515D01*
X19188Y3360D02*
X19501D01*
X19160Y3320D02*
X19479D01*
X19128Y3280D02*
X19467D01*
X19089Y3240D02*
X19465D01*
X19250Y3000D02*
X20550D01*
X19290Y2960D02*
X20550D01*
X19210Y3040D02*
X20550D01*
X19330Y2920D02*
X20550D01*
X19200Y3050D02*
X19420Y2830D01*
X18986Y3160D02*
X19488D01*
X19043Y3200D02*
X19472D01*
X18793Y3080D02*
X19577D01*
X18911Y3120D02*
X19518D01*
X15050Y3240D02*
X18211D01*
X15050Y3200D02*
X18257D01*
X15050Y3280D02*
X18172D01*
X15050Y3120D02*
X18389D01*
X15050Y3160D02*
X18314D01*
X14808Y3400D02*
X18089D01*
X13021Y3440D02*
X18069D01*
X15030Y3320D02*
X18140D01*
X14849Y3360D02*
X18112D01*
X18430Y1440D02*
X18630D01*
X18430Y1456D02*
X18630Y1446D01*
X18419Y1360D02*
X18639D01*
X18427Y1400D02*
X18633D01*
X15050Y3050D02*
X19200D01*
X15050Y3080D02*
X18507D01*
X17407Y1320D02*
X17693D01*
X17419Y1360D02*
X17681D01*
X19310Y1120D02*
X20550D01*
X19249Y1080D02*
X20530D01*
X19142Y1040D02*
X20490D01*
X14516Y920D02*
X20370D01*
X14516Y880D02*
X20330D01*
X14516Y1000D02*
X20450D01*
X14516Y960D02*
X20410D01*
X14516Y840D02*
X20290D01*
X14510Y800D02*
X20250D01*
X14496Y760D02*
X20210D01*
X14471Y720D02*
X20170D01*
X14430Y680D02*
X20130D01*
X14306Y640D02*
X20090D01*
X12475Y600D02*
X20050D01*
X12471Y560D02*
X20010D01*
X12460Y520D02*
X19970D01*
X12440Y480D02*
X19930D01*
X12408Y440D02*
X19890D01*
X18390Y1280D02*
X18666D01*
X18367Y1240D02*
X18686D01*
X18407Y1320D02*
X18650D01*
X18337Y1200D02*
X18712D01*
X17367Y1240D02*
X17733D01*
X17390Y1280D02*
X17710D01*
X17350Y1200D02*
X17763D01*
X18296Y1160D02*
X18746D01*
X17350D02*
X17804D01*
X18138Y1080D02*
X18851D01*
X18239Y1120D02*
X18790D01*
X17138Y1080D02*
X17962D01*
X17239Y1120D02*
X17861D01*
X12353Y400D02*
X19850D01*
X15142Y1040D02*
X18958D01*
X17625Y5186D02*
Y5298D01*
X17039Y5200D02*
X17625D01*
X17022Y5240D02*
X17625D01*
X17046Y5160D02*
X17601D01*
X16177Y5658D02*
X16676Y5159D01*
X16325Y5160D02*
X16675D01*
X16334Y5120D02*
X16678D01*
X17043D02*
X17579D01*
X17032Y5080D02*
X17567D01*
X17010Y5040D02*
X17565D01*
X16521Y4920D02*
X17618D01*
X16969Y5000D02*
X17572D01*
X16401Y5040D02*
X16712D01*
X16361Y5080D02*
X16690D01*
X16481Y4960D02*
X17588D01*
X16441Y5000D02*
X16753D01*
X16271Y5240D02*
X16595D01*
X16306Y5200D02*
X16635D01*
X15019D02*
X15994D01*
X14912Y5160D02*
X15975D01*
X14521Y5152D02*
X14726Y5356D01*
X14750Y4998D02*
X14917Y5165D01*
X14832Y5080D02*
X15966D01*
X14872Y5120D02*
X15966D01*
X14752Y5000D02*
X15994D01*
X14792Y5040D02*
X15975D01*
X14739Y4960D02*
X16029D01*
X14710Y4920D02*
X16107D01*
X16761Y4680D02*
X17487D01*
X17442Y4635D02*
X17485Y4678D01*
X16335Y5106D02*
X16806Y4635D01*
X14470Y4680D02*
X16379D01*
X14510Y4720D02*
X16339D01*
X16144Y4915D02*
X16654Y4405D01*
X14430Y4640D02*
X16419D01*
X16801D02*
X17447D01*
X17594Y4405D02*
X17636Y4447D01*
X16806Y4635D02*
X17442D01*
X14389Y4600D02*
X16459D01*
X16750Y4365D02*
X17498D01*
X14630Y4840D02*
X16219D01*
X14670Y4880D02*
X16179D01*
X14550Y4760D02*
X16299D01*
X14590Y4800D02*
X16259D01*
X14394Y4605D02*
X14712Y4922D01*
X14243Y4835D02*
X14483Y5075D01*
X15000Y3350D02*
X15050Y3300D01*
X14856Y3350D02*
X15000D01*
X15050Y3050D02*
Y3300D01*
X14268Y3034D02*
X14518Y3284D01*
X14000Y2700D02*
X14079Y2779D01*
X14000Y2529D02*
Y2700D01*
X12585Y5080D02*
X14484D01*
X12585Y5040D02*
X14448D01*
X12585Y5000D02*
X14408D01*
X12585Y4960D02*
X14368D01*
X12585Y4920D02*
X14328D01*
X12585Y5240D02*
X14610D01*
X12585Y5200D02*
X14570D01*
X12585Y5160D02*
X14530D01*
X12585Y5120D02*
X14498D01*
X13006Y4565D02*
X14299D01*
X13001Y4560D02*
X16499D01*
X12950Y4835D02*
X14243D01*
X12921Y4480D02*
X16579D01*
X12961Y4520D02*
X16539D01*
X12585Y4880D02*
X14288D01*
X12585Y4840D02*
X14248D01*
X12881Y4440D02*
X16619D01*
X12585Y4760D02*
X12819D01*
X12585Y4720D02*
X12779D01*
X12585Y4680D02*
X12739D01*
X12585Y4640D02*
X12699D01*
X12585Y4800D02*
X12859D01*
X11871Y4640D02*
X12315D01*
X12585Y4526D02*
X12854Y4795D01*
X12585Y4526D02*
Y5324D01*
Y4600D02*
X12659D01*
X12585Y4560D02*
X12619D01*
X11975Y4440D02*
X12315D01*
X11973Y4480D02*
X12315D01*
X11946Y4560D02*
X12315D01*
X11918Y4600D02*
X12315D01*
X11964Y4520D02*
X12315D01*
X13068Y3400D02*
X14592D01*
X13096Y3360D02*
X14551D01*
X13114Y3320D02*
X14529D01*
X13123Y3280D02*
X14514D01*
X12841Y4400D02*
X16659D01*
X12635Y4194D02*
X13006Y4565D01*
X13125Y3240D02*
X14474D01*
X13119Y3200D02*
X14434D01*
X13106Y3160D02*
X14394D01*
X13084Y3120D02*
X14354D01*
X13047Y3080D02*
X14314D01*
X12981Y3040D02*
X14274D01*
X12315Y4326D02*
Y5324D01*
X12159Y4400D02*
X12315D01*
X12247Y4320D02*
X12309D01*
X12214Y4040D02*
X12357D01*
X12247Y4080D02*
X12309D01*
X12214Y4360D02*
X12315D01*
X14350Y2259D02*
X14804Y1805D01*
X14297Y1800D02*
X14809D01*
X14337Y1760D02*
X14766D01*
X14377Y1720D02*
X14728D01*
X14417Y1680D02*
X14698D01*
X14177Y1920D02*
X14689D01*
X14136Y1960D02*
X14649D01*
X14257Y1840D02*
X14769D01*
X14217Y1880D02*
X14729D01*
X17426Y1509D02*
X17673Y1496D01*
X17429Y1480D02*
X17671D01*
X17430Y1440D02*
X17670D01*
X14457Y1640D02*
X14675D01*
X14487Y1600D02*
X14657D01*
X14506Y1560D02*
X14644D01*
X14515Y1520D02*
X14636D01*
X13826Y2259D02*
X14350D01*
X14064Y2000D02*
X14609D01*
X13826Y2529D02*
X14000D01*
X13783Y2560D02*
X14000D01*
X13224Y2280D02*
X13555D01*
X13802Y2240D02*
X14369D01*
X14516Y1480D02*
X14631D01*
X14516Y1440D02*
X14630D01*
X14149Y1948D02*
X14455Y1642D01*
X13813Y1910D02*
X13851Y1948D01*
X17427Y1400D02*
X17673D01*
X17350Y1150D02*
Y1216D01*
X15750Y1200D02*
X15800Y1150D01*
X15587Y1280D02*
X15710D01*
X15638Y1320D02*
X15693D01*
X15388Y1200D02*
X15750D01*
X15414Y1240D02*
X15733D01*
X17284Y1150D02*
X17350D01*
X16239Y1120D02*
X16861D01*
X16284Y1150D02*
X16816D01*
X16138Y1080D02*
X16962D01*
X15310Y1120D02*
X15861D01*
X15354Y1160D02*
X15790D01*
X15249Y1080D02*
X15962D01*
X14516Y1320D02*
X14650D01*
X14516Y1360D02*
X14639D01*
X14516Y1400D02*
X14633D01*
X13992Y1511D02*
X14096Y1407D01*
X14516Y850D02*
Y1494D01*
X14096Y850D02*
Y1407D01*
X14516Y1120D02*
X14790D01*
X14516Y1160D02*
X14746D01*
X14516Y1040D02*
X14958D01*
X14516Y1080D02*
X14851D01*
X14516Y1240D02*
X14686D01*
X14516Y1280D02*
X14666D01*
X14516Y1200D02*
X14712D01*
X13224Y2320D02*
X13531D01*
X13217Y2240D02*
X13598D01*
X13217Y2360D02*
X13518D01*
X13176Y2160D02*
X14449D01*
X13202Y2200D02*
X14409D01*
X13047Y2520D02*
X13564D01*
X13135Y2480D02*
X13536D01*
X13135Y2120D02*
X14489D01*
X13176Y2440D02*
X13521D01*
X13047Y2080D02*
X14529D01*
X12754Y2040D02*
X14569D01*
X13121Y1490D02*
X13900D01*
X13176Y1440D02*
X14063D01*
X13135Y1480D02*
X14023D01*
X12742Y2000D02*
X13936D01*
X12721Y1960D02*
X13864D01*
X12688Y1920D02*
X13823D01*
X12677Y1910D02*
X13813D01*
X13202Y2400D02*
X13515D01*
X12642Y2280D02*
X12776D01*
X12745Y2160D02*
X12824D01*
X12725Y2200D02*
X12798D01*
X12758Y2080D02*
X12953D01*
X12755Y2120D02*
X12865D01*
X12694Y2240D02*
X12783D01*
X13217Y1360D02*
X14096D01*
X13224Y1320D02*
X14096D01*
X13202Y1400D02*
X14096D01*
X13217Y1240D02*
X14096D01*
X13224Y1280D02*
X14096D01*
X13176Y1160D02*
X14096D01*
X13135Y1120D02*
X14096D01*
X13202Y1200D02*
X14096D01*
X12471Y640D02*
X14306D01*
X13047Y1080D02*
X14096D01*
X12408Y760D02*
X14117D01*
X12353Y800D02*
X14102D01*
X12460Y680D02*
X14183D01*
X12440Y720D02*
X14141D01*
X11671Y640D02*
X12029D01*
X11553Y800D02*
X12147D01*
X11608Y760D02*
X12092D01*
X11640Y720D02*
X12060D01*
X11660Y680D02*
X12040D01*
X11675Y600D02*
X12025D01*
X11671Y560D02*
X12029D01*
X11640Y480D02*
X12060D01*
X11660Y520D02*
X12040D01*
X11553Y400D02*
X12147D01*
X11608Y440D02*
X12092D01*
X6550Y10550D02*
X19950D01*
X6500Y10360D02*
X20140D01*
X6500Y9880D02*
X16803D01*
X10500Y9160D02*
X11941D01*
X10500D02*
X11941D01*
X6500Y10480D02*
X20020D01*
X6500Y10520D02*
X19980D01*
X6500Y10400D02*
X20100D01*
X6500Y10440D02*
X20060D01*
X10567Y8720D02*
X12816D01*
X10527Y8680D02*
X12853D01*
X10587Y8740D02*
X12251D01*
X10447Y8600D02*
X15838D01*
X10487Y8640D02*
X12919D01*
X10407Y8560D02*
X15745D01*
X10367Y8520D02*
X15704D01*
X10327Y8480D02*
X15678D01*
X10287Y8440D02*
X15662D01*
X8943Y8720D02*
X9973D01*
X9780Y8528D02*
X10351Y9098D01*
X8967Y8680D02*
X9933D01*
X6500Y9200D02*
X11879D01*
X8821Y8800D02*
X10053D01*
X8903Y8760D02*
X10013D01*
X8982Y8640D02*
X9893D01*
X8989Y8600D02*
X9853D01*
X8989Y8560D02*
X9813D01*
X8981Y8520D02*
X9773D01*
X8965Y8480D02*
X9744D01*
X8939Y8440D02*
X9728D01*
X8897Y8400D02*
X9719D01*
X10260Y8000D02*
X16492D01*
X10260Y7960D02*
X17849D01*
X10260Y8040D02*
X16451D01*
X10260Y7880D02*
X17929D01*
X10260Y7920D02*
X17889D01*
X10260Y8160D02*
X15826D01*
X10260Y8200D02*
X15742D01*
X10260Y8080D02*
X16429D01*
X10260Y8120D02*
X16417D01*
X10260Y7640D02*
X18169D01*
X10260Y7600D02*
X18209D01*
X10260Y7680D02*
X18129D01*
X10260Y7520D02*
X18289D01*
X10260Y7560D02*
X18249D01*
X10260Y7800D02*
X18009D01*
X10260Y7840D02*
X17969D01*
X10260Y7720D02*
X18089D01*
X10260Y7760D02*
X18049D01*
X10223Y8376D02*
X10587Y8740D01*
X10247Y8400D02*
X15655D01*
X8801Y8360D02*
X9719D01*
X10260Y8240D02*
X15702D01*
X10259Y8280D02*
X15677D01*
X10260Y7480D02*
X13092D01*
X10260Y5650D02*
Y8257D01*
X10250Y8320D02*
X15662D01*
X10233Y8360D02*
X15655D01*
X9840Y5650D02*
Y8170D01*
X9780Y8230D02*
X9840Y8170D01*
X6500Y10160D02*
X16874D01*
X6500Y10120D02*
X16832D01*
X6500Y10080D02*
X16805D01*
X6500Y10040D02*
X16790D01*
X6500Y10000D02*
X16782D01*
X6500Y10280D02*
X20220D01*
X6500Y10320D02*
X20180D01*
X6500Y10240D02*
X20260D01*
X6500Y10200D02*
X16971D01*
X6500Y9720D02*
X17753D01*
X6500Y9680D02*
X17716D01*
X6500Y9760D02*
X16949D01*
X6500Y9640D02*
X17694D01*
X6500Y9600D02*
X17681D01*
X6500Y9920D02*
X16788D01*
X6500Y9960D02*
X16782D01*
X6500Y9800D02*
X16868D01*
X6500Y9840D02*
X16828D01*
X6500Y9400D02*
X11807D01*
X6500Y9320D02*
X11809D01*
X6500Y9360D02*
X11804D01*
X6500Y9240D02*
X11844D01*
X6500Y9280D02*
X11822D01*
X6500Y9560D02*
X11913D01*
X6500Y9520D02*
X11864D01*
X6500Y9480D02*
X11835D01*
X6500Y9440D02*
X11816D01*
X6500Y9000D02*
X10253D01*
X6500Y8960D02*
X10213D01*
X6500Y8920D02*
X10173D01*
X6500Y8880D02*
X10133D01*
X6500Y9160D02*
X10500D01*
X6500Y9120D02*
X10376D01*
X6500Y9080D02*
X10333D01*
X6500Y9040D02*
X10293D01*
X6500Y8840D02*
X10093D01*
X6270Y8040D02*
X9840D01*
X6270Y8080D02*
X9840D01*
X6270Y7960D02*
X9840D01*
X6270Y8000D02*
X9840D01*
X6269Y7920D02*
X9840D01*
X6270Y8120D02*
X9840D01*
X6256Y7840D02*
X9840D01*
X6264Y7880D02*
X9840D01*
X6230Y7760D02*
X9840D01*
X6210Y7720D02*
X9840D01*
X6245Y7800D02*
X9840D01*
X6154Y7640D02*
X9840D01*
X6185Y7680D02*
X9840D01*
X6066Y7560D02*
X9840D01*
X6116Y7600D02*
X9840D01*
X5873Y7480D02*
X9840D01*
X5998Y7520D02*
X9840D01*
X6500Y8800D02*
X8709D01*
X6500Y8760D02*
X8627D01*
X6500Y8720D02*
X8587D01*
X6500Y8680D02*
X8562D01*
X6490Y8640D02*
X8547D01*
X6410Y8560D02*
X8541D01*
X6450Y8600D02*
X8541D01*
X6330Y8480D02*
X8564D01*
X6370Y8520D02*
X8549D01*
X6270Y8240D02*
X9771D01*
X6290Y8440D02*
X8590D01*
X6270Y8160D02*
X9840D01*
X6270Y8200D02*
X9810D01*
X6270Y8360D02*
X8729D01*
X6270Y8400D02*
X8633D01*
X6270Y8280D02*
X9743D01*
X6270Y8320D02*
X9727D01*
X10260Y7280D02*
X12883D01*
X10260Y7240D02*
X12843D01*
X10260Y7200D02*
X12803D01*
X10260Y7160D02*
X12763D01*
X10260Y7120D02*
X12723D01*
X10260Y7440D02*
X13043D01*
X10260Y7400D02*
X13003D01*
X10260Y7360D02*
X12963D01*
X10260Y7320D02*
X12923D01*
X10260Y6920D02*
X12523D01*
X10260Y6880D02*
X12483D01*
X10260Y6840D02*
X12443D01*
X10260Y6800D02*
X12403D01*
X10260Y6760D02*
X12363D01*
X10260Y7080D02*
X12683D01*
X10260Y7040D02*
X12643D01*
X10260Y7000D02*
X12603D01*
X10260Y6960D02*
X12563D01*
X10260Y6560D02*
X12163D01*
X10260Y6520D02*
X12123D01*
X10260Y6480D02*
X12083D01*
X10260Y6440D02*
X12043D01*
X10260Y6400D02*
X12003D01*
X10260Y6720D02*
X12323D01*
X10260Y6680D02*
X12283D01*
X10260Y6640D02*
X12243D01*
X10260Y6600D02*
X12203D01*
X10260Y6200D02*
X11803D01*
X10260Y6160D02*
X11763D01*
X10260Y6120D02*
X11723D01*
X10260Y6080D02*
X11683D01*
X10260Y6360D02*
X11963D01*
X10260Y6320D02*
X11923D01*
X10260Y6280D02*
X11883D01*
X10260Y6240D02*
X11843D01*
X10260Y5880D02*
X11483D01*
X10260Y5840D02*
X11443D01*
X10260Y5800D02*
X11403D01*
X11349Y5152D02*
X13287Y7090D01*
X11113Y5510D02*
X13051Y7448D01*
X10260Y6040D02*
X11643D01*
X10260Y6000D02*
X11603D01*
X10260Y5960D02*
X11563D01*
X10260Y5920D02*
X11523D01*
X11397Y5200D02*
X12315D01*
X11357Y5160D02*
X12315D01*
X11437Y5240D02*
X12315D01*
X11308Y5120D02*
X12315D01*
X10260Y5760D02*
X11363D01*
X10260Y5720D02*
X11323D01*
X10267Y5080D02*
X12315D01*
X9073Y5880D02*
X9840D01*
X9075Y5840D02*
X9840D01*
X9064Y5920D02*
X9840D01*
X10260Y5680D02*
X11283D01*
X9069Y5800D02*
X9840D01*
X9046Y5960D02*
X9840D01*
X9018Y6000D02*
X9840D01*
X9034Y5720D02*
X9840D01*
X9056Y5760D02*
X9840D01*
X10260Y5640D02*
X11243D01*
X10254Y5600D02*
X11203D01*
X10257Y5090D02*
X11200D01*
X10240Y5560D02*
X11163D01*
X10215Y5520D02*
X11123D01*
X10207Y5510D02*
X11113D01*
X7234Y6720D02*
X9840D01*
X7197Y6680D02*
X9840D01*
X7256Y6760D02*
X9840D01*
X5443Y6480D02*
X9840D01*
X7131Y6640D02*
X9840D01*
X5437Y6560D02*
X9840D01*
X5428Y6600D02*
X9840D01*
X5442Y6440D02*
X9840D01*
X5442Y6520D02*
X9840D01*
X5431Y6360D02*
X9840D01*
X5420Y6320D02*
X9840D01*
X5438Y6400D02*
X9840D01*
X5387Y6240D02*
X9840D01*
X5405Y6280D02*
X9840D01*
X5337Y6160D02*
X9840D01*
X5364Y6200D02*
X9840D01*
X5261Y6080D02*
X9840D01*
X5303Y6120D02*
X9840D01*
X5076Y7240D02*
X9840D01*
X5102Y7200D02*
X9840D01*
X5035Y7280D02*
X9840D01*
X5124Y7120D02*
X9840D01*
X5117Y7160D02*
X9840D01*
X4097Y7400D02*
X9840D01*
X4137Y7440D02*
X9840D01*
X4947Y7320D02*
X9840D01*
X4057Y7360D02*
X9840D01*
X7273Y6880D02*
X9840D01*
X7264Y6920D02*
X9840D01*
X7269Y6800D02*
X9840D01*
X7275Y6840D02*
X9840D01*
X7171Y7040D02*
X9840D01*
X5124Y7080D02*
X9840D01*
X7246Y6960D02*
X9840D01*
X7218Y7000D02*
X9840D01*
X8971Y6040D02*
X9840D01*
X8997Y5680D02*
X9840D01*
X8931Y5640D02*
X9840D01*
X8431D02*
X8769D01*
X8900Y5510D02*
X9893D01*
X8987Y5090D02*
X9893D01*
X8977Y5080D02*
X9887D01*
X8431Y5560D02*
X9860D01*
X8435Y5600D02*
X9846D01*
X8417Y5520D02*
X9885D01*
X8391Y5480D02*
X8792D01*
X5207Y6040D02*
X8729D01*
X5133Y6000D02*
X8682D01*
X4985Y5960D02*
X8654D01*
X8391Y5720D02*
X8666D01*
X8343Y5760D02*
X8644D01*
X2617Y5920D02*
X8636D01*
X2577Y5880D02*
X8627D01*
X2497Y5800D02*
X8631D01*
X2537Y5840D02*
X8625D01*
X8343Y5440D02*
X8743D01*
X8417Y5680D02*
X8703D01*
X8241Y5400D02*
X8703D01*
X8201Y5360D02*
X8663D01*
X8161Y5320D02*
X8623D01*
X8121Y5280D02*
X8583D01*
X8081Y5240D02*
X8543D01*
X8041Y5200D02*
X8503D01*
X6500Y10600D02*
X6550Y10550D01*
X6500Y10560D02*
X6540D01*
X6500Y8650D02*
Y10600D01*
X6270Y8420D02*
X6500Y8650D01*
X6270Y7952D02*
Y8420D01*
X3869Y8200D02*
X5312D01*
X3869Y8240D02*
X5312D01*
Y7952D02*
Y8250D01*
X5193Y8160D02*
X5312D01*
X5267Y8080D02*
X5312D01*
X5281Y7960D02*
X5312D01*
X5241Y8120D02*
X5312D01*
X5241Y7880D02*
X5318D01*
X5267Y7920D02*
X5313D01*
X4497Y7800D02*
X5337D01*
X5193Y7840D02*
X5325D01*
X4417Y7720D02*
X5372D01*
X4457Y7760D02*
X5352D01*
X4507Y8135D02*
X4974D01*
X3869Y8080D02*
X4396D01*
X3869Y8250D02*
X5312D01*
X3869Y8160D02*
X5007D01*
X3869Y8120D02*
X4445D01*
X3869Y8050D02*
Y8250D01*
X5281Y8040D02*
X5312D01*
X4562Y7865D02*
X4974D01*
X4537Y7840D02*
X5007D01*
X3869Y8040D02*
X4356D01*
X3866Y8000D02*
X4316D01*
X3861Y7960D02*
X4276D01*
X3852Y7920D02*
X4236D01*
X5117Y7040D02*
X6929D01*
X5192Y6920D02*
X6836D01*
X4177Y7480D02*
X5709D01*
X4217Y7520D02*
X5584D01*
X5102Y7000D02*
X6882D01*
X5109Y6960D02*
X6854D01*
X5382Y6720D02*
X6866D01*
X5401Y6680D02*
X6903D01*
X5249Y6880D02*
X6827D01*
X5294Y6840D02*
X6825D01*
X5358Y6760D02*
X6844D01*
X5329Y6800D02*
X6831D01*
X4337Y7640D02*
X5428D01*
X4297Y7600D02*
X5466D01*
X4377Y7680D02*
X5397D01*
X4257Y7560D02*
X5516D01*
X4017Y7320D02*
X4853D01*
X3977Y7280D02*
X4765D01*
X3937Y7240D02*
X4724D01*
X3897Y7200D02*
X4698D01*
X3857Y7160D02*
X4683D01*
X4137Y6994D02*
X4702D01*
X3840Y7880D02*
X4196D01*
X3824Y7840D02*
X4156D01*
X3804Y7800D02*
X4116D01*
X3780Y7760D02*
X4076D01*
X3750Y7720D02*
X4036D01*
X3714Y7680D02*
X3996D01*
X3668Y7640D02*
X3956D01*
X3608Y7600D02*
X3916D01*
X3520Y7560D02*
X3876D01*
X2500Y7440D02*
X3756D01*
X2500Y7400D02*
X3716D01*
X2500Y7360D02*
X3676D01*
X2500Y7560D02*
X3180D01*
X2500Y7600D02*
X3092D01*
X2500Y7520D02*
X3836D01*
X2500Y7480D02*
X3796D01*
X2760Y8160D02*
X2831D01*
X2720Y8120D02*
X2831D01*
X2800Y8200D02*
X2831D01*
Y8050D02*
Y8231D01*
X2680Y8080D02*
X2831D01*
X2600Y8000D02*
X2834D01*
X2640Y8040D02*
X2831D01*
X2560Y7960D02*
X2839D01*
X2500Y7900D02*
X2831Y8231D01*
X2500Y7720D02*
X2950D01*
X2520Y7920D02*
X2848D01*
X2500Y7640D02*
X3032D01*
X2500Y7680D02*
X2986D01*
X2500Y7840D02*
X2876D01*
X2500Y7880D02*
X2860D01*
X2500Y7760D02*
X2920D01*
X2500Y7800D02*
X2896D01*
X3777Y7080D02*
X4676D01*
X3737Y7040D02*
X4683D01*
X3817Y7120D02*
X4676D01*
X3697Y7000D02*
X4698D01*
X2500Y7320D02*
X3636D01*
X2500Y7280D02*
X3596D01*
X2435Y5737D02*
X4562Y7865D01*
X2244Y5928D02*
X4411Y8095D01*
X3657Y6960D02*
X3953D01*
X3617Y6920D02*
X3871D01*
X3577Y6880D02*
X3813D01*
X3537Y6840D02*
X3769D01*
X3497Y6800D02*
X3733D01*
X3457Y6760D02*
X3704D01*
X3417Y6720D02*
X3680D01*
X3377Y6680D02*
X3661D01*
X3337Y6640D02*
X3646D01*
X2500Y7120D02*
X3436D01*
X2500Y7080D02*
X3396D01*
X2500Y7040D02*
X3356D01*
X2500Y7000D02*
X3316D01*
X2500Y6960D02*
X3276D01*
X2500Y7240D02*
X3556D01*
X2500Y7200D02*
X3516D01*
X2500Y7160D02*
X3476D01*
X2500Y6800D02*
Y7900D01*
Y6920D02*
X3236D01*
X2500Y6880D02*
X3196D01*
X2500Y6840D02*
X3156D01*
X2500Y6800D02*
X3116D01*
X2460Y6760D02*
X3076D01*
X2420Y6720D02*
X3036D01*
X2380Y6680D02*
X2996D01*
X2150Y6450D02*
X2500Y6800D01*
X5417Y6640D02*
X6969D01*
X2657Y5960D02*
X4077D01*
X2457Y5760D02*
X8157D01*
X4137Y5957D02*
X4925D01*
X6203Y5600D02*
X8059D01*
X6258Y5560D02*
X8019D01*
X6290Y5520D02*
X7979D01*
X6310Y5480D02*
X7939D01*
X3385D02*
X5890D01*
X2433Y5720D02*
X8109D01*
X2424Y5680D02*
X8083D01*
X2403Y5640D02*
X8069D01*
X3297Y5520D02*
X5910D01*
X3297Y6600D02*
X3634D01*
X3257Y6560D02*
X3626D01*
X3217Y6520D02*
X3621D01*
X3137Y6440D02*
X3620D01*
X3177Y6480D02*
X3619D01*
X3057Y6360D02*
X3632D01*
X3097Y6400D02*
X3624D01*
X2977Y6280D02*
X3657D01*
X3017Y6320D02*
X3642D01*
X2897Y6200D02*
X3698D01*
X2937Y6240D02*
X3675D01*
X2817Y6120D02*
X3759D01*
X2857Y6160D02*
X3725D01*
X2737Y6040D02*
X3855D01*
X2777Y6080D02*
X3801D01*
X2697Y6000D02*
X3929D01*
X2385Y5480D02*
X3115D01*
X6321Y5440D02*
X7899D01*
X6325Y5400D02*
X7859D01*
X6321Y5360D02*
X7819D01*
X6310Y5320D02*
X7779D01*
X6290Y5280D02*
X7739D01*
X8001Y5160D02*
X8463D01*
X6258Y5240D02*
X7699D01*
X7961Y5120D02*
X8423D01*
X7921Y5080D02*
X8383D01*
X6203Y5200D02*
X7659D01*
X3426Y5160D02*
X7619D01*
X3385Y5120D02*
X7579D01*
X3297Y5080D02*
X7539D01*
X3426Y5440D02*
X5879D01*
X3452Y5400D02*
X5875D01*
X3467Y5360D02*
X5879D01*
X3474Y5280D02*
X5910D01*
X3474Y5320D02*
X5890D01*
X3452Y5200D02*
X5997D01*
X3467Y5240D02*
X5942D01*
X2385Y5160D02*
X3074D01*
X2385Y5240D02*
X3033D01*
X2385Y5080D02*
X3203D01*
X2385Y5120D02*
X3115D01*
X2340Y6640D02*
X2956D01*
X2300Y6600D02*
X2916D01*
X2260Y6560D02*
X2876D01*
X2220Y6520D02*
X2836D01*
X2180Y6480D02*
X2796D01*
X790Y6440D02*
X2756D01*
X750Y6400D02*
X2716D01*
X710Y6360D02*
X2676D01*
X670Y6320D02*
X2636D01*
X630Y6280D02*
X2596D01*
X1521Y6080D02*
X2396D01*
X1598Y6040D02*
X2356D01*
X1637Y6000D02*
X2316D01*
X1661Y5960D02*
X2276D01*
X590Y6240D02*
X2556D01*
X550Y6200D02*
X2516D01*
X510Y6160D02*
X2476D01*
X470Y6120D02*
X2436D01*
X800Y6450D02*
X2150D01*
X430Y6080D02*
X1393D01*
X400Y5920D02*
X1239D01*
X1675D02*
X2195D01*
X400Y6040D02*
X1317D01*
X400Y6050D02*
X800Y6450D01*
X400Y6000D02*
X1278D01*
X400Y5960D02*
X1254D01*
X1682Y5880D02*
X2125D01*
X1681Y5840D02*
X2092D01*
X1673Y5800D02*
X2074D01*
X400Y5840D02*
X1233D01*
X400Y5880D02*
X1233D01*
X400Y5800D02*
X1242D01*
X2385Y5600D02*
X5997D01*
X2385Y5560D02*
X5942D01*
X2385Y5520D02*
X3203D01*
X2385Y5440D02*
X3074D01*
X400Y5480D02*
X2115D01*
X400Y5400D02*
X2115D01*
X400Y5440D02*
X2115D01*
X2385Y5400D02*
X3048D01*
X2385Y5360D02*
X3033D01*
X2385Y5320D02*
X3026D01*
X2385Y5200D02*
X3048D01*
X2385Y5280D02*
X3026D01*
X400Y5320D02*
X2115D01*
X400Y5360D02*
X2115D01*
X400Y5080D02*
X2115D01*
X400Y5280D02*
X2115D01*
X1630Y5720D02*
X2067D01*
X1586Y5680D02*
X2076D01*
X1657Y5760D02*
X2066D01*
X400Y5720D02*
X1284D01*
X400Y5760D02*
X1258D01*
X400Y5640D02*
X1439D01*
X400Y5680D02*
X1328D01*
X400Y5200D02*
X2115D01*
X1475Y5640D02*
X2097D01*
X400Y5120D02*
X2115D01*
X400Y5160D02*
X2115D01*
X400Y5560D02*
X2115D01*
X400Y5600D02*
X2115D01*
X400Y5240D02*
X2115D01*
X400Y5520D02*
X2115D01*
X10410Y4840D02*
X12315D01*
X10410Y4800D02*
X12315D01*
X10408Y4880D02*
X12315D01*
X10410Y4720D02*
X12315D01*
X10410Y4760D02*
X12315D01*
X10347Y5000D02*
X12315D01*
X10307Y5040D02*
X12315D01*
X10398Y4920D02*
X12315D01*
X10379Y4960D02*
X12315D01*
X10410Y3960D02*
X18069D01*
X10410Y3920D02*
X18053D01*
X10410Y4000D02*
X11953D01*
X10410Y3880D02*
X18040D01*
X10410Y3840D02*
X18029D01*
X10410Y4680D02*
X12315D01*
X10410Y4120D02*
X11846D01*
X10410Y4040D02*
X11898D01*
X10410Y4080D02*
X11866D01*
X10410Y4640D02*
X11629D01*
X10410Y4600D02*
X11582D01*
X10410Y4560D02*
X11554D01*
X10410Y4520D02*
X11536D01*
X10257Y5090D02*
X10348Y4999D01*
X9923Y4830D02*
X9990Y4763D01*
X10410Y4280D02*
X11603D01*
X10410Y4240D02*
X11669D01*
X10410Y4320D02*
X11566D01*
X10410Y4160D02*
X11835D01*
X10410Y4200D02*
X11831D01*
X10410Y4480D02*
X11527D01*
X10410Y4440D02*
X11525D01*
X10410Y4360D02*
X11544D01*
X10410Y4400D02*
X11531D01*
X10410Y3600D02*
X18022D01*
X10410Y3560D02*
X18029D01*
X10410Y3640D02*
X18017D01*
X10410Y3480D02*
X18053D01*
X10410Y3520D02*
X18040D01*
X10410Y3800D02*
X18022D01*
X10410Y3760D02*
X18017D01*
X10410Y3680D02*
X18014D01*
X10410Y3720D02*
X18014D01*
X10410Y3000D02*
X14142D01*
X10410Y2960D02*
X14101D01*
X10410Y2920D02*
X14079D01*
X10410Y2880D02*
X14067D01*
X10410Y2840D02*
X14065D01*
X10410Y3440D02*
X12779D01*
X10410Y3400D02*
X12732D01*
X10410Y3040D02*
X12819D01*
X10410Y3080D02*
X12753D01*
X9924Y3480D02*
X9990D01*
X9917Y3440D02*
X9990D01*
X9924Y3520D02*
X9990D01*
X10410Y2287D02*
Y4850D01*
X9990Y2389D02*
Y4763D01*
X9902Y3600D02*
X9990D01*
X9876Y3640D02*
X9990D01*
X9902Y3400D02*
X9990D01*
X9917Y3560D02*
X9990D01*
X10410Y3200D02*
X12681D01*
X10410Y3240D02*
X12675D01*
X10410Y3120D02*
X12716D01*
X10410Y3160D02*
X12694D01*
X10410Y3360D02*
X12704D01*
X9876D02*
X9990D01*
X10410Y3320D02*
X12686D01*
X10410Y3280D02*
X12677D01*
X8257Y4360D02*
X9990D01*
X8217Y4320D02*
X9990D01*
X8657Y4760D02*
X9990D01*
X8136Y4240D02*
X9990D01*
X8177Y4280D02*
X9990D01*
X7380Y4160D02*
X9990D01*
X8064Y4200D02*
X9990D01*
X7380Y4080D02*
X9990D01*
X7380Y4120D02*
X9990D01*
X7380Y3840D02*
X9990D01*
X7380Y3800D02*
X9990D01*
X7380Y3880D02*
X9990D01*
X9747Y3720D02*
X9990D01*
X7380Y3760D02*
X9990D01*
X7380Y4000D02*
X9990D01*
X7380Y4040D02*
X9990D01*
X7380Y3920D02*
X9990D01*
X7380Y3960D02*
X9990D01*
X8937Y5040D02*
X9870D01*
X8897Y5000D02*
X9862D01*
X8857Y4960D02*
X9862D01*
X8777Y4880D02*
X9886D01*
X8817Y4920D02*
X9870D01*
X8697Y4800D02*
X9953D01*
X8737Y4840D02*
X9914D01*
X8577Y4680D02*
X9990D01*
X8617Y4720D02*
X9990D01*
X8497Y4600D02*
X9990D01*
X8537Y4640D02*
X9990D01*
X8417Y4520D02*
X9990D01*
X8457Y4560D02*
X9990D01*
X8337Y4440D02*
X9990D01*
X8377Y4480D02*
X9990D01*
X8297Y4400D02*
X9990D01*
X7380Y3720D02*
X9653D01*
X9835Y3680D02*
X9990D01*
X9835Y3320D02*
X9990D01*
X9747Y3280D02*
X9990D01*
X7424Y3240D02*
X9990D01*
X7426Y3160D02*
X9990D01*
X7430Y3200D02*
X9990D01*
X9708Y2960D02*
X9990D01*
X9740Y2920D02*
X9990D01*
X9653Y3000D02*
X9990D01*
X9771Y2840D02*
X9990D01*
X9760Y2880D02*
X9990D01*
X7390Y3080D02*
X9990D01*
X7414Y3120D02*
X9990D01*
X7346Y3040D02*
X9990D01*
X7380Y3480D02*
X9476D01*
X7380Y3520D02*
X9476D01*
X7380Y3440D02*
X9483D01*
X7380Y3680D02*
X9565D01*
X7380Y3640D02*
X9524D01*
X7380Y3600D02*
X9498D01*
X7380Y3560D02*
X9483D01*
X7381Y3320D02*
X9565D01*
X7380Y3360D02*
X9524D01*
X7409Y3280D02*
X9653D01*
X7380Y3400D02*
X9498D01*
X1524Y3000D02*
X9447D01*
X1560Y2960D02*
X9392D01*
X1583Y2920D02*
X9360D01*
X10410Y2640D02*
X14000D01*
X10410Y2600D02*
X14000D01*
X10410Y2560D02*
X13617D01*
X10410Y2520D02*
X12953D01*
X10410Y2480D02*
X12865D01*
X10410Y2800D02*
X14072D01*
X10410Y2760D02*
X14060D01*
X10410Y2720D02*
X14020D01*
X10410Y2680D02*
X14000D01*
X10417Y2280D02*
X12424D01*
X10457Y2240D02*
X12372D01*
X10737Y1960D02*
X12345D01*
X10787Y1910D02*
X12389D01*
X10777Y1920D02*
X12378D01*
X10410Y2440D02*
X12824D01*
X10410Y2400D02*
X12798D01*
X10410Y2360D02*
X12783D01*
X10410Y2320D02*
X12776D01*
X10497Y2200D02*
X12341D01*
X10537Y2160D02*
X12322D01*
X10577Y2120D02*
X12311D01*
X10657Y2040D02*
X12312D01*
X10617Y2080D02*
X12308D01*
X9771Y2760D02*
X9990D01*
X9775Y2800D02*
X9990D01*
X10410Y2287D02*
X10787Y1910D01*
X9760Y2720D02*
X9990D01*
X10697Y2000D02*
X12324D01*
X9773Y1880D02*
X10223D01*
X10134Y1969D02*
X10551Y1552D01*
X9775Y1840D02*
X10263D01*
X9764Y1920D02*
X10183D01*
X9746Y1960D02*
X10143D01*
X9756Y1760D02*
X10343D01*
X9769Y1800D02*
X10303D01*
X10700Y1490D02*
X12879D01*
X10708Y760D02*
X11292D01*
X10740Y720D02*
X11260D01*
X9838Y880D02*
X14096D01*
X9787Y920D02*
X14096D01*
X9868Y840D02*
X14097D01*
X10653Y800D02*
X11347D01*
X10771Y560D02*
X11229D01*
X10760Y520D02*
X11240D01*
X10740Y480D02*
X11260D01*
X10760Y680D02*
X11240D01*
X10653Y400D02*
X11347D01*
X10708Y440D02*
X11292D01*
X9900Y720D02*
X10360D01*
X9887Y800D02*
X10447D01*
X9897Y760D02*
X10392D01*
X9895Y680D02*
X10340D01*
X9883Y640D02*
X10329D01*
X10771D02*
X11229D01*
X10775Y600D02*
X11225D01*
X9862D02*
X10325D01*
X9768Y520D02*
X10340D01*
X9828Y560D02*
X10329D01*
X9653Y2600D02*
X9990D01*
X8525Y2400D02*
X9990D01*
X9708Y2640D02*
X9990D01*
X9741Y1969D02*
X10134D01*
X8907Y2389D02*
X9990D01*
X8490Y2520D02*
X9990D01*
X8458Y2560D02*
X9990D01*
X8521Y2440D02*
X9990D01*
X8510Y2480D02*
X9990D01*
X9697Y1680D02*
X10423D01*
X9631Y1640D02*
X10463D01*
X9734Y1720D02*
X10383D01*
X8576Y1440D02*
X12824D01*
X8602Y1400D02*
X12798D01*
X400Y1560D02*
X10543D01*
X400Y1600D02*
X10503D01*
X8535Y1480D02*
X12865D01*
X8447Y1520D02*
X10592D01*
X9740Y2680D02*
X9990D01*
X1499Y2640D02*
X9392D01*
X1546Y2680D02*
X9360D01*
X8403Y2600D02*
X9447D01*
X8939Y1969D02*
X9359D01*
X400Y1720D02*
X9366D01*
X400Y1960D02*
X9354D01*
X400Y1640D02*
X9469D01*
X400Y1680D02*
X9403D01*
X8617Y1360D02*
X12783D01*
X8624Y1280D02*
X12776D01*
X8624Y1320D02*
X12776D01*
X8602Y1200D02*
X12798D01*
X8617Y1240D02*
X12783D01*
X8535Y1120D02*
X12865D01*
X8576Y1160D02*
X12824D01*
X3799Y1040D02*
X14096D01*
X8447Y1080D02*
X12953D01*
X840Y360D02*
X19810D01*
X880Y320D02*
X19770D01*
X920Y280D02*
X19730D01*
X960Y240D02*
X19690D01*
X1000Y200D02*
X19650D01*
X400Y960D02*
X14096D01*
X400Y1000D02*
X14096D01*
X800Y400D02*
X10447D01*
X760Y440D02*
X10392D01*
X440Y760D02*
X9453D01*
X400Y920D02*
X9563D01*
X400Y880D02*
X9512D01*
X400Y840D02*
X9482D01*
X400Y800D02*
X9463D01*
X640Y560D02*
X9522D01*
X720Y480D02*
X10360D01*
X680Y520D02*
X9582D01*
X520Y680D02*
X9455D01*
X480Y720D02*
X9450D01*
X600Y600D02*
X9488D01*
X560Y640D02*
X9467D01*
X7881Y5040D02*
X8343D01*
X7841Y5000D02*
X8303D01*
X7801Y4960D02*
X8263D01*
X8148Y4252D02*
X8987Y5090D01*
X7852Y4548D02*
X8751Y5448D01*
X7761Y4920D02*
X8223D01*
X7721Y4880D02*
X8183D01*
X7380Y4539D02*
X8256Y5415D01*
X7150Y4690D02*
X8065Y5606D01*
X7681Y4840D02*
X8143D01*
X7641Y4800D02*
X8103D01*
X7601Y4760D02*
X8063D01*
X7561Y4720D02*
X8023D01*
X7521Y4680D02*
X7983D01*
X7481Y4640D02*
X7943D01*
X7441Y4600D02*
X7903D01*
X7380Y4200D02*
X7936D01*
X7380Y4240D02*
X7864D01*
X7401Y4560D02*
X7863D01*
X7380Y4520D02*
X7828D01*
X7380Y4480D02*
X7806D01*
X7380Y4440D02*
X7794D01*
X2385Y4680D02*
X7140D01*
X2385Y4640D02*
X7118D01*
X2385Y4400D02*
X7110D01*
X7380Y4360D02*
X7794D01*
X7380Y4400D02*
X7790D01*
X7380Y4280D02*
X7828D01*
X7380Y4320D02*
X7806D01*
X2411Y4280D02*
X7110D01*
X2385Y4320D02*
X7110D01*
X2491Y4200D02*
X7110D01*
X2451Y4240D02*
X7110D01*
X2835Y3840D02*
X7110D01*
X2833Y3880D02*
X7110D01*
X7380Y3321D02*
Y4539D01*
X7110Y3321D02*
Y4595D01*
X2821Y3920D02*
X7110D01*
X2799Y3960D02*
X7110D01*
X2812Y3760D02*
X7110D01*
X2828Y3800D02*
X7110D01*
X7067Y3360D02*
X7110D01*
X7052Y3400D02*
X7110D01*
X2723Y3680D02*
X7110D01*
X2782Y3720D02*
X7110D01*
X7026Y3440D02*
X7110D01*
X6985Y3480D02*
X7110D01*
X2651Y4040D02*
X7110D01*
X2758Y4000D02*
X7110D01*
X2611Y4080D02*
X7110D01*
X2571Y4120D02*
X7110D01*
X2531Y4160D02*
X7110D01*
X2385Y4306D02*
X2656Y4035D01*
X6897Y3520D02*
X7110D01*
X7074Y3320D02*
X7109D01*
X7026Y3160D02*
X7063D01*
X2385Y4920D02*
X7379D01*
X2385Y4880D02*
X7339D01*
X2385Y4840D02*
X7299D01*
X2385Y4800D02*
X7259D01*
X2385Y4760D02*
X7219D01*
X2385Y5040D02*
X7499D01*
X2385Y5000D02*
X7459D01*
X2385Y4960D02*
X7419D01*
X2385Y4306D02*
Y5617D01*
Y4520D02*
X7110D01*
X2385Y4480D02*
X7110D01*
X2385Y4560D02*
X7110D01*
X2385Y4360D02*
X7110D01*
X2385Y4440D02*
X7110D01*
X2385Y4720D02*
X7179D01*
X400D02*
X2115D01*
X2385Y4600D02*
X7110D01*
X400Y4680D02*
X2115D01*
X400Y4840D02*
X2115D01*
X400Y4800D02*
X2115D01*
X400Y4880D02*
X2115D01*
X400Y4640D02*
X2115D01*
X400Y4760D02*
X2115D01*
X400Y5000D02*
X2115D01*
X400Y5040D02*
X2115D01*
X400Y4920D02*
X2115D01*
X400Y4960D02*
X2115D01*
X400Y4400D02*
X2115D01*
X400Y4440D02*
X2115D01*
X400Y4320D02*
X2115D01*
X400Y4360D02*
X2115D01*
X400Y4560D02*
X2115D01*
X400Y4600D02*
X2115D01*
X400Y4480D02*
X2115D01*
X400Y4520D02*
X2115D01*
X400Y3600D02*
X7110D01*
X400Y3560D02*
X7110D01*
X400Y3640D02*
X7110D01*
X400Y3520D02*
X6803D01*
X400Y3480D02*
X6715D01*
X400Y3760D02*
X2488D01*
X400Y3800D02*
X2472D01*
X400Y3680D02*
X2577D01*
X400Y3720D02*
X2518D01*
X400Y3240D02*
X6633D01*
X400Y3200D02*
X6648D01*
X400Y3280D02*
X6626D01*
X400Y3120D02*
X6715D01*
X400Y3160D02*
X6674D01*
X400Y3440D02*
X6674D01*
X400Y3400D02*
X6648D01*
X400Y3360D02*
X6633D01*
X400Y3320D02*
X6626D01*
X400Y4160D02*
X2149D01*
X2115Y4250D02*
Y5617D01*
X2155Y4154D02*
X2465Y3844D01*
X400Y4240D02*
X2115D01*
X400Y4280D02*
X2115D01*
X400Y4200D02*
X2125D01*
X400Y800D02*
Y6050D01*
Y3920D02*
X2389D01*
X400Y3960D02*
X2349D01*
X400Y3840D02*
X2465D01*
X400Y3880D02*
X2429D01*
X400Y4080D02*
X2229D01*
X400Y4120D02*
X2189D01*
X400Y4000D02*
X2309D01*
X400Y4040D02*
X2269D01*
X8521Y2360D02*
X8800D01*
X8510Y2320D02*
X8751D01*
X8490Y2280D02*
X8723D01*
X8458Y2240D02*
X8706D01*
X8403Y2200D02*
X8698D01*
X3839Y1440D02*
X8224D01*
X3886Y1400D02*
X8198D01*
X3914Y1360D02*
X8183D01*
X6985Y3120D02*
X7075D01*
X6897Y3080D02*
X7100D01*
X3071Y1440D02*
X3597D01*
X3118Y1400D02*
X3550D01*
X3146Y1360D02*
X3522D01*
X2318Y1440D02*
X2829D01*
X2365Y1400D02*
X2782D01*
X2394Y1360D02*
X2754D01*
X1651Y1320D02*
X1983D01*
X3932D02*
X8176D01*
X3164D02*
X3504D01*
X3941Y1280D02*
X8176D01*
X3173D02*
X3495D01*
X2411Y1320D02*
X2736D01*
X1660Y1280D02*
X1974D01*
X2420D02*
X2727D01*
X1662Y1240D02*
X1972D01*
X3943D02*
X8183D01*
X3175D02*
X3493D01*
X3937Y1200D02*
X8198D01*
X3924Y1160D02*
X8224D01*
X3169Y1200D02*
X3499D01*
X3865Y1080D02*
X8353D01*
X3902Y1120D02*
X8265D01*
X3134D02*
X3534D01*
X3156Y1160D02*
X3512D01*
X3031Y1040D02*
X3637D01*
X3097Y1080D02*
X3571D01*
X2417Y1200D02*
X2731D01*
X2422Y1240D02*
X2725D01*
X2381Y1120D02*
X2766D01*
X2403Y1160D02*
X2744D01*
X1656Y1200D02*
X1978D01*
X2278Y1040D02*
X2869D01*
X2345Y1080D02*
X2803D01*
X1596Y2880D02*
X9340D01*
X1602Y2840D02*
X9329D01*
X1600Y2800D02*
X9325D01*
X1574Y2720D02*
X9340D01*
X1591Y2760D02*
X9329D01*
X400Y2600D02*
X8197D01*
X1455Y3040D02*
X7143D01*
X400Y2560D02*
X8142D01*
X400Y2520D02*
X8110D01*
X400Y2280D02*
X8110D01*
X400Y2240D02*
X8142D01*
X400Y2320D02*
X8090D01*
X400Y2160D02*
X8698D01*
X400Y2200D02*
X8197D01*
X400Y2480D02*
X8090D01*
X400Y2440D02*
X8079D01*
X400Y2360D02*
X8079D01*
X400Y2400D02*
X8075D01*
X400Y2920D02*
X1172D01*
X400Y2880D02*
X1158D01*
X400Y3080D02*
X6803D01*
X400Y3040D02*
X1299D01*
X400Y3000D02*
X1231D01*
X400Y2960D02*
X1194D01*
X400Y2640D02*
X1255D01*
X400Y2680D02*
X1209D01*
X400Y2800D02*
X1154D01*
X400Y2840D02*
X1153D01*
X400Y2720D02*
X1180D01*
X400Y2760D02*
X1163D01*
X400Y1920D02*
X9336D01*
X400Y1880D02*
X9327D01*
X400Y1840D02*
X9325D01*
X400Y1760D02*
X9344D01*
X400Y1800D02*
X9331D01*
X400Y2080D02*
X8722D01*
X400Y2120D02*
X8706D01*
X400Y2000D02*
X8792D01*
X400Y2040D02*
X8750D01*
X1605Y1400D02*
X2030D01*
X1633Y1360D02*
X2001D01*
X1643Y1160D02*
X1991D01*
X1584Y1080D02*
X2050D01*
X1621Y1120D02*
X2014D01*
X400Y1520D02*
X8353D01*
X400Y1480D02*
X8265D01*
X1518Y1040D02*
X2116D01*
X1557Y1440D02*
X2077D01*
X400Y1280D02*
X1214D01*
X400Y1440D02*
X1316D01*
X400Y1400D02*
X1269D01*
X400Y1360D02*
X1241D01*
X400Y1320D02*
X1223D01*
X400Y1080D02*
X1289D01*
X400Y1040D02*
X1356D01*
X400Y800D02*
X1000Y200D01*
X400Y1200D02*
X1218D01*
X400Y1240D02*
X1212D01*
X400Y1120D02*
X1253D01*
X400Y1160D02*
X1231D01*
M02*
