G04*
G04 #@! TF.GenerationSoftware,Altium Limited,Altium Designer,21.0.8 (223)*
G04*
G04 Layer_Color=2752767*
%FSLAX24Y24*%
%MOIN*%
G70*
G04*
G04 #@! TF.SameCoordinates,11726A0C-8756-45C8-9DEF-AB95AD2673E8*
G04*
G04*
G04 #@! TF.FilePolarity,Positive*
G04*
G01*
G75*
%ADD10C,0.0100*%
%ADD17C,0.0394*%
%ADD68C,0.0080*%
%ADD84C,0.0020*%
%ADD85C,0.0027*%
%ADD86C,0.0160*%
D10*
X33139Y13650D02*
X33239Y13750D01*
X33439D01*
X33539Y13650D01*
Y13550D01*
X33439Y13450D01*
X33339D01*
X33439D01*
X33539Y13350D01*
Y13250D01*
X33439Y13150D01*
X33239D01*
X33139Y13250D01*
X40097Y13650D02*
X40197Y13750D01*
X40397D01*
X40497Y13650D01*
Y13550D01*
X40397Y13450D01*
X40497Y13350D01*
Y13250D01*
X40397Y13150D01*
X40197D01*
X40097Y13250D01*
Y13350D01*
X40197Y13450D01*
X40097Y13550D01*
Y13650D01*
X40197Y13450D02*
X40397D01*
X40697Y13150D02*
Y13550D01*
X40797D01*
X40897Y13450D01*
Y13150D01*
Y13450D01*
X40997Y13550D01*
X41097Y13450D01*
Y13150D01*
X41297D02*
X41496D01*
X41396D01*
Y13550D01*
X41297D01*
X41796Y13150D02*
X41996D01*
X41896D01*
Y13750D01*
X41796D01*
X43096Y13150D02*
X42896Y13350D01*
Y13550D01*
X43096Y13750D01*
X43396Y13650D02*
X43496Y13750D01*
X43696D01*
X43796Y13650D01*
Y13250D01*
X43696Y13150D01*
X43496D01*
X43396Y13250D01*
Y13650D01*
X43996Y13150D02*
Y13250D01*
X44096D01*
Y13150D01*
X43996D01*
X44895D02*
X44495D01*
X44895Y13550D01*
Y13650D01*
X44795Y13750D01*
X44595D01*
X44495Y13650D01*
X45095D02*
X45195Y13750D01*
X45395D01*
X45495Y13650D01*
Y13250D01*
X45395Y13150D01*
X45195D01*
X45095Y13250D01*
Y13650D01*
X45695D02*
X45795Y13750D01*
X45995D01*
X46095Y13650D01*
Y13550D01*
X45995Y13450D01*
X45895D01*
X45995D01*
X46095Y13350D01*
Y13250D01*
X45995Y13150D01*
X45795D01*
X45695Y13250D01*
X46695Y13150D02*
X46295D01*
X46695Y13550D01*
Y13650D01*
X46595Y13750D01*
X46395D01*
X46295Y13650D01*
X46895Y13150D02*
Y13550D01*
X46995D01*
X47095Y13450D01*
Y13150D01*
Y13450D01*
X47195Y13550D01*
X47295Y13450D01*
Y13150D01*
X47495D02*
Y13550D01*
X47594D01*
X47694Y13450D01*
Y13150D01*
Y13450D01*
X47794Y13550D01*
X47894Y13450D01*
Y13150D01*
X48094D02*
X48294Y13350D01*
Y13550D01*
X48094Y13750D01*
X53533Y13150D02*
Y13750D01*
X53833D01*
X53933Y13650D01*
Y13450D01*
X53833Y13350D01*
X53533D01*
X54133Y13750D02*
X54533D01*
X54333D01*
Y13150D01*
X54733Y13750D02*
Y13150D01*
Y13450D01*
X55132D01*
Y13750D01*
Y13150D01*
X58572D02*
Y13750D01*
X58872D01*
X58972Y13650D01*
Y13450D01*
X58872Y13350D01*
X58572D01*
X58772D02*
X58972Y13150D01*
X59271D02*
X59471D01*
X59571Y13250D01*
Y13450D01*
X59471Y13550D01*
X59271D01*
X59172Y13450D01*
Y13250D01*
X59271Y13150D01*
X59771Y13550D02*
Y13250D01*
X59871Y13150D01*
X60171D01*
Y13550D01*
X60371Y13150D02*
Y13550D01*
X60671D01*
X60771Y13450D01*
Y13150D01*
X61371Y13750D02*
Y13150D01*
X61071D01*
X60971Y13250D01*
Y13450D01*
X61071Y13550D01*
X61371D01*
X33139Y12550D02*
X33539D01*
Y12450D01*
X33139Y12050D01*
Y11950D01*
X33739Y12450D02*
X33839Y12550D01*
X34038D01*
X34138Y12450D01*
Y12350D01*
X34038Y12250D01*
X34138Y12150D01*
Y12050D01*
X34038Y11950D01*
X33839D01*
X33739Y12050D01*
Y12150D01*
X33839Y12250D01*
X33739Y12350D01*
Y12450D01*
X33839Y12250D02*
X34038D01*
X40097Y11950D02*
X40297D01*
X40197D01*
Y12550D01*
X40097Y12450D01*
X40597D02*
X40697Y12550D01*
X40897D01*
X40997Y12450D01*
Y12050D01*
X40897Y11950D01*
X40697D01*
X40597Y12050D01*
Y12450D01*
X41197Y11950D02*
Y12350D01*
X41297D01*
X41396Y12250D01*
Y11950D01*
Y12250D01*
X41496Y12350D01*
X41596Y12250D01*
Y11950D01*
X41796D02*
X41996D01*
X41896D01*
Y12350D01*
X41796D01*
X42296Y11950D02*
X42496D01*
X42396D01*
Y12550D01*
X42296D01*
X43596Y11950D02*
X43396Y12150D01*
Y12350D01*
X43596Y12550D01*
X43896Y12450D02*
X43996Y12550D01*
X44196D01*
X44296Y12450D01*
Y12050D01*
X44196Y11950D01*
X43996D01*
X43896Y12050D01*
Y12450D01*
X44495Y11950D02*
Y12050D01*
X44595D01*
Y11950D01*
X44495D01*
X45395D02*
X44995D01*
X45395Y12350D01*
Y12450D01*
X45295Y12550D01*
X45095D01*
X44995Y12450D01*
X45995Y12550D02*
X45595D01*
Y12250D01*
X45795Y12350D01*
X45895D01*
X45995Y12250D01*
Y12050D01*
X45895Y11950D01*
X45695D01*
X45595Y12050D01*
X46495Y11950D02*
Y12550D01*
X46195Y12250D01*
X46595D01*
X46795Y11950D02*
Y12350D01*
X46895D01*
X46995Y12250D01*
Y11950D01*
Y12250D01*
X47095Y12350D01*
X47195Y12250D01*
Y11950D01*
X47395D02*
Y12350D01*
X47495D01*
X47594Y12250D01*
Y11950D01*
Y12250D01*
X47694Y12350D01*
X47794Y12250D01*
Y11950D01*
X47994D02*
X48194Y12150D01*
Y12350D01*
X47994Y12550D01*
X53533Y11950D02*
Y12550D01*
X53833D01*
X53933Y12450D01*
Y12250D01*
X53833Y12150D01*
X53533D01*
X54133Y12550D02*
X54533D01*
X54333D01*
Y11950D01*
X54733Y12550D02*
Y11950D01*
Y12250D01*
X55132D01*
Y12550D01*
Y11950D01*
X58572D02*
Y12550D01*
X58872D01*
X58972Y12450D01*
Y12250D01*
X58872Y12150D01*
X58572D01*
X58772D02*
X58972Y11950D01*
X59271D02*
X59471D01*
X59571Y12050D01*
Y12250D01*
X59471Y12350D01*
X59271D01*
X59172Y12250D01*
Y12050D01*
X59271Y11950D01*
X59771Y12350D02*
Y12050D01*
X59871Y11950D01*
X60171D01*
Y12350D01*
X60371Y11950D02*
Y12350D01*
X60671D01*
X60771Y12250D01*
Y11950D01*
X61371Y12550D02*
Y11950D01*
X61071D01*
X60971Y12050D01*
Y12250D01*
X61071Y12350D01*
X61371D01*
X33139Y10750D02*
X33339D01*
X33239D01*
Y11350D01*
X33139Y11250D01*
X33639D02*
X33739Y11350D01*
X33939D01*
X34038Y11250D01*
Y10850D01*
X33939Y10750D01*
X33739D01*
X33639Y10850D01*
Y11250D01*
X40097D02*
X40197Y11350D01*
X40397D01*
X40497Y11250D01*
Y11150D01*
X40397Y11050D01*
X40297D01*
X40397D01*
X40497Y10950D01*
Y10850D01*
X40397Y10750D01*
X40197D01*
X40097Y10850D01*
X41097Y11350D02*
X40697D01*
Y11050D01*
X40897Y11150D01*
X40997D01*
X41097Y11050D01*
Y10850D01*
X40997Y10750D01*
X40797D01*
X40697Y10850D01*
X41297Y10750D02*
Y10850D01*
X41396D01*
Y10750D01*
X41297D01*
X42096D02*
Y11350D01*
X41796Y11050D01*
X42196D01*
X42396Y11250D02*
X42496Y11350D01*
X42696D01*
X42796Y11250D01*
Y11150D01*
X42696Y11050D01*
X42596D01*
X42696D01*
X42796Y10950D01*
Y10850D01*
X42696Y10750D01*
X42496D01*
X42396Y10850D01*
X42996Y11250D02*
X43096Y11350D01*
X43296D01*
X43396Y11250D01*
Y11150D01*
X43296Y11050D01*
X43196D01*
X43296D01*
X43396Y10950D01*
Y10850D01*
X43296Y10750D01*
X43096D01*
X42996Y10850D01*
X43596Y10750D02*
Y11150D01*
X43696D01*
X43796Y11050D01*
Y10750D01*
Y11050D01*
X43896Y11150D01*
X43996Y11050D01*
Y10750D01*
X44196D02*
X44395D01*
X44296D01*
Y11150D01*
X44196D01*
X44695Y10750D02*
X44895D01*
X44795D01*
Y11350D01*
X44695D01*
X45995Y10750D02*
X45795Y10950D01*
Y11150D01*
X45995Y11350D01*
X46295Y11250D02*
X46395Y11350D01*
X46595D01*
X46695Y11250D01*
Y10850D01*
X46595Y10750D01*
X46395D01*
X46295Y10850D01*
Y11250D01*
X46895Y10750D02*
Y10850D01*
X46995D01*
Y10750D01*
X46895D01*
X47395Y10850D02*
X47495Y10750D01*
X47694D01*
X47794Y10850D01*
Y11250D01*
X47694Y11350D01*
X47495D01*
X47395Y11250D01*
Y11150D01*
X47495Y11050D01*
X47794D01*
X47994Y10750D02*
Y11150D01*
X48094D01*
X48194Y11050D01*
Y10750D01*
Y11050D01*
X48294Y11150D01*
X48394Y11050D01*
Y10750D01*
X48594D02*
Y11150D01*
X48694D01*
X48794Y11050D01*
Y10750D01*
Y11050D01*
X48894Y11150D01*
X48994Y11050D01*
Y10750D01*
X49194D02*
X49394Y10950D01*
Y11150D01*
X49194Y11350D01*
X53533Y10750D02*
Y11350D01*
X53833D01*
X53933Y11250D01*
Y11050D01*
X53833Y10950D01*
X53533D01*
X54133Y11350D02*
X54533D01*
X54333D01*
Y10750D01*
X54733Y11350D02*
Y10750D01*
Y11050D01*
X55132D01*
Y11350D01*
Y10750D01*
X58572D02*
Y11350D01*
X58872D01*
X58972Y11250D01*
Y11050D01*
X58872Y10950D01*
X58572D01*
X58772D02*
X58972Y10750D01*
X59271D02*
X59471D01*
X59571Y10850D01*
Y11050D01*
X59471Y11150D01*
X59271D01*
X59172Y11050D01*
Y10850D01*
X59271Y10750D01*
X59771Y11150D02*
Y10850D01*
X59871Y10750D01*
X60171D01*
Y11150D01*
X60371Y10750D02*
Y11150D01*
X60671D01*
X60771Y11050D01*
Y10750D01*
X61371Y11350D02*
Y10750D01*
X61071D01*
X60971Y10850D01*
Y11050D01*
X61071Y11150D01*
X61371D01*
X33539Y10150D02*
X33339Y10050D01*
X33139Y9850D01*
Y9650D01*
X33239Y9550D01*
X33439D01*
X33539Y9650D01*
Y9750D01*
X33439Y9850D01*
X33139D01*
X40097Y10050D02*
X40197Y10150D01*
X40397D01*
X40497Y10050D01*
Y9950D01*
X40397Y9850D01*
X40297D01*
X40397D01*
X40497Y9750D01*
Y9650D01*
X40397Y9550D01*
X40197D01*
X40097Y9650D01*
X40697D02*
X40797Y9550D01*
X40997D01*
X41097Y9650D01*
Y10050D01*
X40997Y10150D01*
X40797D01*
X40697Y10050D01*
Y9950D01*
X40797Y9850D01*
X41097D01*
X41297Y9550D02*
Y9650D01*
X41396D01*
Y9550D01*
X41297D01*
X41796Y10050D02*
X41896Y10150D01*
X42096D01*
X42196Y10050D01*
Y9950D01*
X42096Y9850D01*
X41996D01*
X42096D01*
X42196Y9750D01*
Y9650D01*
X42096Y9550D01*
X41896D01*
X41796Y9650D01*
X42396Y10150D02*
X42796D01*
Y10050D01*
X42396Y9650D01*
Y9550D01*
X42996D02*
Y9950D01*
X43096D01*
X43196Y9850D01*
Y9550D01*
Y9850D01*
X43296Y9950D01*
X43396Y9850D01*
Y9550D01*
X43596D02*
X43796D01*
X43696D01*
Y9950D01*
X43596D01*
X44096Y9550D02*
X44296D01*
X44196D01*
Y10150D01*
X44096D01*
X45395Y9550D02*
X45195Y9750D01*
Y9950D01*
X45395Y10150D01*
X45695Y9550D02*
X45895D01*
X45795D01*
Y10150D01*
X45695Y10050D01*
X46195Y9550D02*
Y9950D01*
X46295D01*
X46395Y9850D01*
Y9550D01*
Y9850D01*
X46495Y9950D01*
X46595Y9850D01*
Y9550D01*
X46795D02*
Y9950D01*
X46895D01*
X46995Y9850D01*
Y9550D01*
Y9850D01*
X47095Y9950D01*
X47195Y9850D01*
Y9550D01*
X47395D02*
X47594Y9750D01*
Y9950D01*
X47395Y10150D01*
X53533Y9550D02*
Y10150D01*
X53833D01*
X53933Y10050D01*
Y9850D01*
X53833Y9750D01*
X53533D01*
X54133Y10150D02*
X54533D01*
X54333D01*
Y9550D01*
X54733Y10150D02*
Y9550D01*
Y9850D01*
X55132D01*
Y10150D01*
Y9550D01*
X58572D02*
Y10150D01*
X58872D01*
X58972Y10050D01*
Y9850D01*
X58872Y9750D01*
X58572D01*
X58772D02*
X58972Y9550D01*
X59271D02*
X59471D01*
X59571Y9650D01*
Y9850D01*
X59471Y9950D01*
X59271D01*
X59172Y9850D01*
Y9650D01*
X59271Y9550D01*
X59771Y9950D02*
Y9650D01*
X59871Y9550D01*
X60171D01*
Y9950D01*
X60371Y9550D02*
Y9950D01*
X60671D01*
X60771Y9850D01*
Y9550D01*
X61371Y10150D02*
Y9550D01*
X61071D01*
X60971Y9650D01*
Y9850D01*
X61071Y9950D01*
X61371D01*
X33539Y8350D02*
X33139D01*
X33539Y8750D01*
Y8850D01*
X33439Y8950D01*
X33239D01*
X33139Y8850D01*
X40397Y8350D02*
Y8950D01*
X40097Y8650D01*
X40497D01*
X41097Y8950D02*
X40697D01*
Y8650D01*
X40897Y8750D01*
X40997D01*
X41097Y8650D01*
Y8450D01*
X40997Y8350D01*
X40797D01*
X40697Y8450D01*
X41297Y8350D02*
Y8750D01*
X41396D01*
X41496Y8650D01*
Y8350D01*
Y8650D01*
X41596Y8750D01*
X41696Y8650D01*
Y8350D01*
X41896D02*
X42096D01*
X41996D01*
Y8750D01*
X41896D01*
X42396Y8350D02*
X42596D01*
X42496D01*
Y8950D01*
X42396D01*
X43696Y8350D02*
X43496Y8550D01*
Y8750D01*
X43696Y8950D01*
X43996Y8350D02*
X44196D01*
X44096D01*
Y8950D01*
X43996Y8850D01*
X44495Y8350D02*
Y8450D01*
X44595D01*
Y8350D01*
X44495D01*
X44995D02*
X45195D01*
X45095D01*
Y8950D01*
X44995Y8850D01*
X45795Y8350D02*
Y8950D01*
X45495Y8650D01*
X45895D01*
X46095Y8850D02*
X46195Y8950D01*
X46395D01*
X46495Y8850D01*
Y8750D01*
X46395Y8650D01*
X46295D01*
X46395D01*
X46495Y8550D01*
Y8450D01*
X46395Y8350D01*
X46195D01*
X46095Y8450D01*
X46695Y8350D02*
Y8750D01*
X46795D01*
X46895Y8650D01*
Y8350D01*
Y8650D01*
X46995Y8750D01*
X47095Y8650D01*
Y8350D01*
X47295D02*
Y8750D01*
X47395D01*
X47495Y8650D01*
Y8350D01*
Y8650D01*
X47594Y8750D01*
X47694Y8650D01*
Y8350D01*
X47894D02*
X48094Y8550D01*
Y8750D01*
X47894Y8950D01*
X53533Y8350D02*
Y8950D01*
X53833D01*
X53933Y8850D01*
Y8650D01*
X53833Y8550D01*
X53533D01*
X54133Y8950D02*
X54533D01*
X54333D01*
Y8350D01*
X54733Y8950D02*
Y8350D01*
Y8650D01*
X55132D01*
Y8950D01*
Y8350D01*
X58572D02*
Y8950D01*
X58872D01*
X58972Y8850D01*
Y8650D01*
X58872Y8550D01*
X58572D01*
X58772D02*
X58972Y8350D01*
X59271D02*
X59471D01*
X59571Y8450D01*
Y8650D01*
X59471Y8750D01*
X59271D01*
X59172Y8650D01*
Y8450D01*
X59271Y8350D01*
X59771Y8750D02*
Y8450D01*
X59871Y8350D01*
X60171D01*
Y8750D01*
X60371Y8350D02*
Y8750D01*
X60671D01*
X60771Y8650D01*
Y8350D01*
X61371Y8950D02*
Y8350D01*
X61071D01*
X60971Y8450D01*
Y8650D01*
X61071Y8750D01*
X61371D01*
X33539Y7150D02*
X33139D01*
X33539Y7550D01*
Y7650D01*
X33439Y7750D01*
X33239D01*
X33139Y7650D01*
X40097Y7750D02*
X40497D01*
Y7650D01*
X40097Y7250D01*
Y7150D01*
X41097Y7750D02*
X40697D01*
Y7450D01*
X40897Y7550D01*
X40997D01*
X41097Y7450D01*
Y7250D01*
X40997Y7150D01*
X40797D01*
X40697Y7250D01*
X41297Y7150D02*
Y7250D01*
X41396D01*
Y7150D01*
X41297D01*
X41796Y7250D02*
X41896Y7150D01*
X42096D01*
X42196Y7250D01*
Y7650D01*
X42096Y7750D01*
X41896D01*
X41796Y7650D01*
Y7550D01*
X41896Y7450D01*
X42196D01*
X42396Y7650D02*
X42496Y7750D01*
X42696D01*
X42796Y7650D01*
Y7550D01*
X42696Y7450D01*
X42796Y7350D01*
Y7250D01*
X42696Y7150D01*
X42496D01*
X42396Y7250D01*
Y7350D01*
X42496Y7450D01*
X42396Y7550D01*
Y7650D01*
X42496Y7450D02*
X42696D01*
X43296Y7150D02*
Y7750D01*
X42996Y7450D01*
X43396D01*
X43596Y7150D02*
Y7550D01*
X43696D01*
X43796Y7450D01*
Y7150D01*
Y7450D01*
X43896Y7550D01*
X43996Y7450D01*
Y7150D01*
X44196D02*
X44395D01*
X44296D01*
Y7550D01*
X44196D01*
X44695Y7150D02*
X44895D01*
X44795D01*
Y7750D01*
X44695D01*
X45995Y7150D02*
X45795Y7350D01*
Y7550D01*
X45995Y7750D01*
X46295Y7150D02*
X46495D01*
X46395D01*
Y7750D01*
X46295Y7650D01*
X46795Y7150D02*
Y7250D01*
X46895D01*
Y7150D01*
X46795D01*
X47295Y7250D02*
X47395Y7150D01*
X47594D01*
X47694Y7250D01*
Y7650D01*
X47594Y7750D01*
X47395D01*
X47295Y7650D01*
Y7550D01*
X47395Y7450D01*
X47694D01*
X48294Y7150D02*
X47894D01*
X48294Y7550D01*
Y7650D01*
X48194Y7750D01*
X47994D01*
X47894Y7650D01*
X48494Y7250D02*
X48594Y7150D01*
X48794D01*
X48894Y7250D01*
Y7650D01*
X48794Y7750D01*
X48594D01*
X48494Y7650D01*
Y7550D01*
X48594Y7450D01*
X48894D01*
X49094Y7250D02*
X49194Y7150D01*
X49394D01*
X49494Y7250D01*
Y7650D01*
X49394Y7750D01*
X49194D01*
X49094Y7650D01*
Y7550D01*
X49194Y7450D01*
X49494D01*
X49694Y7250D02*
X49794Y7150D01*
X49994D01*
X50094Y7250D01*
Y7650D01*
X49994Y7750D01*
X49794D01*
X49694Y7650D01*
Y7550D01*
X49794Y7450D01*
X50094D01*
X50294Y7150D02*
Y7550D01*
X50394D01*
X50494Y7450D01*
Y7150D01*
Y7450D01*
X50594Y7550D01*
X50693Y7450D01*
Y7150D01*
X50893D02*
Y7550D01*
X50993D01*
X51093Y7450D01*
Y7150D01*
Y7450D01*
X51193Y7550D01*
X51293Y7450D01*
Y7150D01*
X51493D02*
X51693Y7350D01*
Y7550D01*
X51493Y7750D01*
X53533Y7150D02*
Y7750D01*
X53833D01*
X53933Y7650D01*
Y7450D01*
X53833Y7350D01*
X53533D01*
X54133Y7750D02*
X54533D01*
X54333D01*
Y7150D01*
X54733Y7750D02*
Y7150D01*
Y7450D01*
X55132D01*
Y7750D01*
Y7150D01*
X58572D02*
Y7750D01*
X58872D01*
X58972Y7650D01*
Y7450D01*
X58872Y7350D01*
X58572D01*
X58772D02*
X58972Y7150D01*
X59271D02*
X59471D01*
X59571Y7250D01*
Y7450D01*
X59471Y7550D01*
X59271D01*
X59172Y7450D01*
Y7250D01*
X59271Y7150D01*
X59771Y7550D02*
Y7250D01*
X59871Y7150D01*
X60171D01*
Y7550D01*
X60371Y7150D02*
Y7550D01*
X60671D01*
X60771Y7450D01*
Y7150D01*
X61371Y7750D02*
Y7150D01*
X61071D01*
X60971Y7250D01*
Y7450D01*
X61071Y7550D01*
X61371D01*
X33139Y5950D02*
X33339D01*
X33239D01*
Y6550D01*
X33139Y6450D01*
X33639D02*
X33739Y6550D01*
X33939D01*
X34038Y6450D01*
Y6050D01*
X33939Y5950D01*
X33739D01*
X33639Y6050D01*
Y6450D01*
X34238Y5950D02*
X34438D01*
X34338D01*
Y6550D01*
X34238Y6450D01*
X35518Y6550D02*
X35918D01*
X35718D01*
Y5950D01*
X36218D02*
X36418D01*
X36518Y6050D01*
Y6250D01*
X36418Y6350D01*
X36218D01*
X36118Y6250D01*
Y6050D01*
X36218Y5950D01*
X36818Y6450D02*
Y6350D01*
X36718D01*
X36918D01*
X36818D01*
Y6050D01*
X36918Y5950D01*
X37318Y6350D02*
X37518D01*
X37618Y6250D01*
Y5950D01*
X37318D01*
X37218Y6050D01*
X37318Y6150D01*
X37618D01*
X37818Y5950D02*
X38018D01*
X37918D01*
Y6550D01*
X37818D01*
D17*
X5791Y7952D02*
Y8936D01*
X4137Y6475D02*
X4925D01*
X3350Y8050D02*
Y8837D01*
D68*
X28580Y11050D02*
G03*
X28580Y11050I-240J0D01*
G01*
D84*
X22670Y4070D02*
Y4230D01*
X22830D01*
Y4070D01*
X22670D01*
Y6070D02*
Y6230D01*
X22830D01*
Y6070D01*
X22670D01*
X18650Y3620D02*
X18570Y3780D01*
X18730D01*
X18650Y3620D01*
Y8620D02*
X18570Y8780D01*
X18730D01*
X18650Y8620D01*
X5791Y7872D02*
X5831Y7912D01*
X5871D01*
X5831Y7952D01*
X5871Y7992D01*
X5831D01*
X5791Y8032D01*
X5751Y7992D01*
X5711D01*
X5751Y7952D01*
X5711Y7912D01*
X5751D01*
X5791Y7872D01*
X4137Y6395D02*
X4177Y6435D01*
X4217D01*
X4177Y6475D01*
X4217Y6515D01*
X4177D01*
X4137Y6555D01*
X4097Y6515D01*
X4057D01*
X4097Y6475D01*
X4057Y6435D01*
X4097D01*
X4137Y6395D01*
X4925D02*
X4965Y6435D01*
X5005D01*
X4965Y6475D01*
X5005Y6515D01*
X4965D01*
X4925Y6555D01*
X4885Y6515D01*
X4845D01*
X4885Y6475D01*
X4845Y6435D01*
X4885D01*
X4925Y6395D01*
X3350Y8757D02*
X3390Y8797D01*
X3430D01*
X3390Y8837D01*
X3430Y8877D01*
X3390D01*
X3350Y8917D01*
X3310Y8877D01*
X3270D01*
X3310Y8837D01*
X3270Y8797D01*
X3310D01*
X3350Y8757D01*
Y7970D02*
X3390Y8010D01*
X3430D01*
X3390Y8050D01*
X3430Y8090D01*
X3390D01*
X3350Y8130D01*
X3310Y8090D01*
X3270D01*
X3310Y8050D01*
X3270Y8010D01*
X3310D01*
X3350Y7970D01*
X5791Y8856D02*
X5831Y8896D01*
X5871D01*
X5831Y8936D01*
X5871Y8976D01*
X5831D01*
X5791Y9016D01*
X5751Y8976D01*
X5711D01*
X5751Y8936D01*
X5711Y8896D01*
X5751D01*
X5791Y8856D01*
X16545Y1895D02*
X16585Y1975D01*
X16545Y2055D01*
X16625Y2015D01*
X16705Y2055D01*
X16665Y1975D01*
X16705Y1895D01*
X16625Y1935D01*
X16545Y1895D01*
X18410Y4542D02*
Y4502D01*
X18490D01*
Y4542D01*
X18530D01*
Y4622D01*
X18490D01*
Y4662D01*
X18410D01*
Y4622D01*
X18370D01*
Y4542D01*
X18410D01*
X18113Y7252D02*
Y7212D01*
X18193D01*
Y7252D01*
X18233D01*
Y7332D01*
X18193D01*
Y7372D01*
X18113D01*
Y7332D01*
X18073D01*
Y7252D01*
X18113D01*
X17408Y5883D02*
Y5843D01*
X17488D01*
Y5883D01*
X17528D01*
Y5963D01*
X17488D01*
Y6003D01*
X17408D01*
Y5963D01*
X17368D01*
Y5883D01*
X17408D01*
X19570Y1370D02*
X19610Y1450D01*
X19570Y1530D01*
X19650Y1490D01*
X19730Y1530D01*
X19690Y1450D01*
X19730Y1370D01*
X19650Y1410D01*
X19570Y1370D01*
X15395Y1395D02*
X15435Y1475D01*
X15395Y1555D01*
X15475Y1515D01*
X15555Y1555D01*
X15515Y1475D01*
X15555Y1395D01*
X15475Y1435D01*
X15395Y1395D01*
X16978Y5670D02*
X17018Y5750D01*
X16978Y5830D01*
X17058Y5790D01*
X17138Y5830D01*
X17098Y5750D01*
X17138Y5670D01*
X17058Y5710D01*
X16978Y5670D01*
X15912Y5578D02*
X15952Y5658D01*
X15912Y5738D01*
X15992Y5698D01*
X16072Y5738D01*
X16032Y5658D01*
X16072Y5578D01*
X15992Y5618D01*
X15912Y5578D01*
X16720Y5520D02*
X16760Y5600D01*
X16720Y5680D01*
X16800Y5640D01*
X16880Y5680D01*
X16840Y5600D01*
X16880Y5520D01*
X16800Y5560D01*
X16720Y5520D01*
X19445Y5720D02*
X19485Y5800D01*
X19445Y5880D01*
X19525Y5840D01*
X19605Y5880D01*
X19565Y5800D01*
X19605Y5720D01*
X19525Y5760D01*
X19445Y5720D01*
X16012Y5870D02*
X16052Y5950D01*
X16012Y6030D01*
X16092Y5990D01*
X16172Y6030D01*
X16132Y5950D01*
X16172Y5870D01*
X16092Y5910D01*
X16012Y5870D01*
X16470Y7220D02*
X16510Y7300D01*
X16470Y7380D01*
X16550Y7340D01*
X16630Y7380D01*
X16590Y7300D01*
X16630Y7220D01*
X16550Y7260D01*
X16470Y7220D01*
X16070Y6470D02*
X16110Y6550D01*
X16070Y6630D01*
X16150Y6590D01*
X16230Y6630D01*
X16190Y6550D01*
X16230Y6470D01*
X16150Y6510D01*
X16070Y6470D01*
X17670Y4970D02*
X17710Y5050D01*
X17670Y5130D01*
X17750Y5090D01*
X17830Y5130D01*
X17790Y5050D01*
X17830Y4970D01*
X17750Y5010D01*
X17670Y4970D01*
X16781Y5070D02*
X16821Y5150D01*
X16781Y5230D01*
X16861Y5190D01*
X16941Y5230D01*
X16901Y5150D01*
X16941Y5070D01*
X16861Y5110D01*
X16781Y5070D01*
X14831Y5270D02*
X14871Y5350D01*
X14831Y5430D01*
X14911Y5390D01*
X14991Y5430D01*
X14951Y5350D01*
X14991Y5270D01*
X14911Y5310D01*
X14831Y5270D01*
X14792Y5670D02*
X14832Y5750D01*
X14792Y5830D01*
X14872Y5790D01*
X14952Y5830D01*
X14912Y5750D01*
X14952Y5670D01*
X14872Y5710D01*
X14792Y5670D01*
X15970Y6720D02*
X16010Y6800D01*
X15970Y6880D01*
X16050Y6840D01*
X16130Y6880D01*
X16090Y6800D01*
X16130Y6720D01*
X16050Y6760D01*
X15970Y6720D01*
X16070Y5020D02*
X16110Y5100D01*
X16070Y5180D01*
X16150Y5140D01*
X16230Y5180D01*
X16190Y5100D01*
X16230Y5020D01*
X16150Y5060D01*
X16070Y5020D01*
X14620Y3170D02*
X14660Y3250D01*
X14620Y3330D01*
X14700Y3290D01*
X14780Y3330D01*
X14740Y3250D01*
X14780Y3170D01*
X14700Y3210D01*
X14620Y3170D01*
X11949Y9287D02*
X11989Y9367D01*
X11949Y9447D01*
X12029Y9407D01*
X12109Y9447D01*
X12069Y9367D01*
X12109Y9287D01*
X12029Y9327D01*
X11949Y9287D01*
X2570Y3770D02*
X2610Y3850D01*
X2570Y3930D01*
X2650Y3890D01*
X2730Y3930D01*
X2690Y3850D01*
X2730Y3770D01*
X2650Y3810D01*
X2570Y3770D01*
X8170Y5520D02*
X8210Y5600D01*
X8170Y5680D01*
X8250Y5640D01*
X8330Y5680D01*
X8290Y5600D01*
X8330Y5520D01*
X8250Y5560D01*
X8170Y5520D01*
X7165Y3115D02*
X7205Y3195D01*
X7165Y3275D01*
X7245Y3235D01*
X7325Y3275D01*
X7285Y3195D01*
X7325Y3115D01*
X7245Y3155D01*
X7165Y3115D01*
X7920Y4320D02*
X7960Y4400D01*
X7920Y4480D01*
X8000Y4440D01*
X8080Y4480D01*
X8040Y4400D01*
X8080Y4320D01*
X8000Y4360D01*
X7920Y4320D01*
X5020Y7920D02*
X5060Y8000D01*
X5020Y8080D01*
X5100Y8040D01*
X5180Y8080D01*
X5140Y8000D01*
X5180Y7920D01*
X5100Y7960D01*
X5020Y7920D01*
X3170Y5220D02*
X3210Y5300D01*
X3170Y5380D01*
X3250Y5340D01*
X3330Y5380D01*
X3290Y5300D01*
X3330Y5220D01*
X3250Y5260D01*
X3170Y5220D01*
X1377Y5784D02*
X1417Y5864D01*
X1377Y5944D01*
X1457Y5904D01*
X1537Y5944D01*
X1497Y5864D01*
X1537Y5784D01*
X1457Y5824D01*
X1377Y5784D01*
X2170Y5663D02*
X2210Y5743D01*
X2170Y5823D01*
X2250Y5783D01*
X2330Y5823D01*
X2290Y5743D01*
X2330Y5663D01*
X2250Y5703D01*
X2170Y5663D01*
X1297Y2749D02*
X1337Y2829D01*
X1297Y2909D01*
X1377Y2869D01*
X1457Y2909D01*
X1417Y2829D01*
X1457Y2749D01*
X1377Y2789D01*
X1297Y2749D01*
X3638Y1170D02*
X3678Y1250D01*
X3638Y1330D01*
X3718Y1290D01*
X3798Y1330D01*
X3758Y1250D01*
X3798Y1170D01*
X3718Y1210D01*
X3638Y1170D01*
X2870Y1170D02*
X2910Y1250D01*
X2870Y1330D01*
X2950Y1290D01*
X3030Y1330D01*
X2990Y1250D01*
X3030Y1170D01*
X2950Y1210D01*
X2870Y1170D01*
X2117Y1170D02*
X2157Y1250D01*
X2117Y1330D01*
X2197Y1290D01*
X2277Y1330D01*
X2237Y1250D01*
X2277Y1170D01*
X2197Y1210D01*
X2117Y1170D01*
X1357D02*
X1397Y1250D01*
X1357Y1330D01*
X1437Y1290D01*
X1517Y1330D01*
X1477Y1250D01*
X1517Y1170D01*
X1437Y1210D01*
X1357Y1170D01*
X8320Y1220D02*
X8360Y1300D01*
X8320Y1380D01*
X8400Y1340D01*
X8480Y1380D01*
X8440Y1300D01*
X8480Y1220D01*
X8400Y1260D01*
X8320Y1220D01*
X8820Y2070D02*
X8860Y2150D01*
X8820Y2230D01*
X8900Y2190D01*
X8980Y2230D01*
X8940Y2150D01*
X8980Y2070D01*
X8900Y2110D01*
X8820Y2070D01*
X8220Y2320D02*
X8260Y2400D01*
X8220Y2480D01*
X8300Y2440D01*
X8380Y2480D01*
X8340Y2400D01*
X8380Y2320D01*
X8300Y2360D01*
X8220Y2320D01*
X6770Y3220D02*
X6810Y3300D01*
X6770Y3380D01*
X6850Y3340D01*
X6930Y3380D01*
X6890Y3300D01*
X6930Y3220D01*
X6850Y3260D01*
X6770Y3220D01*
X6020Y5320D02*
X6060Y5400D01*
X6020Y5480D01*
X6100Y5440D01*
X6180Y5480D01*
X6140Y5400D01*
X6180Y5320D01*
X6100Y5360D01*
X6020Y5320D01*
X6970Y6770D02*
X7010Y6850D01*
X6970Y6930D01*
X7050Y6890D01*
X7130Y6930D01*
X7090Y6850D01*
X7130Y6770D01*
X7050Y6810D01*
X6970Y6770D01*
X4820Y7020D02*
X4860Y7100D01*
X4820Y7180D01*
X4900Y7140D01*
X4980Y7180D01*
X4940Y7100D01*
X4980Y7020D01*
X4900Y7060D01*
X4820Y7020D01*
X12370Y5370D02*
X12410Y5450D01*
X12370Y5530D01*
X12450Y5490D01*
X12530Y5530D01*
X12490Y5450D01*
X12530Y5370D01*
X12450Y5410D01*
X12370Y5370D01*
X11670Y4370D02*
X11710Y4450D01*
X11670Y4530D01*
X11750Y4490D01*
X11830Y4530D01*
X11790Y4450D01*
X11830Y4370D01*
X11750Y4410D01*
X11670Y4370D01*
X12920Y8770D02*
X12960Y8850D01*
X12920Y8930D01*
X13000Y8890D01*
X13080Y8930D01*
X13040Y8850D01*
X13080Y8770D01*
X13000Y8810D01*
X12920Y8770D01*
X15799Y8299D02*
X15839Y8379D01*
X15799Y8459D01*
X15879Y8419D01*
X15959Y8459D01*
X15919Y8379D01*
X15959Y8299D01*
X15879Y8339D01*
X15799Y8299D01*
X12370Y4120D02*
X12410Y4200D01*
X12370Y4280D01*
X12450Y4240D01*
X12530Y4280D01*
X12490Y4200D01*
X12530Y4120D01*
X12450Y4160D01*
X12370Y4120D01*
X9970Y5570D02*
X10010Y5650D01*
X9970Y5730D01*
X10050Y5690D01*
X10130Y5730D01*
X10090Y5650D01*
X10130Y5570D01*
X10050Y5610D01*
X9970Y5570D01*
X9848Y8299D02*
X9888Y8379D01*
X9848Y8459D01*
X9928Y8419D01*
X10008Y8459D01*
X9968Y8379D01*
X10008Y8299D01*
X9928Y8339D01*
X9848Y8299D01*
X8770Y5770D02*
X8810Y5850D01*
X8770Y5930D01*
X8850Y5890D01*
X8930Y5930D01*
X8890Y5850D01*
X8930Y5770D01*
X8850Y5810D01*
X8770Y5770D01*
X9991Y4899D02*
X10031Y4979D01*
X9991Y5059D01*
X10071Y5019D01*
X10151Y5059D01*
X10111Y4979D01*
X10151Y4899D01*
X10071Y4939D01*
X9991Y4899D01*
X12390Y9089D02*
X12430Y9169D01*
X12390Y9249D01*
X12470Y9209D01*
X12550Y9249D01*
X12510Y9169D01*
X12550Y9089D01*
X12470Y9129D01*
X12390Y9089D01*
X11976Y4120D02*
X12016Y4200D01*
X11976Y4280D01*
X12056Y4240D01*
X12136Y4280D01*
X12096Y4200D01*
X12136Y4120D01*
X12056Y4160D01*
X11976Y4120D01*
X8685Y8502D02*
X8725Y8582D01*
X8685Y8662D01*
X8765Y8622D01*
X8845Y8662D01*
X8805Y8582D01*
X8845Y8502D01*
X8765Y8542D01*
X8685Y8502D01*
X13370Y9070D02*
X13410Y9150D01*
X13370Y9230D01*
X13450Y9190D01*
X13530Y9230D01*
X13490Y9150D01*
X13530Y9070D01*
X13450Y9110D01*
X13370Y9070D01*
X16270Y5970D02*
X16310Y6050D01*
X16270Y6130D01*
X16350Y6090D01*
X16430Y6130D01*
X16390Y6050D01*
X16430Y5970D01*
X16350Y6010D01*
X16270Y5970D01*
X12820Y3170D02*
X12860Y3250D01*
X12820Y3330D01*
X12900Y3290D01*
X12980Y3330D01*
X12940Y3250D01*
X12980Y3170D01*
X12900Y3210D01*
X12820Y3170D01*
X19870Y4470D02*
X19910Y4550D01*
X19870Y4630D01*
X19950Y4590D01*
X20030Y4630D01*
X19990Y4550D01*
X20030Y4470D01*
X19950Y4510D01*
X19870Y4470D01*
X20164Y3845D02*
X20204Y3925D01*
X20164Y4005D01*
X20244Y3965D01*
X20324Y4005D01*
X20284Y3925D01*
X20324Y3845D01*
X20244Y3885D01*
X20164Y3845D01*
X19570Y3170D02*
X19610Y3250D01*
X19570Y3330D01*
X19650Y3290D01*
X19730Y3330D01*
X19690Y3250D01*
X19730Y3170D01*
X19650Y3210D01*
X19570Y3170D01*
X17820Y9470D02*
X17860Y9550D01*
X17820Y9630D01*
X17900Y9590D01*
X17980Y9630D01*
X17940Y9550D01*
X17980Y9470D01*
X17900Y9510D01*
X17820Y9470D01*
X16926Y9898D02*
X16966Y9978D01*
X16926Y10058D01*
X17006Y10018D01*
X17086Y10058D01*
X17046Y9978D01*
X17086Y9898D01*
X17006Y9938D01*
X16926Y9898D01*
X16520Y8070D02*
X16560Y8150D01*
X16520Y8230D01*
X16600Y8190D01*
X16680Y8230D01*
X16640Y8150D01*
X16680Y8070D01*
X16600Y8110D01*
X16520Y8070D01*
X17470Y6520D02*
X17510Y6600D01*
X17470Y6680D01*
X17550Y6640D01*
X17630Y6680D01*
X17590Y6600D01*
X17630Y6520D01*
X17550Y6560D01*
X17470Y6520D01*
X13920Y1720D02*
X13960Y1800D01*
X13920Y1880D01*
X14000Y1840D01*
X14080Y1880D01*
X14040Y1800D01*
X14080Y1720D01*
X14000Y1760D01*
X13920Y1720D01*
X14226Y770D02*
X14266Y850D01*
X14226Y930D01*
X14306Y890D01*
X14386Y930D01*
X14346Y850D01*
X14386Y770D01*
X14306Y810D01*
X14226Y770D01*
X18620Y6720D02*
X18660Y6800D01*
X18620Y6880D01*
X18700Y6840D01*
X18780Y6880D01*
X18740Y6800D01*
X18780Y6720D01*
X18700Y6760D01*
X18620Y6720D01*
X19620Y7570D02*
X19660Y7650D01*
X19620Y7730D01*
X19700Y7690D01*
X19780Y7730D01*
X19740Y7650D01*
X19780Y7570D01*
X19700Y7610D01*
X19620Y7570D01*
X10120Y2120D02*
X10160Y2200D01*
X10120Y2280D01*
X10200Y2240D01*
X10280Y2280D01*
X10240Y2200D01*
X10280Y2120D01*
X10200Y2160D01*
X10120Y2120D01*
X12920Y2220D02*
X12960Y2300D01*
X12920Y2380D01*
X13000Y2340D01*
X13080Y2380D01*
X13040Y2300D01*
X13080Y2220D01*
X13000Y2260D01*
X12920Y2220D01*
Y1220D02*
X12960Y1300D01*
X12920Y1380D01*
X13000Y1340D01*
X13080Y1380D01*
X13040Y1300D01*
X13080Y1220D01*
X13000Y1260D01*
X12920Y1220D01*
X12170Y520D02*
X12210Y600D01*
X12170Y680D01*
X12250Y640D01*
X12330Y680D01*
X12290Y600D01*
X12330Y520D01*
X12250Y560D01*
X12170Y520D01*
X11370D02*
X11410Y600D01*
X11370Y680D01*
X11450Y640D01*
X11530Y680D01*
X11490Y600D01*
X11530Y520D01*
X11450Y560D01*
X11370Y520D01*
X10470D02*
X10510Y600D01*
X10470Y680D01*
X10550Y640D01*
X10630Y680D01*
X10590Y600D01*
X10630Y520D01*
X10550Y560D01*
X10470Y520D01*
X9595Y645D02*
X9635Y725D01*
X9595Y805D01*
X9675Y765D01*
X9755Y805D01*
X9715Y725D01*
X9755Y645D01*
X9675Y685D01*
X9595Y645D01*
X9470Y1770D02*
X9510Y1850D01*
X9470Y1930D01*
X9550Y1890D01*
X9630Y1930D01*
X9590Y1850D01*
X9630Y1770D01*
X9550Y1810D01*
X9470Y1770D01*
Y2720D02*
X9510Y2800D01*
X9470Y2880D01*
X9550Y2840D01*
X9630Y2880D01*
X9590Y2800D01*
X9630Y2720D01*
X9550Y2760D01*
X9470Y2720D01*
X9620Y3420D02*
X9660Y3500D01*
X9620Y3580D01*
X9700Y3540D01*
X9780Y3580D01*
X9740Y3500D01*
X9780Y3420D01*
X9700Y3460D01*
X9620Y3420D01*
X12453Y2003D02*
X12493Y2083D01*
X12453Y2163D01*
X12533Y2123D01*
X12613Y2163D01*
X12573Y2083D01*
X12613Y2003D01*
X12533Y2043D01*
X12453Y2003D01*
X13620Y2314D02*
X13660Y2394D01*
X13620Y2474D01*
X13700Y2434D01*
X13780Y2474D01*
X13740Y2394D01*
X13780Y2314D01*
X13700Y2354D01*
X13620Y2314D01*
X14170Y2770D02*
X14210Y2850D01*
X14170Y2930D01*
X14250Y2890D01*
X14330Y2930D01*
X14290Y2850D01*
X14330Y2770D01*
X14250Y2810D01*
X14170Y2770D01*
X18970Y1970D02*
X19010Y2050D01*
X18970Y2130D01*
X19050Y2090D01*
X19130Y2130D01*
X19090Y2050D01*
X19130Y1970D01*
X19050Y2010D01*
X18970Y1970D01*
X28220Y13330D02*
Y13210D01*
X28460D01*
Y13330D01*
X28580D01*
Y13570D01*
X28460D01*
Y13690D01*
X28220D01*
Y13570D01*
X28100D01*
Y13330D01*
X28220D01*
X28100Y12010D02*
X28220Y12250D01*
X28100Y12490D01*
X28340Y12370D01*
X28580Y12490D01*
X28460Y12250D01*
X28580Y12010D01*
X28340Y12130D01*
X28100Y12010D01*
X28340Y9610D02*
X28460Y9730D01*
X28580D01*
X28460Y9850D01*
X28580Y9970D01*
X28460D01*
X28340Y10090D01*
X28220Y9970D01*
X28100D01*
X28220Y9850D01*
X28100Y9730D01*
X28220D01*
X28340Y9610D01*
X28100Y8410D02*
Y8890D01*
X28580D01*
Y8410D01*
X28100D01*
X28340Y7210D02*
X28100Y7690D01*
X28580D01*
X28340Y7210D01*
D85*
X19130Y2450D02*
G03*
X19130Y2450I-80J0D01*
G01*
X19130Y1450D02*
G03*
X19130Y1450I-80J0D01*
G01*
X18130Y2450D02*
G03*
X18130Y2450I-80J0D01*
G01*
Y1450D02*
G03*
X18130Y1450I-80J0D01*
G01*
X17130Y2450D02*
G03*
X17130Y2450I-80J0D01*
G01*
Y1450D02*
G03*
X17130Y1450I-80J0D01*
G01*
X16130Y2450D02*
G03*
X16130Y2450I-80J0D01*
G01*
X16130Y1450D02*
G03*
X16130Y1450I-80J0D01*
G01*
X15130Y2450D02*
G03*
X15130Y2450I-80J0D01*
G01*
Y1450D02*
G03*
X15130Y1450I-80J0D01*
G01*
D86*
X28580Y15190D02*
X28460Y15310D01*
X28220D01*
X28100Y15190D01*
Y15070D01*
X28220Y14950D01*
X28460D01*
X28580Y14830D01*
Y14710D01*
X28460Y14590D01*
X28220D01*
X28100Y14710D01*
X28820Y15070D02*
Y14710D01*
X28940Y14590D01*
X29300D01*
Y14470D01*
X29180Y14350D01*
X29060D01*
X29300Y14590D02*
Y15070D01*
X29540Y14590D02*
Y15070D01*
X29660D01*
X29779Y14950D01*
Y14590D01*
Y14950D01*
X29899Y15070D01*
X30019Y14950D01*
Y14590D01*
X30259Y15310D02*
Y14590D01*
X30619D01*
X30739Y14710D01*
Y14830D01*
Y14950D01*
X30619Y15070D01*
X30259D01*
X31099Y14590D02*
X31339D01*
X31459Y14710D01*
Y14950D01*
X31339Y15070D01*
X31099D01*
X30979Y14950D01*
Y14710D01*
X31099Y14590D01*
X31699D02*
X31939D01*
X31819D01*
Y15310D01*
X31699D01*
X33139D02*
Y14590D01*
Y14950D01*
X33619D01*
Y15310D01*
Y14590D01*
X33859D02*
X34098D01*
X33978D01*
Y15070D01*
X33859D01*
X34578Y15190D02*
Y15070D01*
X34458D01*
X34698D01*
X34578D01*
Y14710D01*
X34698Y14590D01*
X36258Y15190D02*
X36138Y15310D01*
X35898D01*
X35778Y15190D01*
Y14710D01*
X35898Y14590D01*
X36138D01*
X36258Y14710D01*
X36618Y14590D02*
X36858D01*
X36978Y14710D01*
Y14950D01*
X36858Y15070D01*
X36618D01*
X36498Y14950D01*
Y14710D01*
X36618Y14590D01*
X37217Y15070D02*
Y14710D01*
X37337Y14590D01*
X37697D01*
Y15070D01*
X37937Y14590D02*
Y15070D01*
X38297D01*
X38417Y14950D01*
Y14590D01*
X38777Y15190D02*
Y15070D01*
X38657D01*
X38897D01*
X38777D01*
Y14710D01*
X38897Y14590D01*
X40577Y15310D02*
X40097D01*
Y14950D01*
X40337D01*
X40097D01*
Y14590D01*
X40817D02*
X41057D01*
X40937D01*
Y15070D01*
X40817D01*
X41416Y14590D02*
Y15070D01*
X41776D01*
X41896Y14950D01*
Y14590D01*
X42136D02*
X42376D01*
X42256D01*
Y15070D01*
X42136D01*
X42736Y14590D02*
X43096D01*
X43216Y14710D01*
X43096Y14830D01*
X42856D01*
X42736Y14950D01*
X42856Y15070D01*
X43216D01*
X43456Y15310D02*
Y14590D01*
Y14950D01*
X43576Y15070D01*
X43816D01*
X43936Y14950D01*
Y14590D01*
X44535D02*
X44296D01*
X44176Y14710D01*
Y14950D01*
X44296Y15070D01*
X44535D01*
X44655Y14950D01*
Y14830D01*
X44176D01*
X45375Y15310D02*
Y14590D01*
X45015D01*
X44895Y14710D01*
Y14950D01*
X45015Y15070D01*
X45375D01*
X46335Y15310D02*
Y14590D01*
Y14950D01*
X46815D01*
Y15310D01*
Y14590D01*
X47175D02*
X47415D01*
X47534Y14710D01*
Y14950D01*
X47415Y15070D01*
X47175D01*
X47055Y14950D01*
Y14710D01*
X47175Y14590D01*
X47774D02*
X48014D01*
X47894D01*
Y15310D01*
X47774D01*
X48734Y14590D02*
X48494D01*
X48374Y14710D01*
Y14950D01*
X48494Y15070D01*
X48734D01*
X48854Y14950D01*
Y14830D01*
X48374D01*
X50294Y15190D02*
X50174Y15310D01*
X49934D01*
X49814Y15190D01*
Y15070D01*
X49934Y14950D01*
X50174D01*
X50294Y14830D01*
Y14710D01*
X50174Y14590D01*
X49934D01*
X49814Y14710D01*
X50534Y14590D02*
X50773D01*
X50653D01*
Y15070D01*
X50534D01*
X51133D02*
X51613D01*
X51133Y14590D01*
X51613D01*
X52213D02*
X51973D01*
X51853Y14710D01*
Y14950D01*
X51973Y15070D01*
X52213D01*
X52333Y14950D01*
Y14830D01*
X51853D01*
X53533Y14590D02*
Y15310D01*
X53893D01*
X54013Y15190D01*
Y14950D01*
X53893Y14830D01*
X53533D01*
X54253Y14590D02*
X54493D01*
X54373D01*
Y15310D01*
X54253D01*
X54972Y15070D02*
X55212D01*
X55332Y14950D01*
Y14590D01*
X54972D01*
X54853Y14710D01*
X54972Y14830D01*
X55332D01*
X55692Y15190D02*
Y15070D01*
X55572D01*
X55812D01*
X55692D01*
Y14710D01*
X55812Y14590D01*
X56532D02*
X56292D01*
X56172Y14710D01*
Y14950D01*
X56292Y15070D01*
X56532D01*
X56652Y14950D01*
Y14830D01*
X56172D01*
X57372Y15310D02*
Y14590D01*
X57012D01*
X56892Y14710D01*
Y14950D01*
X57012Y15070D01*
X57372D01*
X58572Y15310D02*
Y14590D01*
Y14950D01*
X59052D01*
Y15310D01*
Y14590D01*
X59411D02*
X59651D01*
X59771Y14710D01*
Y14950D01*
X59651Y15070D01*
X59411D01*
X59291Y14950D01*
Y14710D01*
X59411Y14590D01*
X60011D02*
X60251D01*
X60131D01*
Y15310D01*
X60011D01*
X60971Y14590D02*
X60731D01*
X60611Y14710D01*
Y14950D01*
X60731Y15070D01*
X60971D01*
X61091Y14950D01*
Y14830D01*
X60611D01*
X62051Y15310D02*
X62530D01*
X62290D01*
Y14590D01*
X62770Y15070D02*
Y14710D01*
X62890Y14590D01*
X63250D01*
Y14470D01*
X63130Y14350D01*
X63010D01*
X63250Y14590D02*
Y15070D01*
X63490Y14350D02*
Y15070D01*
X63850D01*
X63970Y14950D01*
Y14710D01*
X63850Y14590D01*
X63490D01*
X64570D02*
X64330D01*
X64210Y14710D01*
Y14950D01*
X64330Y15070D01*
X64570D01*
X64690Y14950D01*
Y14830D01*
X64210D01*
X27220Y15670D02*
X65890D01*
X27220Y14050D02*
X65890D01*
X27220Y15670D02*
Y5650D01*
X65890Y15670D02*
Y5650D01*
X32699Y15670D02*
Y5650D01*
X39657Y15670D02*
Y5650D01*
X53093Y15670D02*
Y5650D01*
X58132Y15670D02*
Y5650D01*
X27220Y6850D02*
X65890D01*
X27220Y5650D02*
X65890D01*
M02*
