G04*
G04 #@! TF.GenerationSoftware,Altium Limited,Altium Designer,21.0.8 (223)*
G04*
G04 Layer_Color=32896*
%FSLAX24Y24*%
%MOIN*%
G70*
G04*
G04 #@! TF.SameCoordinates,11726A0C-8756-45C8-9DEF-AB95AD2673E8*
G04*
G04*
G04 #@! TF.FilePolarity,Positive*
G04*
G01*
G75*
%ADD10C,0.0100*%
%ADD17C,0.0394*%
G36*
X23378Y5226D02*
X23381Y5222D01*
X23384Y5219D01*
X23387Y5216D01*
X23389Y5213D01*
X23391Y5212D01*
X23391Y5211D01*
X23392Y5210D01*
X23393Y5209D01*
X23393Y5209D01*
X23393Y5209D01*
X23398Y5205D01*
X23403Y5201D01*
X23408Y5198D01*
X23412Y5195D01*
X23414Y5194D01*
X23416Y5193D01*
X23418Y5192D01*
X23419Y5191D01*
X23421Y5191D01*
X23421Y5190D01*
X23422Y5190D01*
X23422Y5190D01*
Y5171D01*
X23419Y5173D01*
X23415Y5174D01*
X23412Y5176D01*
X23409Y5177D01*
X23406Y5179D01*
X23405Y5180D01*
X23404Y5180D01*
X23403Y5181D01*
X23402Y5181D01*
X23402Y5181D01*
X23402D01*
X23397Y5184D01*
X23394Y5186D01*
X23391Y5189D01*
X23388Y5191D01*
X23386Y5192D01*
X23384Y5194D01*
X23383Y5194D01*
X23383Y5195D01*
Y5070D01*
X23363D01*
Y5230D01*
X23376D01*
X23378Y5226D01*
D02*
G37*
G36*
X23590Y5070D02*
X23569D01*
Y5141D01*
X23542D01*
X23539Y5141D01*
X23537Y5141D01*
X23535D01*
X23534Y5140D01*
X23533Y5140D01*
X23533Y5140D01*
X23533D01*
X23531Y5140D01*
X23529Y5139D01*
X23528Y5138D01*
X23526Y5137D01*
X23525Y5137D01*
X23524Y5136D01*
X23523Y5136D01*
X23523Y5136D01*
X23521Y5135D01*
X23519Y5133D01*
X23518Y5131D01*
X23516Y5129D01*
X23514Y5128D01*
X23513Y5126D01*
X23513Y5126D01*
X23512Y5125D01*
Y5125D01*
X23510Y5122D01*
X23507Y5119D01*
X23505Y5115D01*
X23502Y5111D01*
X23500Y5108D01*
X23499Y5107D01*
X23499Y5106D01*
X23498Y5105D01*
X23497Y5104D01*
X23497Y5103D01*
X23497Y5103D01*
X23476Y5070D01*
X23450D01*
X23477Y5113D01*
X23480Y5118D01*
X23483Y5122D01*
X23486Y5126D01*
X23489Y5129D01*
X23491Y5131D01*
X23492Y5132D01*
X23493Y5133D01*
X23494Y5134D01*
X23494Y5134D01*
X23495Y5135D01*
X23495Y5135D01*
X23496Y5136D01*
X23498Y5138D01*
X23501Y5139D01*
X23503Y5140D01*
X23505Y5141D01*
X23506Y5142D01*
X23507Y5142D01*
X23507Y5143D01*
X23507D01*
X23503Y5143D01*
X23499Y5144D01*
X23496Y5145D01*
X23492Y5146D01*
X23489Y5148D01*
X23487Y5149D01*
X23484Y5150D01*
X23482Y5151D01*
X23480Y5152D01*
X23478Y5154D01*
X23477Y5155D01*
X23475Y5155D01*
X23475Y5156D01*
X23474Y5157D01*
X23474Y5157D01*
X23473Y5157D01*
X23471Y5160D01*
X23470Y5162D01*
X23468Y5164D01*
X23467Y5167D01*
X23466Y5169D01*
X23465Y5172D01*
X23464Y5176D01*
X23463Y5178D01*
X23463Y5180D01*
X23463Y5182D01*
X23463Y5183D01*
X23462Y5184D01*
Y5185D01*
Y5186D01*
Y5186D01*
X23463Y5191D01*
X23463Y5195D01*
X23464Y5199D01*
X23466Y5203D01*
X23466Y5205D01*
X23467Y5206D01*
X23468Y5207D01*
X23468Y5208D01*
X23468Y5209D01*
X23469Y5210D01*
X23469Y5210D01*
Y5210D01*
X23472Y5214D01*
X23475Y5217D01*
X23478Y5220D01*
X23480Y5222D01*
X23483Y5223D01*
X23485Y5224D01*
X23486Y5225D01*
X23486Y5225D01*
X23487Y5225D01*
X23487D01*
X23489Y5226D01*
X23491Y5227D01*
X23497Y5228D01*
X23502Y5229D01*
X23507Y5229D01*
X23510Y5229D01*
X23512Y5230D01*
X23514D01*
X23516Y5230D01*
X23590D01*
Y5070D01*
D02*
G37*
G36*
X23264Y5230D02*
X23267Y5230D01*
X23270Y5229D01*
X23273Y5229D01*
X23275Y5228D01*
X23278Y5227D01*
X23280Y5226D01*
X23282Y5226D01*
X23284Y5225D01*
X23286Y5224D01*
X23287Y5223D01*
X23288Y5222D01*
X23289Y5222D01*
X23289Y5221D01*
X23290Y5221D01*
X23290Y5221D01*
X23292Y5219D01*
X23294Y5217D01*
X23297Y5213D01*
X23301Y5208D01*
X23303Y5204D01*
X23304Y5202D01*
X23305Y5200D01*
X23306Y5199D01*
X23306Y5197D01*
X23307Y5196D01*
X23307Y5195D01*
X23307Y5194D01*
Y5194D01*
X23308Y5191D01*
X23309Y5187D01*
X23311Y5180D01*
X23312Y5172D01*
X23312Y5169D01*
X23312Y5165D01*
X23313Y5162D01*
X23313Y5159D01*
X23313Y5156D01*
Y5153D01*
X23313Y5151D01*
Y5150D01*
Y5149D01*
Y5149D01*
X23313Y5141D01*
X23312Y5133D01*
X23312Y5126D01*
X23311Y5120D01*
X23309Y5114D01*
X23308Y5108D01*
X23307Y5104D01*
X23305Y5099D01*
X23304Y5096D01*
X23302Y5092D01*
X23301Y5090D01*
X23300Y5088D01*
X23299Y5086D01*
X23298Y5085D01*
X23297Y5084D01*
X23297Y5084D01*
X23295Y5081D01*
X23292Y5078D01*
X23289Y5076D01*
X23286Y5074D01*
X23283Y5073D01*
X23280Y5071D01*
X23277Y5070D01*
X23274Y5069D01*
X23272Y5069D01*
X23269Y5068D01*
X23267Y5068D01*
X23265Y5068D01*
X23263Y5068D01*
X23262Y5067D01*
X23261D01*
X23258Y5068D01*
X23255Y5068D01*
X23252Y5068D01*
X23249Y5069D01*
X23247Y5070D01*
X23244Y5070D01*
X23242Y5071D01*
X23240Y5072D01*
X23238Y5073D01*
X23237Y5074D01*
X23235Y5075D01*
X23234Y5075D01*
X23233Y5076D01*
X23233Y5076D01*
X23232Y5077D01*
X23232Y5077D01*
X23230Y5079D01*
X23228Y5081D01*
X23225Y5085D01*
X23222Y5089D01*
X23219Y5094D01*
X23218Y5096D01*
X23217Y5098D01*
X23217Y5099D01*
X23216Y5101D01*
X23215Y5102D01*
X23215Y5103D01*
X23215Y5103D01*
Y5103D01*
X23214Y5107D01*
X23213Y5110D01*
X23211Y5118D01*
X23210Y5125D01*
X23210Y5129D01*
X23210Y5133D01*
X23210Y5136D01*
X23209Y5139D01*
X23209Y5142D01*
X23209Y5144D01*
Y5146D01*
Y5148D01*
Y5148D01*
Y5149D01*
Y5153D01*
X23209Y5157D01*
X23209Y5161D01*
X23210Y5165D01*
X23210Y5168D01*
X23210Y5171D01*
X23211Y5174D01*
X23211Y5176D01*
X23211Y5179D01*
X23211Y5181D01*
X23212Y5182D01*
X23212Y5184D01*
X23212Y5185D01*
X23213Y5186D01*
X23213Y5186D01*
Y5186D01*
X23214Y5191D01*
X23216Y5196D01*
X23217Y5200D01*
X23219Y5203D01*
X23220Y5205D01*
X23220Y5206D01*
X23221Y5207D01*
X23222Y5208D01*
X23222Y5209D01*
X23222Y5209D01*
X23223Y5210D01*
Y5210D01*
X23225Y5213D01*
X23228Y5217D01*
X23230Y5219D01*
X23233Y5221D01*
X23235Y5223D01*
X23237Y5224D01*
X23238Y5224D01*
X23238Y5225D01*
X23238Y5225D01*
X23239D01*
X23242Y5227D01*
X23246Y5228D01*
X23250Y5229D01*
X23254Y5230D01*
X23257Y5230D01*
X23258Y5230D01*
X23259Y5230D01*
X23261D01*
X23264Y5230D01*
D02*
G37*
%LPC*%
G36*
X23569Y5212D02*
X23515D01*
X23512Y5212D01*
X23509Y5211D01*
X23507Y5211D01*
X23505Y5210D01*
X23502Y5210D01*
X23501Y5209D01*
X23499Y5208D01*
X23497Y5208D01*
X23496Y5207D01*
X23495Y5206D01*
X23494Y5206D01*
X23493Y5205D01*
X23493Y5205D01*
X23493Y5205D01*
X23492Y5205D01*
X23491Y5203D01*
X23490Y5202D01*
X23488Y5199D01*
X23486Y5196D01*
X23485Y5193D01*
X23484Y5190D01*
X23484Y5189D01*
Y5188D01*
X23484Y5187D01*
Y5187D01*
Y5186D01*
Y5186D01*
X23484Y5183D01*
X23485Y5181D01*
X23486Y5178D01*
X23486Y5176D01*
X23487Y5174D01*
X23488Y5173D01*
X23488Y5172D01*
X23488Y5172D01*
X23490Y5169D01*
X23492Y5167D01*
X23494Y5166D01*
X23496Y5164D01*
X23498Y5163D01*
X23500Y5163D01*
X23501Y5162D01*
X23501Y5162D01*
X23501D01*
X23504Y5161D01*
X23508Y5160D01*
X23512Y5160D01*
X23515Y5160D01*
X23519Y5159D01*
X23520D01*
X23521Y5159D01*
X23569D01*
Y5212D01*
D02*
G37*
G36*
X23263Y5214D02*
X23261D01*
X23259Y5214D01*
X23256Y5213D01*
X23254Y5213D01*
X23252Y5212D01*
X23248Y5210D01*
X23245Y5208D01*
X23243Y5206D01*
X23242Y5205D01*
X23241Y5204D01*
X23240Y5203D01*
X23239Y5202D01*
X23239Y5201D01*
X23239Y5201D01*
X23238Y5201D01*
X23237Y5198D01*
X23235Y5195D01*
X23234Y5191D01*
X23233Y5187D01*
X23232Y5183D01*
X23231Y5179D01*
X23230Y5170D01*
X23230Y5166D01*
X23230Y5162D01*
X23229Y5158D01*
X23229Y5155D01*
X23229Y5152D01*
Y5151D01*
Y5150D01*
Y5150D01*
Y5149D01*
Y5149D01*
Y5149D01*
X23229Y5142D01*
X23229Y5135D01*
X23230Y5129D01*
X23231Y5124D01*
X23231Y5119D01*
X23232Y5115D01*
X23233Y5111D01*
X23234Y5108D01*
X23235Y5105D01*
X23236Y5103D01*
X23236Y5101D01*
X23237Y5099D01*
X23238Y5098D01*
X23238Y5097D01*
X23238Y5097D01*
X23238Y5096D01*
X23240Y5094D01*
X23242Y5092D01*
X23244Y5090D01*
X23246Y5089D01*
X23248Y5088D01*
X23250Y5087D01*
X23251Y5086D01*
X23253Y5085D01*
X23256Y5084D01*
X23258Y5084D01*
X23259Y5084D01*
X23260D01*
X23261Y5083D01*
X23261D01*
X23264Y5084D01*
X23266Y5084D01*
X23268Y5085D01*
X23270Y5086D01*
X23274Y5087D01*
X23278Y5090D01*
X23280Y5092D01*
X23281Y5093D01*
X23282Y5094D01*
X23283Y5095D01*
X23283Y5096D01*
X23284Y5096D01*
X23284Y5096D01*
X23285Y5099D01*
X23287Y5102D01*
X23288Y5106D01*
X23289Y5110D01*
X23290Y5114D01*
X23291Y5119D01*
X23292Y5127D01*
X23292Y5132D01*
X23292Y5136D01*
X23293Y5139D01*
X23293Y5142D01*
X23293Y5145D01*
Y5146D01*
Y5147D01*
Y5148D01*
Y5148D01*
Y5149D01*
Y5149D01*
X23293Y5156D01*
X23292Y5162D01*
X23292Y5168D01*
X23291Y5174D01*
X23291Y5178D01*
X23290Y5183D01*
X23289Y5187D01*
X23288Y5190D01*
X23287Y5193D01*
X23286Y5196D01*
X23285Y5198D01*
X23284Y5200D01*
X23284Y5201D01*
X23283Y5202D01*
X23283Y5202D01*
X23283Y5203D01*
X23281Y5205D01*
X23280Y5206D01*
X23278Y5208D01*
X23276Y5209D01*
X23274Y5210D01*
X23273Y5211D01*
X23269Y5213D01*
X23266Y5213D01*
X23265Y5214D01*
X23264Y5214D01*
X23263Y5214D01*
D02*
G37*
%LPD*%
D10*
X23660Y4608D02*
Y4986D01*
X23140Y4608D02*
X23660D01*
X23140D02*
Y4986D01*
X23660Y5321D02*
Y5699D01*
X23140D02*
X23660D01*
X23140Y5321D02*
Y5699D01*
D17*
X5791Y7952D02*
Y8936D01*
X4137Y6475D02*
X4925D01*
X3350Y8050D02*
Y8837D01*
M02*
