G04*
G04 #@! TF.GenerationSoftware,Altium Limited,Altium Designer,21.0.8 (223)*
G04*
G04 Layer_Color=8388736*
%FSLAX24Y24*%
%MOIN*%
G70*
G04*
G04 #@! TF.SameCoordinates,11726A0C-8756-45C8-9DEF-AB95AD2673E8*
G04*
G04*
G04 #@! TF.FilePolarity,Negative*
G04*
G01*
G75*
%ADD17C,0.0394*%
%ADD37R,0.0395X0.0434*%
%ADD38R,0.0590X0.0772*%
%ADD39R,0.0552X0.0474*%
%ADD40R,0.0552X0.0631*%
%ADD41R,0.0398X0.0420*%
%ADD42O,0.0190X0.0710*%
%ADD43O,0.0710X0.0190*%
%ADD44R,0.1143X0.1143*%
%ADD45R,0.0190X0.0342*%
%ADD46R,0.0342X0.0190*%
%ADD47R,0.0190X0.0342*%
%ADD48R,0.0946X0.0867*%
%ADD49R,0.0434X0.0395*%
%ADD50R,0.0395X0.0395*%
%ADD51R,0.0671X0.0631*%
%ADD52R,0.0316X0.0501*%
%ADD53R,0.0420X0.0398*%
%ADD54R,0.0880X0.0530*%
%ADD55R,0.0680X0.1480*%
%ADD56C,0.0880*%
%ADD57R,0.0671X0.0671*%
%ADD58C,0.0671*%
%ADD59C,0.1182*%
%ADD60C,0.0671*%
%ADD61O,0.1655X0.0867*%
%ADD62O,0.0867X0.1655*%
%ADD63O,0.0867X0.1852*%
D17*
X5791Y7952D02*
Y8936D01*
X4137Y6475D02*
X4925D01*
X3350Y8050D02*
Y8837D01*
D37*
X17399Y6950D02*
D03*
X17950D02*
D03*
X19400Y7650D02*
D03*
X18849D02*
D03*
X19700Y5450D02*
D03*
X20251D02*
D03*
X19700Y4900D02*
D03*
X20251D02*
D03*
D38*
X16600Y9978D02*
D03*
Y8650D02*
D03*
X1050Y5800D02*
D03*
Y4472D02*
D03*
X6100Y4893D02*
D03*
Y3565D02*
D03*
D39*
X16550Y7720D02*
D03*
Y6500D02*
D03*
D40*
X17450Y8650D02*
D03*
Y10016D02*
D03*
D41*
X14000Y2090D02*
D03*
X13407D02*
D03*
Y1156D02*
D03*
X14000D02*
D03*
X13993Y2850D02*
D03*
X13400D02*
D03*
X17357Y7650D02*
D03*
X17950D02*
D03*
X20244Y6150D02*
D03*
X19651D02*
D03*
X20244Y3600D02*
D03*
X19651D02*
D03*
X20244Y4250D02*
D03*
X19651D02*
D03*
D42*
X10090Y3772D02*
D03*
X10287D02*
D03*
X10484D02*
D03*
X10681D02*
D03*
X10877D02*
D03*
X11074D02*
D03*
X11271Y3772D02*
D03*
X11468D02*
D03*
X11665D02*
D03*
X11862D02*
D03*
X12059D02*
D03*
X12255D02*
D03*
X12452D02*
D03*
X12649D02*
D03*
X12846Y3772D02*
D03*
X13043D02*
D03*
X13240D02*
D03*
X13437D02*
D03*
X13633D02*
D03*
X13830Y3772D02*
D03*
X14027D02*
D03*
X14224D02*
D03*
X14421D02*
D03*
X14618D02*
D03*
X14814Y3772D02*
D03*
X14814Y9836D02*
D03*
X14618D02*
D03*
X14421D02*
D03*
X14224D02*
D03*
X14027D02*
D03*
X13830D02*
D03*
X13633D02*
D03*
X13437D02*
D03*
X13240D02*
D03*
X13043D02*
D03*
X12846D02*
D03*
X12649D02*
D03*
X12452D02*
D03*
X12255D02*
D03*
X12059D02*
D03*
X11862D02*
D03*
X11665D02*
D03*
X11468D02*
D03*
X11271D02*
D03*
X11074D02*
D03*
X10877Y9836D02*
D03*
X10681Y9836D02*
D03*
X10484D02*
D03*
X10287D02*
D03*
X10090D02*
D03*
D43*
X15484Y4442D02*
D03*
Y4639D02*
D03*
Y4836D02*
D03*
Y5032D02*
D03*
X15484Y5229D02*
D03*
Y5426D02*
D03*
X15484Y5623D02*
D03*
Y5820D02*
D03*
Y6017D02*
D03*
Y6213D02*
D03*
Y6410D02*
D03*
Y6607D02*
D03*
Y6804D02*
D03*
Y7001D02*
D03*
X15484Y7198D02*
D03*
Y7395D02*
D03*
Y7591D02*
D03*
X15484Y7788D02*
D03*
Y7985D02*
D03*
X15484Y8182D02*
D03*
Y8379D02*
D03*
Y8576D02*
D03*
Y8773D02*
D03*
Y8969D02*
D03*
Y9166D02*
D03*
X9421Y9166D02*
D03*
X9421Y8969D02*
D03*
Y8773D02*
D03*
Y8576D02*
D03*
Y8379D02*
D03*
X9421Y8182D02*
D03*
Y7985D02*
D03*
Y7788D02*
D03*
Y7591D02*
D03*
Y7395D02*
D03*
Y7198D02*
D03*
X9421Y7001D02*
D03*
Y6804D02*
D03*
Y6607D02*
D03*
Y6410D02*
D03*
X9421Y6213D02*
D03*
Y6017D02*
D03*
Y5820D02*
D03*
Y5623D02*
D03*
Y5426D02*
D03*
X9421Y5229D02*
D03*
Y5032D02*
D03*
Y4836D02*
D03*
Y4639D02*
D03*
Y4442D02*
D03*
D44*
X18450Y5700D02*
D03*
D45*
X18056Y6451D02*
D03*
X18253D02*
D03*
X18450D02*
D03*
X18647D02*
D03*
X18844D02*
D03*
D46*
X19201Y6094D02*
D03*
Y5897D02*
D03*
Y5700D02*
D03*
Y5503D02*
D03*
Y5306D02*
D03*
X17699D02*
D03*
Y5503D02*
D03*
Y5700D02*
D03*
Y5897D02*
D03*
Y6094D02*
D03*
D47*
X18844Y4949D02*
D03*
X18647D02*
D03*
X18450D02*
D03*
X18253D02*
D03*
X18056D02*
D03*
D48*
X10200Y2850D02*
D03*
X12200Y1350D02*
D03*
X12200Y2850D02*
D03*
X10200Y1350D02*
D03*
D49*
X1800Y5864D02*
D03*
Y5313D02*
D03*
X1005Y2826D02*
D03*
Y3377D02*
D03*
X1750Y3383D02*
D03*
Y2832D02*
D03*
X2577Y1801D02*
D03*
Y1250D02*
D03*
X4098Y1801D02*
D03*
Y1250D02*
D03*
X3338Y1801D02*
D03*
X3338Y1250D02*
D03*
X1057Y1801D02*
D03*
X1057Y1250D02*
D03*
X1817Y1801D02*
D03*
Y1250D02*
D03*
X4859Y1801D02*
D03*
Y1250D02*
D03*
X5619Y1801D02*
D03*
X5619Y1250D02*
D03*
X7900Y1851D02*
D03*
Y1300D02*
D03*
X6379Y1801D02*
D03*
Y1250D02*
D03*
D50*
X6250Y5950D02*
D03*
X6880Y5953D02*
D03*
X7620Y5954D02*
D03*
X8250Y5957D02*
D03*
D51*
X7550Y6897D02*
D03*
Y9889D02*
D03*
D52*
X7245Y2778D02*
D03*
X6871Y3750D02*
D03*
X7619D02*
D03*
D53*
X6900Y5000D02*
D03*
Y4407D02*
D03*
X8950Y2806D02*
D03*
Y3399D02*
D03*
X8300Y2806D02*
D03*
Y3399D02*
D03*
X7600Y5000D02*
D03*
Y4407D02*
D03*
X7098Y1251D02*
D03*
Y1844D02*
D03*
D54*
X2643Y3494D02*
D03*
Y4400D02*
D03*
Y5306D02*
D03*
D55*
X5300Y4400D02*
D03*
D56*
X22750Y4150D02*
D03*
Y6150D02*
D03*
D57*
X19050Y2450D02*
D03*
D58*
X19050Y1450D02*
D03*
X18050Y2450D02*
D03*
Y1450D02*
D03*
X17050Y2450D02*
D03*
Y1450D02*
D03*
X16050Y2450D02*
D03*
X16050Y1450D02*
D03*
X15050Y2450D02*
D03*
Y1450D02*
D03*
X4137Y6475D02*
D03*
X4925D02*
D03*
X3350Y8837D02*
D03*
Y8050D02*
D03*
D59*
X18650Y3700D02*
D03*
Y8700D02*
D03*
D60*
X5791Y7952D02*
D03*
Y8936D02*
D03*
D61*
X4531Y6475D02*
D03*
D62*
X3350Y8444D02*
D03*
D63*
X5791Y8444D02*
D03*
M02*
