G04*
G04 #@! TF.GenerationSoftware,Altium Limited,Altium Designer,21.0.8 (223)*
G04*
G04 Layer_Color=255*
%FSLAX24Y24*%
%MOIN*%
G70*
G04*
G04 #@! TF.SameCoordinates,11726A0C-8756-45C8-9DEF-AB95AD2673E8*
G04*
G04*
G04 #@! TF.FilePolarity,Positive*
G04*
G01*
G75*
%ADD17C,0.0394*%
%ADD18R,0.0315X0.0354*%
%ADD19R,0.0510X0.0692*%
%ADD20R,0.0472X0.0394*%
%ADD21R,0.0472X0.0551*%
%ADD22R,0.0318X0.0340*%
%ADD23O,0.0110X0.0630*%
%ADD24O,0.0630X0.0110*%
%ADD25R,0.1063X0.1063*%
%ADD26R,0.0110X0.0262*%
%ADD27R,0.0262X0.0110*%
%ADD28R,0.0110X0.0262*%
%ADD29R,0.0866X0.0787*%
%ADD30R,0.0354X0.0315*%
%ADD31R,0.0315X0.0315*%
%ADD32R,0.0591X0.0551*%
%ADD33R,0.0236X0.0421*%
%ADD34R,0.0340X0.0318*%
%ADD35R,0.0800X0.0450*%
%ADD36R,0.0600X0.1400*%
%ADD69C,0.0800*%
%ADD70R,0.0591X0.0591*%
%ADD71C,0.0591*%
%ADD72C,0.1102*%
%ADD73C,0.0591*%
%ADD74O,0.1575X0.0787*%
%ADD75O,0.0787X0.1575*%
%ADD76O,0.0787X0.1772*%
D17*
X5791Y7952D02*
Y8936D01*
X4137Y6475D02*
X4925D01*
X3350Y8050D02*
Y8837D01*
D18*
X17399Y6950D02*
D03*
X17950D02*
D03*
X19400Y7650D02*
D03*
X18849D02*
D03*
X19700Y5450D02*
D03*
X20251D02*
D03*
X19700Y4900D02*
D03*
X20251D02*
D03*
D19*
X16600Y9978D02*
D03*
Y8650D02*
D03*
X1050Y5800D02*
D03*
Y4472D02*
D03*
X6100Y4893D02*
D03*
Y3565D02*
D03*
D20*
X16550Y7720D02*
D03*
Y6500D02*
D03*
D21*
X17450Y8650D02*
D03*
Y10016D02*
D03*
D22*
X14000Y2090D02*
D03*
X13407D02*
D03*
Y1156D02*
D03*
X14000D02*
D03*
X13993Y2850D02*
D03*
X13400D02*
D03*
X17357Y7650D02*
D03*
X17950D02*
D03*
X20244Y6150D02*
D03*
X19651D02*
D03*
X20244Y3600D02*
D03*
X19651D02*
D03*
X20244Y4250D02*
D03*
X19651D02*
D03*
D23*
X10090Y3772D02*
D03*
X10287D02*
D03*
X10484D02*
D03*
X10681D02*
D03*
X10877D02*
D03*
X11074D02*
D03*
X11271Y3772D02*
D03*
X11468D02*
D03*
X11665D02*
D03*
X11862D02*
D03*
X12059D02*
D03*
X12255D02*
D03*
X12452D02*
D03*
X12649D02*
D03*
X12846Y3772D02*
D03*
X13043D02*
D03*
X13240D02*
D03*
X13437D02*
D03*
X13633D02*
D03*
X13830Y3772D02*
D03*
X14027D02*
D03*
X14224D02*
D03*
X14421D02*
D03*
X14618D02*
D03*
X14814Y3772D02*
D03*
X14814Y9836D02*
D03*
X14618D02*
D03*
X14421D02*
D03*
X14224D02*
D03*
X14027D02*
D03*
X13830D02*
D03*
X13633D02*
D03*
X13437D02*
D03*
X13240D02*
D03*
X13043D02*
D03*
X12846D02*
D03*
X12649D02*
D03*
X12452D02*
D03*
X12255D02*
D03*
X12059D02*
D03*
X11862D02*
D03*
X11665D02*
D03*
X11468D02*
D03*
X11271D02*
D03*
X11074D02*
D03*
X10877Y9836D02*
D03*
X10681Y9836D02*
D03*
X10484D02*
D03*
X10287D02*
D03*
X10090D02*
D03*
D24*
X15484Y4442D02*
D03*
Y4639D02*
D03*
Y4836D02*
D03*
Y5032D02*
D03*
X15484Y5229D02*
D03*
Y5426D02*
D03*
X15484Y5623D02*
D03*
Y5820D02*
D03*
Y6017D02*
D03*
Y6213D02*
D03*
Y6410D02*
D03*
Y6607D02*
D03*
Y6804D02*
D03*
Y7001D02*
D03*
X15484Y7198D02*
D03*
Y7395D02*
D03*
Y7591D02*
D03*
X15484Y7788D02*
D03*
Y7985D02*
D03*
X15484Y8182D02*
D03*
Y8379D02*
D03*
Y8576D02*
D03*
Y8773D02*
D03*
Y8969D02*
D03*
Y9166D02*
D03*
X9421Y9166D02*
D03*
X9421Y8969D02*
D03*
Y8773D02*
D03*
Y8576D02*
D03*
Y8379D02*
D03*
X9421Y8182D02*
D03*
Y7985D02*
D03*
Y7788D02*
D03*
Y7591D02*
D03*
Y7395D02*
D03*
Y7198D02*
D03*
X9421Y7001D02*
D03*
Y6804D02*
D03*
Y6607D02*
D03*
Y6410D02*
D03*
X9421Y6213D02*
D03*
Y6017D02*
D03*
Y5820D02*
D03*
Y5623D02*
D03*
Y5426D02*
D03*
X9421Y5229D02*
D03*
Y5032D02*
D03*
Y4836D02*
D03*
Y4639D02*
D03*
Y4442D02*
D03*
D25*
X18450Y5700D02*
D03*
D26*
X18056Y6451D02*
D03*
X18253D02*
D03*
X18450D02*
D03*
X18647D02*
D03*
X18844D02*
D03*
D27*
X19201Y6094D02*
D03*
Y5897D02*
D03*
Y5700D02*
D03*
Y5503D02*
D03*
Y5306D02*
D03*
X17699D02*
D03*
Y5503D02*
D03*
Y5700D02*
D03*
Y5897D02*
D03*
Y6094D02*
D03*
D28*
X18844Y4949D02*
D03*
X18647D02*
D03*
X18450D02*
D03*
X18253D02*
D03*
X18056D02*
D03*
D29*
X10200Y2850D02*
D03*
X12200Y1350D02*
D03*
X12200Y2850D02*
D03*
X10200Y1350D02*
D03*
D30*
X1800Y5864D02*
D03*
Y5313D02*
D03*
X1005Y2826D02*
D03*
Y3377D02*
D03*
X1750Y3383D02*
D03*
Y2832D02*
D03*
X2577Y1801D02*
D03*
Y1250D02*
D03*
X4098Y1801D02*
D03*
Y1250D02*
D03*
X3338Y1801D02*
D03*
X3338Y1250D02*
D03*
X1057Y1801D02*
D03*
X1057Y1250D02*
D03*
X1817Y1801D02*
D03*
Y1250D02*
D03*
X4859Y1801D02*
D03*
Y1250D02*
D03*
X5619Y1801D02*
D03*
X5619Y1250D02*
D03*
X7900Y1851D02*
D03*
Y1300D02*
D03*
X6379Y1801D02*
D03*
Y1250D02*
D03*
D31*
X6250Y5950D02*
D03*
X6880Y5953D02*
D03*
X7620Y5954D02*
D03*
X8250Y5957D02*
D03*
D32*
X7550Y6897D02*
D03*
Y9889D02*
D03*
D33*
X7245Y2778D02*
D03*
X6871Y3750D02*
D03*
X7619D02*
D03*
D34*
X6900Y5000D02*
D03*
Y4407D02*
D03*
X8950Y2806D02*
D03*
Y3399D02*
D03*
X8300Y2806D02*
D03*
Y3399D02*
D03*
X7600Y5000D02*
D03*
Y4407D02*
D03*
X7098Y1251D02*
D03*
Y1844D02*
D03*
D35*
X2643Y3494D02*
D03*
Y4400D02*
D03*
Y5306D02*
D03*
D36*
X5300Y4400D02*
D03*
D69*
X22750Y4150D02*
D03*
Y6150D02*
D03*
D70*
X19050Y2450D02*
D03*
D71*
X19050Y1450D02*
D03*
X18050Y2450D02*
D03*
Y1450D02*
D03*
X17050Y2450D02*
D03*
Y1450D02*
D03*
X16050Y2450D02*
D03*
X16050Y1450D02*
D03*
X15050Y2450D02*
D03*
Y1450D02*
D03*
X4137Y6475D02*
D03*
X4925D02*
D03*
X3350Y8837D02*
D03*
Y8050D02*
D03*
D72*
X18650Y3700D02*
D03*
Y8700D02*
D03*
D73*
X5791Y7952D02*
D03*
Y8936D02*
D03*
D74*
X4531Y6475D02*
D03*
D75*
X3350Y8444D02*
D03*
D76*
X5791Y8444D02*
D03*
M02*
