M48
;Layer_Color=9474304
;FILE_FORMAT=2:4
INCH,LZ
;TYPE=PLATED
T1F00S00C0.0080
T2F00S00C0.0100
T3F00S00C0.0354
T4F00S00C0.0394
T5F00S00C0.0450
T6F00S00C0.0760
%
T01
X01845Y004582
X017448Y005923
X018153Y007292
T02
X001437Y00125
X002197
X00295Y00125
X003718Y00125
X00265Y00385
X00325Y0053
X001377Y002829
X00685Y0033
X007245Y003195
X0083Y0024
X0089Y00215
X00955Y00185
Y0028
X0097Y0035
X0102Y0022
X01055Y0006
X01145
X01225
X013Y0013
Y0023
X012533Y002083
X0137Y002394
X014Y0018
X014306Y00085
X015475Y001475
X016625Y001975
X01905Y00205
X01965Y00145
Y00325
X01995Y00455
X01775Y00505
X016861Y00515
X0168Y0056
X01615Y0051
X014911Y00535
X0147Y00325
X01425Y00285
X0129Y00325
X01245Y0042
X012056
X01175Y00445
X01245Y00545
X010071Y004979
X00825Y0056
X008Y0044
X0061Y0054
X0084Y0013
X009675Y000725
X020244Y003925
X019525Y0058
X0187Y0068
X01755Y0066
X017058Y00575
X01635Y00605
X016092Y00595
X015992Y005658
X01615Y00655
X01605Y0068
X01655Y0073
X0166Y00815
X015879Y008379
X017006Y009978
X0179Y00955
X0197Y00765
X014872Y00575
X01345Y00915
X013Y00885
X01247Y009169
X012029Y009367
X009928Y008379
X008765Y008582
X00885Y00585
X01005Y00565
X00705Y00685
X0049Y0071
X0051Y008
X00225Y005743
X001457Y005864
T03
X01505Y00145
X01605Y00145
X01705
Y00245
X01805
X01905
X01905Y00145
X01805Y00145
X01605Y00245
X01505Y00245
T04
X004925Y006475
X005791Y007952
Y008936
X00335Y008837
Y00805
X004137Y006475
T05
X02275Y00415
Y00615
T06
X01865Y0037
Y0087
M30
